<?xml version="1.0" encoding="UTF-8"?>
<svg id="_レイヤー_2" data-name="レイヤー 2" xmlns="http://www.w3.org/2000/svg" viewBox="0 0 491.02 427.02">
  <defs>
    <style>
      .cls-1 {
        fill: none;
        stroke: blue;
        stroke-dasharray: 0 0 .3 5;
        stroke-linecap: round;
        stroke-linejoin: round;
        stroke-width: 3px;
      }
    </style>
  </defs>
  <g id="_レイヤー_4" data-name="レイヤー 4">
    <path class="cls-1" d="m477.48,302.28c-20.92-52.55-57.89-85.03-76.38-122.35s-23.29-32.13-21.83-73c1.46-40.87-1.01-44.57,3.03-59.49,6.11-22.59-38.13-60.53-53.68-40.08-19.3,12.42-28.41,25.62-40.17,42.89-11.76,17.27-19.68,23.53-49.67,23.77s-29.02,13.17-46.78,30.21c-17.75,17.03-66.81,47.08-83.84,51.16-22.52,7.21-38.34,1.78-56.06-.6-17.71-2.38-65.11,4.7-46.21,31.54,18.9,26.84,44.42,54.62,74.39,75.27,29.97,20.65,83.04,60.82,110.91,73.98,34.47,12.96,62.6,2.36,96.44,8.89s61.16,19.57,74.61,39.14c13.45,19.57,51.57,69.07,100.91,22.59,49.33-46.48,14.35-103.93,14.35-103.93Z"/>
    <path class="cls-1" d="m288.77,196.17c-5.56-19.92-1.43-27.88,4.65-40.03,6.08-12.15,9.65-32.17,0-38.96s-28.99-9.65-39.51,12.87c-10.52,22.52-8.74,33.95-23.39,48.25-14.65,14.3-48.61,27.52-38.96,47.53,9.65,20.01,40.7,15.01,62.35,23.23,21.64,8.22,33.44,18.23,49.16,28.95,15.73,10.72,38.6,12.51,43.25-8.22,4.65-20.73-22.52-29.66-35.03-38.6-12.51-8.94-20.72-28.59-22.52-35.03Z"/>
    <path class="cls-1" d="m284.95,204.28c-6.45-16.86-6.11-29.96-1.14-44.32,4.97-14.36,5.43-30.16-2.93-34.23s-20.02-3.8-27.07,16.31-6.27,29.23-17.68,40.69c-11.41,11.46-36.45,22.73-30.49,39.43,5.96,16.7,21.37,15.45,37.64,18.88,16.27,3.43,30.39,4.78,39.9,12.77,13.19,11.09,33.01,18,38.62,12.06,5.61-5.94-8.15-12.91-11.76-21.95-3.24-8.1-21.14-29.3-25.1-39.64Z"/>
    <g>
      <path class="cls-1" d="m261.7,159.57c-3.74,1.42-5.97,4.1-8.24,13.66-2.35,9.89-3.42,13.8-8.86,20.67-5.46,6.92-15.48,12.77-14.99,20.89.46,7.67.42,9.97,6.7,10.96,8.66,3.26,16.2-2.42,22.87-.98,8.58,1.86,15.87,4.39,21.02,8.69s15.29,8,9.63,2.55c-11.27-10.86-18.11-23.32-20.02-34.51-.23-1.33-.7-2.63-.86-4.02-1.33-11.03.6-22.2-1.27-28.79-.25-.87-.65-1.55-.71-2.16-.69-7.39-1.87-6.94-5.28-6.95Z"/>
      <path class="cls-1" d="m259.75,235.54c14.21.49,22.17,2.01,28.76,10.86,6.58,8.85,13.49,19.92,20.3,10.25,4.71-6.67-23.71-29.54-30.29-43.61-6.58-14.07-8.17-32.68-4.31-49.25s2.91-23.79-4.17-25.15-12.07-1.32-15.65,16.39c-3.58,17.7-4.47,23.52-12.64,32.14-8.17,8.63-24.29,17.93-22.02,31.32,2.27,13.39,2.04,15.89,12.94,14.53,10.89-1.36,20.5,2.3,27.08,2.53Z"/>
    </g>
    <path class="cls-1" d="m342.31,34.98c19.46-8.11,27.54,10.92,21.37,29.92-6.17,18.99-5.7,36.57-3.32,65.53,2.37,28.97,13.3,65.53,45.59,95.45,32.29,29.92,48.91,57.46,52.71,85.95s1.42,60.31-18.52,73.13c-19.94,12.82-42.74,20.89-84.53-19.47-41.79-40.36-68.37-39.41-90.93-38.94-22.56.47-54.38-5.7-89.52-28.97-35.14-23.27-98.3-64.58-115.87-82.39-17.57-17.81-32.77-45.82,0-45.35,32.77.47,68.86,8.55,107.32-21.84,38.46-30.39,47.49-61.26,65.53-61.73s40.36.95,58.88-23.27c18.52-24.22,28.49-30.39,51.29-28.02Z"/>
    <path class="cls-1" d="m330.38,336.29c29.09,25.7,44.14,37.9,61.38,37.09,23.83-2.24,32.54-14.52,34.32-16.92,13.51-18.31,11.15-63.92,3-80.97-8.15-17.05-47.18-51.57-60.05-72.87-12.87-21.31-29.16-49.86-27.45-84.38,1.71-34.52,1.71-26.42,6-38.78s-2.57-22.59-10.29-27.27-24.88-9.8-39.89,5.54c-5.72,5.49-14.36,23.16-27.41,26.7-18.88,3.92-13.07,4.27-32.52,6.29-19.44,2.02-16.71,8.28-25.82,19.98-9.11,11.7-23.03,28.33-33.54,35.22-15.05,11.26-28.41,21.52-44.13,24.44-15.71,2.92-37.55,4.54-55.91,7.45s-27.79,5.92-6.44,28.61c21.35,22.69,74.63,56.73,91.37,65.83,21.26,14.16,63.71,35.96,83.91,37.42,20.2,1.45,77.39,21.26,83.46,26.62Z"/>
    <path class="cls-1" d="m417.28,348.88c13.71-17.46,13.1-49.69,0-72.8-13.1-23.11-58.16-60.39-67.41-87.4-9.24-27.01-16.95-55.13-11.94-78.24,5.01-23.11,11.1-31.2-1.58-41.22-12.17-8.48-23.04-10.58-37.95,2.22s-16.05,17.54-33.72,21.05-26.62-1.23-38.02,13.15c-11.4,14.38-27.89,42.27-39.99,49.11-17.73,10.7-22.98,20.59-56.39,25.17-33.42,4.58-50.26,2.1-46.67,21.15,3.59,19.06,41.7,39.49,51.92,46.95,10.22,7.46,77.67,47.23,92.83,52.47,15.16,5.25,46.36,5.52,59.62,10.22,25.07,9.07,35.89,13.32,61.79,34.19s49.22,27.25,67.51,3.96Z"/>
    <path class="cls-1" d="m464.05,285.82c-15.26-26.37-49.58-59.37-73.09-97.14-23.51-37.77-20.52-72.39-21.8-99.74s11.54-38.89,5.56-50.01c-5.98-11.11-24.79-22.65-34.19-22.22-8.49.31-22.88,6.48-35.64,20.68-12.75,14.19-13.78,28.39-31.68,36-17.9,7.61-36.82,2.88-50.6,9.87-13.78,6.99-15.84,16.05-31.88,32.3-16.05,16.25-35.59,27.98-42.38,31.27-15.42,9.11-35.48,19.65-57.58,18.63-22.1-1.02-53.72-6.12-62.9,1.02-9.18,7.14-18.02,11.56-4.76,26.86s58.48,58.14,94.18,81.6c35.7,23.46,68,46.24,86.36,53.38,32.46,7.74,67.19,3.78,89.51,9.23s48.62,19.3,73.92,44.13c25.3,24.83,42.13,46.66,75.64,27.81,33.5-18.85,47.09-67.44,21.33-123.66Z"/>
    <path class="cls-1" d="m405.02,278.11c-14.76-23.52-18.91-26.29-42.9-53.51-23.99-27.21-37.82-51.2-33.67-86.26,4.15-35.06,11.99-47.05,1.38-55.35s-17.53-9.23-39.21,2.77c-9.76,4.7-13.54,10.04-27.36,11.83s-22.5.45-32.53,14.7-14.03,29.85-28.07,40.77c-14.03,10.92-30.52,25.17-45.67,28.07-15.15,2.9-49.9,7.22-51.46,17.98s6.24,20.56,16.04,27.69c17.9,10.7,61.27,42.18,97.93,56,36.67,13.82,64.69,15.74,83.88,25.33s60.65,48.37,82.53,38.39c21.88-9.98,32.8-41.24,19.09-68.41Z"/>
    <path class="cls-1" d="m391.76,283.95c-6.38-25.34-16.73-36.88-46.75-60.04-30.02-23.16-35.09-64.7-31.65-79.29,3.43-14.58,16.23-32.53,4.65-44.11-11.58-11.58-12.04-13.98-31.77-5.4s-38.45,6.32-47.47,19.29-24.56,48.6-51.58,60.61c-27.02,12.01-59.19,19.73-59.61,32.6s14.15,23.59,38.17,36.88c24.02,13.3,68.61,36.77,93.92,41.33,25.31,4.56,39.89,13.14,66.48,28.58,26.59,15.44,79.4,24.3,65.62-30.45Z"/>
    <path class="cls-1" d="m312.32,191.24c-6.11-20.98-9.07-39.71-2.47-55.45,6.59-15.74,10.22-26.98-.96-32.97-11.18-5.99-38.84,1.12-50.67,5.25-11.83,4.12-17.08,19.05-27.94,37.81-10.87,18.76-33.72,33.51-52.45,42.81-18.73,9.3-39.71,20.91-23.6,36.65,16.11,15.74,56.83,32.8,78.06,38.88,21.23,6.08,44.08,15.07,68.06,28.56,23.98,13.49,52.83,37.02,71.56,11.99,18.73-25.03-2.62-51.33-15.36-59.95-12.74-8.62-38.47-33.86-44.21-53.58Z"/>
    <path class="cls-1" d="m296.58,167.63c3.08-16.41,15.36-34.09,6.74-46.46-8.62-12.36-25.93-21.46-45.11-6.37-19.18,15.1-16.4,38.96-29.85,52.83-13.45,13.86-40.43,26.28-52.42,38.99-11.99,12.71-8.24,26.57,20.61,35.56,28.85,8.99,62.57,19.48,81.3,28.1,18.73,8.62,50.95,41.96,74.18,24.73,23.23-17.23,3-42.34-15.74-54.33-18.73-11.99-44.21-49.08-39.71-73.06Z"/>
    <path class="cls-1" d="m372.2,373.42s44.77,21.62,65.01-16.62c5.99-11.31,17.25-53.63,2.5-75.6-12.93-19.26-55.99-71.23-65.46-83.99-9.47-12.76-30.47-48.58-25.53-78.63,4.94-30.05,14.82-66.52,4.94-71.14-9.88-4.62-27.64-7.15-38.7-3.38"/>
    <path class="cls-1" d="m336.69,324.38s41.2,20.31,54.08,6.29,18.55-34.99,2-62.62"/>
    <path class="cls-1" d="m384.83,393.04s50.9,29.91,72.94-12.59c22.04-42.5,4.28-82.39,2.4-88.68"/>
    <path class="cls-1" d="m80.59,208.15s-17.74-22.27,0-26.18,43.27-2.48,64.91-10.46c12.03-4.03,35.49-20.23,44.35-28.23,8.86-8,26.82-32.99,30.72-37.87,3.9-4.88,8-9.37,10.93-10.35"/>
    <path class="cls-1" d="m362.45,349.29s32.09,14.96,44-4.16c11.91-19.11,18.28-47.96,7.01-65.14-11.27-17.17-20.97-28.53-20.97-28.53"/>
    <path class="cls-1" d="m302.52,163.68s-2.37,15.99,6.81,34.76c9.19,18.77,19.61,27.73,27.35,35.16,7.75,7.43,27.18,22.42,30.99,34.45s4.38,23.28-3.81,29.56c-8.19,6.29-21.34,11.05-31.24,8"/>
    <path class="cls-1" d="m314.96,238.73s21.02,12.08,18.6,24.48c-2.41,12.41-17.84,16.2-31.32,8.96"/>
    <path class="cls-1" d="m166.98,228.17s-14.64-12.09-1.91-22.7c12.73-10.61,33.73-22.06,42.21-28.64,8.48-6.58,23.76-21.18,25.88-25.23"/>
    <path class="cls-1" d="m88.85,232.95s-28.47-21.14-13.84-30.81c14.62-9.67,25.59-12.54,25.59-12.54"/>
    <path class="cls-1" d="m112.99,186.52s-22.83,2.32-17.06,16.89c5.78,14.58,21.98,27.23,31.62,33.28,9.64,6.05,39.9,26.12,49.8,31.35,13.78,7.11,45.82,23.45,60.23,26.98,14.42,3.52,26.27,4.86,26.27,4.86"/>
    <path class="cls-1" d="m69.41,174.16s-24.73-1.56-18.16,12.36,23.95,34.78,38.63,45.6,61.82,41.36,83.45,53.71c21.64,12.35,43.66,26.72,64.52,29.97s35.54,4.79,35.54,4.79"/>
    <path class="cls-1" d="m321,291.76s22.25,1.51,28.12-5.94c5.87-7.45,6.36-16.98,2.93-23.83"/>
    <path class="cls-1" d="m379.26,264.44s11.71,21.41,5.56,37.38c-6.14,15.98-20.64,20.22-28.1,18.76"/>
    <path class="cls-1" d="m171.46,186.52s-29.44,8.09-30.44,22.34c-1.01,14.24,3.13,14.76,9.16,19.32"/>
    <path class="cls-1" d="m192.84,235.12s-20.15-10.63-11.01-22.67c9.14-12.04,20.15-19.32,26.12-23.8,5.97-4.48,16.42-11.57,16.42-11.57"/>
    <path class="cls-1" d="m300.81,85.24s15.73-5.12,22.33,5.89c6.6,11.01,5.83,22.31,3.01,32.52-2.82,10.22-11.26,26.34-5.89,44,5.37,17.66,14.84,37.82,22.78,45.27s17.66,16.94,17.66,16.94"/>
    <path class="cls-1" d="m384.83,382.17s26.88,10.49,41.94,0c15.06-10.49,25.81-34.3,26.06-50.68.26-16.38-1.79-33.78-1.79-33.78"/>
  </g>
</svg>