<?xml version="1.0" encoding="UTF-8"?>
<svg id="_レイヤー_2" data-name="レイヤー 2" xmlns="http://www.w3.org/2000/svg" viewBox="0 0 350.42 410.97">
  <defs>
    <style>
      .cls-1 {
        stroke-dasharray: 0 0 .3 5.03;
      }

      .cls-1, .cls-2, .cls-3, .cls-4, .cls-5, .cls-6, .cls-7, .cls-8, .cls-9, .cls-10, .cls-11, .cls-12, .cls-13, .cls-14, .cls-15, .cls-16, .cls-17, .cls-18, .cls-19 {
        fill: none;
        stroke: blue;
        stroke-linecap: round;
        stroke-linejoin: round;
        stroke-width: 3px;
      }

      .cls-2 {
        stroke-dasharray: 0 0 .3 5.02;
      }

      .cls-3 {
        stroke-dasharray: 0 0 .3 5.03;
      }

      .cls-4 {
        stroke-dasharray: 0 0 .29 4.82;
      }

      .cls-5 {
        stroke-dasharray: 0 0 .3 5;
      }

      .cls-6 {
        stroke-dasharray: 0 0 .33 5.52;
      }

      .cls-7 {
        stroke-dasharray: 0 0 .35 5.9;
      }

      .cls-8 {
        stroke-dasharray: 0 0 .3 5.01;
      }

      .cls-9 {
        stroke-dasharray: 0 0 .3 5;
      }

      .cls-10 {
        stroke-dasharray: 0 0 .3 4.99;
      }

      .cls-11 {
        stroke-dasharray: 0 0 .35 5.78;
      }

      .cls-12 {
        stroke-dasharray: 0 0 .3 5.01;
      }

      .cls-13 {
        stroke-dasharray: 0 0 .32 5.25;
      }

      .cls-14 {
        stroke-dasharray: 0 0 .3 5;
      }

      .cls-15 {
        stroke-dasharray: 0 0 .3 4.92;
      }

      .cls-16 {
        stroke-dasharray: 0 0 .3 4.99;
      }

      .cls-17 {
        stroke-dasharray: 0 0 .3 5;
      }

      .cls-18 {
        stroke-dasharray: 0 0 .3 5;
      }
    </style>
  </defs>
  <g id="_レイヤー_4" data-name="レイヤー 4">
    <g>
      <path class="cls-9" d="m97.22,302.39s24.19,34.42,33.12,43.65,19.53,29.66,30.12,17.14,15.84-28.47,22.75-46.94c6.91-18.47,13.27-27.7,13.27-27.7"/>
      <g>
        <polyline class="cls-19" points="173.32 223.15 173.46 223.1 173.5 222.96"/>
        <polyline class="cls-4" points="174.69 218.29 176.2 212.38 181.23 207.75 184.02 206.27 190.35 200.84 192.52 195.13 195.43 185.97 194.84 183.53 185.84 174.3 184.22 171.44"/>
        <polyline class="cls-19" points="183.03 169.35 182.96 169.22 182.81 169.21"/>
        <line class="cls-7" x1="176.91" y1="169.08" x2="173.6" y2="169.01"/>
        <polyline class="cls-19" points="170.65 168.94 170.5 168.94 170.44 169.08"/>
        <polyline class="cls-15" points="168.3 173.51 167.64 174.88 164.16 183.61 160.35 192.34 157.32 201.06 155.3 209.55 156.53 217.54 159.31 223.29 160.86 224.65"/>
        <polyline class="cls-19" points="162.72 226.26 162.83 226.36 162.98 226.32"/>
        <line class="cls-13" x1="168" y1="224.78" x2="170.81" y2="223.92"/>
      </g>
      <g>
        <polyline class="cls-19" points="153.51 246.95 153.64 247.02 153.77 246.94"/>
        <path class="cls-3" d="m157.95,244.15l20.17-13.45s10.95-11.91,14.51-19.11c3.56-7.19,6.65-15.65,10.65-20.35,4-4.7,8.63-11.45,6.32-15.85-2.31-4.4-10.46-13.95-10.46-13.95l-12.45-7.34-13.29,1.57-10.97,11.45-9.34,12.04-6.13,7.68s-6.82,16.74-9.93,21.14c-3.11,4.4-3.26,6.02-1.19,13.21,2.07,7.19,4,12.33,5.04,13.51,1.04,1.17,7.41,9.4,7.41,9.4l3,1.65"/>
      </g>
      <g>
        <path class="cls-19" d="m134.84,293.1c.05.08.08.12.08.12l.15.02"/>
        <line class="cls-11" x1="140.82" y1="293.88" x2="150.13" y2="294.92"/>
        <path class="cls-19" d="m153,295.25l.15.02s.03-.04.08-.12"/>
        <path class="cls-1" d="m156.16,291.06c6.21-8.58,20.86-28.48,33.1-42.41,16-18.2,23.29-37.35,39.76-52.02,16.48-14.67,13.31-53.59,3.8-60.97-9.51-7.38-22.34-8.32-35.8-7.53s-26.77,1.26-34.22,9.73c-7.45,8.47-30.54,23.02-30.54,23.02-1.11.47-9.87,3.03-11.29,2.09-1.42-.94-.79,2.2-6.96,10.51-6.18,8.32-18.06,11.61-10.61,48.65,6.33,31.47,24.66,60.78,30.03,68.88"/>
      </g>
      <g>
        <path class="cls-19" d="m134.63,308.34c.06.08.09.12.09.12l.14-.04"/>
        <path class="cls-2" d="m139.66,306.95l17.81-5.46s24.73-40.26,44.65-61.26c19.92-21,48.75-48.92,50.23-66.35,1.48-17.43,9.96-35.27-5.72-44.09-15.68-8.82-22.26-16.59-37.52-12.39-15.26,4.2-19.29,0-29.25,4.2-9.96,4.2-22.03,12.39-32.42,22.05-10.39,9.66-11.45,7.35-21.63,7.24-10.17-.1-18.85.73-24.79,15.85-5.94,15.12-17.81,39.05-9.33,56.69,8.48,17.64,14.84,41.99,20.98,52.49,4.98,8.5,16.36,24.59,20.5,30.39"/>
      </g>
      <path class="cls-12" d="m216.36,188.2s11.1-16.52,8.43-24.23c-2.67-7.71-3.45-18.06-17.52-20.93-14.06-2.86-12.73-8.15-26.3-3.3s-29.36,20.05-39.59,34.37c-10.23,14.32-18.24,15.29-21.57,30.23-3.34,14.93,2.04,42.91,8.58,52.38,6.54,9.47,11.66,20.27,27.22,6.61,15.57-13.66,24.02-16.96,33.8-28.42,9.79-11.46,26.93-46.7,26.93-46.7Z"/>
      <path class="cls-18" d="m131.86,337.5c6.28,8.83,11.62,19.17,23.59,13.88,11.97-5.3,12.48-21.24,23.94-42.91,11.46-21.67,24.96-47.66,45.33-66.58s53.48-54.49,59.09-75.69c5.6-21.19,7.9-66.35-3.57-80.73-11.46-14.38-18.08-20.94-42.02-7.06-23.94,13.88-20.88,1.51-39.73,10.34-18.85,8.83-19.15,12.5-36.72,20.32-17.57,7.82-21.99,2.43-45.93,13.28-23.94,10.85-41.39,29.22-48.26,48.15s-3.31,17.16,3.82,48.69c7.13,31.54.78,42.38,17.33,63.32s43.12,55,43.12,55Z"/>
      <path class="cls-5" d="m137.54,323.7c9.19,7.55,17.03,12.65,25.76-5.1,8.74-17.75,25.09-51.04,42.57-70.57,17.47-19.53,49.06-52.82,57.13-69.91,8.07-17.09,12.99-46.6,5.15-59.7-7.84-13.09-7.84-25.3-25.76-24.41-17.92.89-12.55,2.89-31.81,6.88-19.27,3.99-19.27.22-28.9,10.43-9.63,10.21-2.91,10.43-22.18,13.98-19.27,3.55-14.56-3.21-33.16,9.6s-28.38,6.6-37.6,27.9c-9.22,21.3-12.13,29.89-8.77,48.79,3.36,18.9,4.93,38.43,12.32,50.64,7.39,12.21,45.26,61.47,45.26,61.47Z"/>
      <g>
        <path class="cls-19" d="m97.22,320.46s.03.04.08.12"/>
        <path class="cls-16" d="m99.92,324.83c4.28,7,12.93,21.36,20.44,35.34,10.47,19.5,10.47,10.71,18.63,23.51,9.78,3.74,18.05,5.39,27.32,2.42,9.27-2.98,26.04-16.88,26.04-16.88,13.37-18.8,0-15.32,1.98-35.08-.92-23.4,4.48-18.08,10.15-38.88,5.68-20.8,13.26-19.1,27.72-36.84s11.02-12.62,34.78-34.11c23.76-21.49,11.02-15.35,27.2-41.27,16.18-25.92,9.99-18.42,19.28-46.04,9.3-27.63,8.95-24.22,11.02-51.5,2.07-27.29,2.75-36.49,2.75-36.49-3.56-33.86-68.27-13.01-87.89-1.11-19.61,11.9-40.45,8.99-57.8,5.37-19.98-4.59-31.27-8.03-44.88,8.6-13.61,16.63-26.93,18.36-41.69,24.67-14.77,6.31-23.45,7.46-24.61,26.1-1.16,18.64-21.14,36.42-27.22,59.66-6.08,23.23,14.48,26.96,11,52.77-3.47,25.81,8.4,39.58,20.27,60.8,11.87,21.22,22.12,51.17,35.15,72.1,7.26,12.47,15.71,21.47,22.28,26.3"/>
        <path class="cls-19" d="m133.9,385.69s.08.05.12.08"/>
      </g>
      <path class="cls-8" d="m180.32,347.67c7.07-26.91,16.6-58.73,32.52-80.38,15.92-21.65,43.14-44.93,54.68-57.59,11.54-12.66,28.86-64.53,35.46-84.14,6.6-19.6,12.37-32.67-4.95-48.19-17.32-15.52-25.15-32.27-45.77-20.83s-30.92,16.75-51.54,20.01c-20.62,3.27-34.22-18.79-50.71.41-16.49,19.2-7.42,28.18-31.75,37.17-24.33,8.99-42.88,14.29-49.89,34.31-7.01,20.01-15.67,18.79-9.07,55.34,6.6,36.55,18.55,80.52,35.46,104.69,12.63,19.06,28.19,52.82,42.42,60.76,14.23,7.94,34.38,11.81,43.14-21.56Z"/>
      <g>
        <path class="cls-19" d="m5.6,163.2c0-.1.01-.14.01-.14,0,0-.04-.03-.12-.09"/>
        <path class="cls-6" d="m1.95,158.79c-.57-1.3-.71-2.76.25-4.18,1.05-1.56,2.05-2.71,2.88-3.55"/>
        <path class="cls-19" d="m7.19,149.29c.08-.05.12-.08.12-.08,0,0-.01-.05-.01-.15"/>
        <path class="cls-14" d="m9.42,144.61c2.02-2.77,5.95-6.95,13.56-12.95,16.7-13.16,17.72-28.35,28.96-40.17,11.24-11.81,2.04-22.28,23.85-38.14,21.81-15.86,34.08-10.46,41.57-18.9,7.5-8.44,11.59-24.98,31.69-19.58,20.1,5.4,39.26,13.5,55.41,9.11,16.15-4.39,30.12-3.71,45.8-14.18,25.52-8.49,92.86-22.28,98.66,28.92-1.07,19.83-10.11,56.03-11.42,67.92-3.5,31.72-7.5,47.97-21.13,72.61-13.63,24.64-23.85,39.49-36.46,53.33-12.61,13.84-35.78,29.9-42.94,48.03-7.16,18.13-9.35,16.56-6.82,38.05,12.87,109.2-114.44,101.75-134.59,70.89-13.34-24.83-14.67-46.35-31.67-74.52-17-28.17-40.57-41.88-41.32-63.01-.75-21.13,1.61-29.19-5.38-36.31,0,0-10.56-5.4-11.59-22.62-.75-12.56-.4-22.79-.16-27.4"/>
      </g>
      <g>
        <path class="cls-19" d="m225.44,273.75s-.05.08-.08.13"/>
        <path class="cls-10" d="m222.93,278.23c-9.79,19.79-12.06,53.32-12.06,67.1,0,14.89-6.95,26.15-16.16,35.16-9.21,9.01-32.82,12.5-54.06,12.83-21.23.33-29.4-16.22-41.39-34.65-9.89-29.25-43.54-70.57-54.32-86.36-10.78-15.79-6.09-29.72-13.12-48.29-6.06-16.01-13.17-54.85-15.01-65.25"/>
        <path class="cls-19" d="m16.38,156.31c-.02-.09-.02-.14-.02-.14,0,0,.04-.03.12-.09"/>
        <path class="cls-17" d="m20.38,152.97c4.59-3.72,12.97-10.75,24.56-21.35,18.28-16.72,25.31-46.9,44.06-65.93,18.75-19.04,37.5-21.36,48.75-29.72s15.47-2.79,41.72,2.79c26.25,5.57,46.4-.93,77.81-14.39,23.45-5.85,30.1-8.37,45-7.91s52.55-2.32,36.56,54.22c-5.16,16.6-15.94,63.26-31.12,99.48-15.18,36.22-35.08,57.9-60.39,82.51-25.31,24.61-31.37,69.09-29.46,91.01,2.85,32.62-23.21,47.33-43.67,53.09s-38.12,6.15-52.68,2.84c-14.56-3.31-18.86-16.88-29.87-39.29-6.12-16.2-27.56-57.97-36.46-66.97s-21.87-18-25.11-41.4c-3.24-23.4-8.38-49.33-13.73-60.49-5.35-11.16-13.73-33.12,0-47.53s27.05-20.16,34.25-36.72c9.47-15.55,12.31-34.66,26.25-44.98,13.94-10.33,28.08-15.49,38.43-20.91,10.36-5.42,9.58-21.94,28.17-18.84,18.59,3.1,36.2,13.94,53.59,11.36,17.39-2.58,38.82-8.78,55.34-15.49,17.37-6.06,29.84-8.23,45.67-8.51,14.63-.26,24.46-.91,33.07,5.19"/>
        <path class="cls-19" d="m333.11,16.57s.07.06.11.1"/>
      </g>
      <path class="cls-9" d="m198.81,149.82s-13.31-10.47-32.98,7.31c-19.67,17.78-32.22,29.86-35.66,43.43-3.44,13.57-4.67,38.9,4.3,47.92,8.98,9.01,12.67,12.67,23.49,4.14,10.82-8.53,27.05-18.27,31.72-25.09,4.67-6.82,25.58-41.17,26.31-48.96.74-7.8-12.23-26.46-17.18-28.74Z"/>
      <path class="cls-9" d="m135.47,278.86c13.06,4.77,20.94,2.28,28.01-9.08,7.07-11.35,26.44-29.76,29.58-32.87,3.14-3.11,18.99-25.57,22.97-33.14s22.15-32.2,15.94-45.94c-6.2-13.74.6-24.11-25.05-23.08s-33.5-1.81-40.83,5.96c-7.33,7.78-11.52,9.78-21.47,19.43s-6.97,2.09-18.93,12.72c-11.95,10.63-17.45,12.31-15.88,29.23s9.16,70.74,25.65,76.76Z"/>
      <path class="cls-9" d="m216.03,244.2s30.1-29.02,39.94-43.64c9.84-14.62,24.18-33.24,24.77-53.8.6-20.57,7.76-46.6-3.88-56.06-11.65-9.46-9.26-21-25.08-10.94-15.83,10.06-17.32,7.1-32.85,10.94-15.53,3.85-20.3,4.44-25.38,7.39s-8.36,4.14-16.12,11.54c-7.76,7.39-9.85,9.46-17.02,10.35-7.17.89-20.6-4.44-35.83,5.92-15.23,10.35-31.65,15.08-37.92,25.14-6.27,10.06-13.74,15.97-14.33,30.47s4.82,36.38,6.29,49.1c3.9,20.69,10.43,35.79,22.41,53.48,6.76,13.38,28.63,48.33,37.95,52.65,9.32,4.32,18.9,6.04,23.7-3.02s14.93-35.09,20.54-45.17,32.82-44.34,32.82-44.34Z"/>
      <path class="cls-9" d="m138.98,313.42s5.86,9.93,14.12,3.02,19.15-25.46,22.86-32.37"/>
      <path class="cls-9" d="m190.01,166.63s-4.75-8.09-13.84-3.82c-9.09,4.27-14.26,4.27-21.9,28.54-7.64,24.27-11.46,26.88-6.29,35.01s2.47,11.66,10.56,9c8.09-2.66,20.34-10.27,24.67-17.14,4.32-6.87,15.79-25.07,17.13-31.82s-10.34-19.78-10.34-19.78Z"/>
      <path class="cls-9" d="m184.62,116.23s32.57-13.4,52.25-6.84c19.67,6.56,14.1,1.64,20.66,14.43,6.56,12.79,5.25,29.92,4.26,37.75s-5.81,15.04-5.81,15.04"/>
      <path class="cls-9" d="m149.4,132.04s-.28,3.96-14.93,8.84c-14.65,4.88-25.62,6.61-32.02,13.21s-12.19,17.27-15.24,30.08c-3.05,12.8-5.49,23.58-2.74,34.05,2.74,10.46,6.1,24.49,9.45,32.41s12.19,23.17,12.19,23.17"/>
      <path class="cls-9" d="m244.72,88.41s15.08-4.26,23.28,9.18c8.2,13.44,9.18,17.05,9.51,25.57.33,8.52-1.97,26.89-1.97,26.89"/>
      <path class="cls-9" d="m139.8,107.58s13.12-2.12,28.2-10.32c15.08-8.2,20.98-15.41,32.46-16.07s23.95-2.95,32.8-7.21c8.84-4.26,20.98-14.75,32.45-10.82,11.48,3.93,24.92,15.77,27.87,24.6s5.25,20.88,4.26,28.46-6.56,27.92-6.56,27.92"/>
      <path class="cls-9" d="m78.62,308.46s-25.51-29.95-30.74-61.44c-5.23-31.5-4.19-35.68-11.52-56.1s-1.57-32.74,11.52-48.83c13.09-16.09,16.02-23.19,16.02-23.19"/>
      <path class="cls-9" d="m83.27,84.74s10.61-15.58,29.65-25.09,20.06-11.25,29.5-15.58c9.44-4.33,10.3-5.19,23.72-2.6,13.41,2.6,32.73,14.28,49.89,8.22,17.17-6.06,37.99-13.41,45.1-17.31,7.11-3.89,30.31-9.52,48.35-9.52,16.41.92,28.8,10.5,24.09,44.56l-3.89,22.45"/>
      <path class="cls-9" d="m274.2,210.08s20.38-38.67,27.17-55.99c6.79-17.31,19.31-47.9,17.16-60.14s-6.61-19.75-20.47-30.12c-13.86-10.37-14.93-27.17-32.45-20.02-17.52,7.15-20.74,10.37-35.04,15.73-14.3,5.36-30.12,8.22-30.12,8.22,0,0-21.39-5.24-29.6-5.48s-17.51-3.61-27.16,8.44-11.44,20.99-17.88,28.5-15.24,8.58-24.78,12.87c-9.54,4.29-27.42,13.98-27.42,13.98,0,0-16.71,21.39-18.85,38.55-2.15,17.16-4.75,28.81-2.6,33.01,2.15,4.21,7.15,22.8,8.22,35.31s9.3,36.82,9.3,36.82l5.72,9.08"/>
      <path class="cls-9" d="m280.63,38.72s14.31,10.22,24.52,21.46c10.22,11.24,13.63,21.12,13.63,21.12"/>
      <path class="cls-9" d="m289.96,37.52s22.66,10.3,28.82,27.29c1.23,3.9,2.6,15.37,2.6,15.37"/>
      <path class="cls-9" d="m299.7,36.68s12.14-4.71,19.08,13.83c1.23,3.06,2.6,9.5,2.6,9.5"/>
      <path class="cls-9" d="m74.89,121.46s-1.99-20.55,13.85-25.12c15.84-4.57,26.24-7.86,33.34-12.43,7.1-4.57,14.97-16.33,21.31-21.61s12.69-5.03,24.1-5.53c11.42-.51,28.92,7.01,35.52,5.53s15.92-2.84,15.92-2.84"/>
      <path class="cls-9" d="m81.34,116.23s1.05-8.99,15.76-13.01,34.66-20.29,34.66-20.29"/>
      <path class="cls-9" d="m92.68,81.43c-.19-.56,13.35-10.66,26.12-17.02,12.78-6.36,16.69-11.41,23.62-14.59,6.92-3.18,11.64-5.61,19.85-4.49s13.1,2.24,13.1,2.24"/>
      <path class="cls-9" d="m183.21,124.87s16.81-2.64,29.53-1.68,29.76,7.2,33.6,16.56c3.84,9.36,2.88,13.44,1.68,24.72s-10.08,29.04-10.08,29.04l-12.74,14.54"/>
      <path class="cls-9" d="m192.34,109.03s24.7-6.33,40.91-5.8,16.26.04,22.72,7.73c6.46,7.68,8.62,10.4,9.82,16.96,1.2,6.56,1.2,17.6,1.2,17.6"/>
      <path class="cls-9" d="m205.78,113.83c0-.72,22.56-2.39,32.64,2.4,10.08,4.8,16.56,13.2,16.56,13.2"/>
      <line class="cls-9" x1="228.19" y1="269.78" x2="246.06" y2="250.08"/>
      <path class="cls-9" d="m220.58,276.56c-.99.33-7.66,7.61-11.77,28.13-4.11,20.52-1.6,22.14-3.02,35.56-1.42,13.42.69,22.36-5.33,28.98"/>
      <path class="cls-9" d="m137.49,374.69s19.26,12,31.17,3.64c11.91-8.36,18.5-12.67,19.01-23.82.51-11.15,1.77-25.09,1.77-25.09"/>
      <path class="cls-9" d="m139.8,102.5s7.13-19.34,19.07-22.32,18.18-1.96,23.25-.75,6.89.75,6.89.75"/>
      <path class="cls-9" d="m146.87,100.28s11.18-9.44,19.48-12.51,14.16-4.84,14.16-4.84"/>
    </g>
  </g>
</svg>