<?xml version="1.0" encoding="UTF-8"?>
<svg id="_レイヤー_2" data-name="レイヤー 2" xmlns="http://www.w3.org/2000/svg" viewBox="0 0 344.97 395.43">
  <defs>
    <style>
      .cls-1 {
        fill: none;
        stroke: blue;
        stroke-dasharray: 0 0 .3 5;
        stroke-linecap: round;
        stroke-linejoin: round;
        stroke-width: 3px;
      }
    </style>
  </defs>
  <g id="_レイヤー_4" data-name="レイヤー 4">
    <g>
      <path class="cls-1" d="m220.68,56.13c19.22,2.28,32.25,7.15,52.54,11.73,20.29,4.58,21.6,14.73,30.11,26.84s28.47,21.27,35.35,34.37,5.89,45.82,0,69.71c-5.89,23.89-13.57,49.7-17.35,62.51-6.87,23.32.98,49.75-24.22,66.77s-19.64,37.97-38.62,41.89c-18.98,3.93-11.46,10.15-26.18,20.62-14.73,10.47-36-6.22-44.18-14.07s-17.35-9.16-45.49-4.25-46.05-10.11-50.96-25.82c-4.91-15.71-17.67-26.84-38.29-49.09s-21.04-46.51-23.33-66.81c-2.29-20.29-10.15-20.29-17.67-26.51s7.62-23.87-5.1-50.12c-9.8-20.22-6.23-49.81,4.24-75.67,10.47-25.86,15.59-47.34,18.87-57.82S26.11-.22,33.64,1.75s11.13,6.22,24.55,2.95,35.35,4.91,55.64,16.04,47.53,17.09,64.87,26.58c9.98,2.99,30.81,7.49,41.98,8.81Z"/>
      <path class="cls-1" d="m34.42,23.71c5.91-2.51,11.65-3.4,22.09-7.15,1.8-.65,3.66-1.17,5.54-1.52,9.31-1.7,21.25.48,33.2,4.31,6.29,1.99,12.62,4.67,18.86,7.76.87.43,1.74.86,2.62,1.29,6.77,3.34,14.13,6.43,21.79,9.15,15.56,5.5,30.74,9.08,42.36,15.49,9.95,4.77,17.66,5.83,23.44,7.36,3.91,1.03,7.84,1.79,16.86,2.74.49.05.98.11,1.46.17.34.04.69.08,1.03.13,18.43,2.34,32.39,9.85,50.94,15.05,17.23,4.83,19.02,13.48,26.68,24.26,7.69,10.83,24.92,19.27,31.19,31,6.5,12.17,6.18,40.74,1.45,61.96-4.92,22.21-12.19,47.3-16.55,61.52-2,6.54-2.98,13.3-3.91,20-2.46,17.16-3.25,34.16-17.39,46.3-12.71,10.94-18.81,19.76-26.22,30.15-3.43,4.8-7.09,8.56-13.5,10.23-17.53,4.59-12.71,10.27-27.27,18.77-1.65.96-3.4,1.62-5.2,2.02-15.55,3.42-32.03-9.38-39.97-14.83-7.66-5.25-14.73-6.03-32.67-5.87-3.13.03-6.6.22-10.45.44-25.12,1.48-41.73-12.08-48.57-26.66-6.66-14.31-19.21-26.57-36.96-48.32-5.43-6.69-9.15-13.5-11.8-20.16-6.16-15.4-8.01-30.51-10.05-44.5-2.64-18.49-9.61-20.17-16.4-26.74-6.23-6.03,5.26-21.02-3.97-43.13-.61-1.48-1.21-3-1.8-4.56-6.36-16.89-3.95-39.63,3.33-60.39,1.43-4.06,2.85-8.04,4.24-11.89,5.68-15.69,9.23-28.99,11.8-37.63,2.49-8.24-.58-15.85,3.77-16.77Z"/>
      <path class="cls-1" d="m60.3,26.1c9.66-3.27,22.23-1.98,34.35.67,7.55,1.65,15.03,4.48,22.48,7.97,6.91,3.26,14.36,6.52,22.31,9.24,16.32,5.53,31.49,8.05,43.63,14.79,14.24,7.85,20.47,7.76,23.09,9.02,1.72.82,3.58,1.37,16.99,2.55.81.07,1.64.18,2.51.29,18.2,2.34,33.23,12.49,50.36,18.5,14.2,4.98,16.45,12.23,23.25,21.69,6.87,9.55,21.37,17.27,27.03,27.64,6.13,11.25,6.46,35.65,2.9,54.22-3.94,20.53-10.8,44.89-15.75,60.52-2,6.32-3.21,12.83-4.39,19.24-3.26,17.23-3.6,34.4-14,46.59-9.48,11.12-17.92,16.53-27.55,28.61-3.7,4.64-7.43,8.36-13.26,10.26-16.07,5.25-13.95,10.39-28.36,16.91-1.69.77-3.49,1.27-5.35,1.53-16.94,2.37-32.22-9.16-40.81-13.08-8.35-3.81-14.82-3.42-31.18-5.72-2.86-.4-6.04-.6-9.56-.89-22.09-1.84-37.42-14.06-46.18-27.5-8.41-12.91-20.75-26.3-35.62-47.54-4.74-6.77-7.84-13.62-10.01-20.13-4.89-14.68-7.9-28.66-10.36-42.38-3-16.68-9.12-19.99-15.13-26.96-5.33-6.19,4.05-19.93-4.25-39.97-6.85-16.52-4.11-39.8,3.46-60.38,7.31-19.89,11.37-36.78,14.28-46.13,5.35-8.69,16.01-16.49,25.11-19.57Z"/>
    </g>
    <path class="cls-1" d="m42.96,59.46c-3.17,1.02-1.27,6.17-2.93,11.49-2.55,8.22-5.5,20.53-9.7,34.44-4.62,15.32-6.48,32.18-2.68,45.09,4.05,13.72.11,23.86,3.39,29.82,4.36,7.92,9.13,14.32,12.59,27.41,3.48,13.19,7.27,26.68,9.04,40.84.83,6.62,2.57,13.71,5.83,20.68,9.35,19.98,21.21,35.81,32.94,45.98,12.81,11.11,29.45,25.81,45.39,30.75,2.97.92,5.54,2.26,7.9,3.54,13.09,7.08,18.34,4.55,28.09,5.42,9.86.88,22.77,10.18,42.54,9.55,1.95-.06,3.81-.17,5.59-.53,13.93-2.76,15.09-4.5,28.26-11.01,4.93-2.44,8.86-6.22,13.11-10.86,14.05-15.34,31.66-22.07,34.31-33.51,2.77-11.96-5.69-29.1-.87-46.29,1.69-6.03,3.38-12.18,5.41-18.25,6.18-18.43,16.69-40.21,18.55-57.44,1.42-13.18-6.38-28.05-11.79-37.44-4.41-7.66-12.47-12.61-17.7-19.6-5.1-6.82-8.87-13.91-17.07-18.53-14.11-7.95-24.59-24.8-41.69-28.1-.87-.17-1.72-.32-2.56-.41-9.97-1.11-13.69-2.31-17.12-3.95-5.25-2.51-11.82-4.97-22.95-11.17-12.7-7.13-27.66-6.14-45.31-10.56-8.47-2.14-16-5.23-23.09-8.05-7.78-3.07-15.33-5.36-23.4-5.68-11.02-.44-24.07-.29-34.61,4.43-9.12,4.08-14.54,6.44-19.47,11.95Z"/>
    <path class="cls-1" d="m291.27,254.26c10.24-26.2,19.88-56.02,18.97-73.79-.9-17.77-18.37-36.44-28.61-48.79s-30.42-34.63-46.98-37.04c-16.56-2.41-26.8-11.14-40.06-18.67-13.25-7.53-28.01-3.01-46.98-6.32-18.97-3.31-31.92-12.65-48.19-10.24-16.26,2.41-42.47,5.12-51.8,28.91s-12.65,59.33-7.23,80.11,19.88,43.07,17.77,67.16c-2.11,24.09,11.14,55.11,31.92,65.66s37.95,18.67,47.89,30.42c9.94,11.75,13.85,7.23,25,5.12,11.14-2.11,21.68,3.61,44.27,6.02,22.59,2.41,32.83-2.11,51.5-20.48,18.67-18.37,36.74-9.64,32.23-21.38s-6.08-29.54.3-46.68Z"/>
    <path class="cls-1" d="m58.82,94.99c-8.49,21.42-16.39,52.21-11.01,75.53s15.27,42.64,17.22,67.85c1.95,25.21,18.24,54.54,38.17,63.01,16.77,7.13,27.15,11.69,37.32,19.37,2.85,2.16,5.33,4.07,7.41,6.01,8.6,8.04,12.32,4.33,23.34,2.29,10.77-1.99,20.17,3.33,37.8,5.13,6.99.71,12.82.45,18.38-1.41,8.94-2.97,16.13-8.09,25.35-17.2,13.92-13.73,27.78-9.88,26.09-20.66-1.53-9.78-1.93-24.01,3.23-37.9,8.89-23.09,15.58-48.78,16.11-60.63.61-13.66.52-24.95-6.41-36.03-7.2-11.48-14.43-22.45-25.26-31.46-14.16-11.77-28.9-25.76-43.56-30.06-1.81-.53-3.61-1.05-5.31-1.84-13.19-6.14-14.81-11.85-27.61-17.45-12.71-5.54-17.69-3.22-35.27-2.92-2.39.04-4.81-.09-7.26-.25-17.54-1.12-28.99-1.14-43.29.84-3.24.45-6.8.86-10.55,1.21-15.33,1.45-27.72-1.45-34.87,16.56Z"/>
    <path class="cls-1" d="m64.61,99.75c-7.65,19.04-14.71,47-9.38,72.85,5.33,25.86,10.66,42.2,16.67,68.54,6,26.34,25.4,53.85,44.41,60.37,17.4,5.97,24.13,8.42,34.38,15.67,2.83,2,5.18,3.42,7.19,4.69,7.06,4.47,10.78,1.43,21.68-.53,10.4-1.87,18.66,3.05,31.33,4.24,5.32.5,10.13.06,15.07-2.15,7.9-3.53,13.97-7.71,20.9-14.6,9.17-9.08,18.5-9.91,19.95-19.94,1.11-7.64,2.23-18.48,6.17-29.13,7.53-19.98,12.73-41.57,13.24-47.48,1.65-18.91,5.78-32.54-2.62-46.53-8.53-14.19-15.39-28.43-32.11-39.66-17.52-11.77-27.39-16.63-40.14-23.07-1.4-.7-2.85-1.41-4.24-2.38-13.27-9.3-7.4-12.85-21.55-17.52-14.1-4.65-11.62-2.69-31.6-.52-2.19.24-4.35.36-6.48.51-16.12,1.18-26.66,1.5-39,3.07-2.97.37-6.15.62-9.51.62-15.53.01-27.38-4.39-34.36,12.95Z"/>
    <path class="cls-1" d="m274.21,228.19c6.57-23.47,11.03-40.13,1.17-57.02-9.86-16.9-16.19-34.73-38.95-47.87-22.76-13.14-26.99-6.1-39.89-19.01-12.91-12.91,0-13.85-15.49-17.6s-5.63-2.58-27.92,1.88-32.85,12.67-48.57,11.03-24.64-10.79-31.45,5.87-15.74,40.83-10.45,69.23c5.29,28.39,6.06,41.77,16.12,69.23,10.06,27.46,32.59,53.03,50.65,57.73,18.07,4.69,21.12,5.16,31.44,11.97,10.33,6.81,12.2,2.58,26.99,0,14.78-2.58,23.23,8.45,36.61.47,13.38-7.98,19.48-12.67,30.27-31.21,10.79-18.54,19.48-54.68,19.48-54.68Z"/>
    <path class="cls-1" d="m79.66,116.14c-5.39,7.18-8.22,11.84-9.41,24.86-1.41,15.44-2.41,28.11.97,47.38,4,22.79,5.02,35.4,12.78,56.96,7.93,22.09,25.05,42.33,41.36,47.59,16.03,5.12,21.41,7.24,31.47,13.1,10.03,5.84,14.26,3.88,27.4,2.16,12.65-1.66,20.46,5.48,31.47.05,11.65-5.74,16.65-10.62,28.25-22.61,6.88-7.11,12.64-20.31,16.36-33.34,5.63-19.71,10.08-34.41,6.77-40.66,2.86-18.52,4.34-31.74-3.86-44.82s-14.86-26.87-32.13-38.19c-18.66-12.24-23.43-7.95-34.99-17.4-.72-.59-1.43-1.21-2.13-1.87-11.67-10.98-1.03-12.72-15.26-16.46-14.39-3.79-4.82-3.19-25.43,2.37-.55.15-1.1.29-1.65.45-17.53,5.1-17.89,7.79-34.48,11.23-2.72.57-5.43.7-8.17.8-17,.6-20.11-3.89-29.33,8.39Z"/>
    <path class="cls-1" d="m86.21,126.81c-8.53,7.1-10.55,8.34-10.33,25,.24,17.85.26,28.18,3.9,50.26,2.83,17.17,3.99,29.02,9.45,44.7,5.8,16.72,17.51,31.63,32.06,37.45,14,5.55,21.7,9.33,31.49,14.23,9.73,4.87,16.32,5.14,27.82,4.31,10.51-.76,17.75,2.58,26.33-.36,9.98-3.43,15.92-7.21,26.24-14,10.54-6.94,17.58-24.31,21.85-41.36,6.16-24.24,11.54-39.47,4.93-51.97-.85-13.56-2.37-23.33-8.9-32.62-7.02-9.98-13.39-19.25-25.3-28.51-15.81-12.29-20.42-9.05-32.27-17.85-.74-.55-1.43-1.1-2.09-1.67-10.45-9.03-2.06-11.59-15.02-15.32-13.29-3.83-4.01-3.86-22.93,2.87-.49.17-.98.34-1.48.53-18.29,6.76-9.1,5.97-31.13,11.9-2.6.7-5.07,1.08-7.41,1.51-18.34,3.33-16.94,2.36-27.22,10.91Z"/>
    <path class="cls-1" d="m249.74,241.76c6.64-28.78,9.47-44.87-.45-63.61s-16.31-26.12-28.88-38.91-17.42-10.14-29.54-18.3c-12.13-8.16-4.35-11.69-16.84-15.65s-2.78-4.63-21.75,3.97c-18.96,8.6-.44,3.75-27.78,12.57-27.34,8.82-19.62,9.48-31.75,15.65s-13.01,4.85-11.24,25.13c1.76,20.28,3.09,28.22,6.83,53.13,3.75,24.91,5.07,47.84,28.88,59.75,23.81,11.91,39.91,21.61,59.75,21.83,19.84.22,30.3-3.88,45.29-8.73s22.61-25.77,27.46-46.83Z"/>
    <path class="cls-1" d="m203.94,133.44c12.79,9.85,10.79,11.24,21.84,26.46,7.02,9.67,14.7,18.81,19.84,40.12s1.09,32.82-6.39,53.5c-5.7,15.75-11.1,26.68-23.15,28.51s-20.28,5.66-33.81,8.16c-13.52,2.5-25.58-4.92-49.68-14.04-24.1-9.11-29.85-29.58-36.72-51.7s-4.37-27.63-6.72-47.18c-2.35-19.55-3.37-18.12,5.37-30.17s5.51-8.89,31.53-19.03c26.02-10.14,11.1-4.56,29.25-13.08,12.4-3.75,20.14-3.03,29.16,5.56,9.02,8.59,19.48,12.89,19.48,12.89Z"/>
    <path class="cls-1" d="m231.15,180.55c4.19,4.26,6.91,17.12,7.28,41,.37,23.88-1.64,31.16-9.7,43.73-6.72,10.48-9.85,8.82-18.96,7.64-9.11-1.18-14.99,4.92-22.19,10.14-7.2,5.22-15.21.07-39.61-6.25s-36.07-27.89-45.75-47.39c-10.34-20.84-5.3-55.07-3.64-70.31,3.64-14.08,6.13-11.34,30.83-22.8,24.69-11.46,12.08-4.92,29.42-13.37,17.34-8.45,12.42-1.49,28.49,6.16,16.07,7.64,13.33,11.66,26.78,23.2,5.9,8.56,12.83,18.97,17.06,28.25Z"/>
    <path class="cls-1" d="m228.9,253.73c6-26.14.72-48.67.72-48.67-7.22-49.38-35-79.79-67.58-72.21-31.77,2.9-53.65,23.28-58.58,35.58-.23,18.95-5.11,53.31,6.13,67.24,13.13,16.54,34.01,37.25,58.7,40.78,22.59-.42,18.88-1.99,33.25-8,14.37-6,24.53-2.41,27.35-14.73Z"/>
    <path class="cls-1" d="m198,159.98c-20.3-13.03-9.8-27.07-34.42-16.86s-24.18-.44-37.49,15.09-17.75,12.2-16.2,27.29c1.55,15.09-.89,17.97,3.11,22.19s-.44,6.66,1.33,15.97,14.11,41.93,50.78,39.94c15.56-1.11,20.49-5,32.03-9.44,11.54-4.44,19.7-11.64,20.14-25.17,2-22.63,5.62-53.03-19.27-69Z"/>
    <path class="cls-1" d="m177.66,159.45c15.83,6.3,3.45,9.1,14.23,14,22.36,10.16,11.32,40.27,5.86,55.55-4.08,11.42-13.75,18.68-28.61,19.58s-31.92-5.33-38.38-12.34c-6.46-7-7.31-9.71-6.19-20.78s.45-9.04-2.94-16.72,2.94-14.91,10.39-26.43c6.91-7.39,31.62-18.45,45.63-12.88Z"/>
    <path class="cls-1" d="m185.93,181.52c-10.61-5.24-6.61-7.92-13.45-10.75-6.83-2.82-7.1-7.12-18.38.81-11.28,7.92-10.07,2.15-15.71,11.42-5.64,9.27-11.36,14.13-7.6,17.88,3.76,3.75,4.4,6.09,2.79,14.41-1.61,8.33,3.06,12.43,10.18,18.48,7.12,6.04,38.55,9.67,43.65-6.31,4.57-13.97,14.37-36-1.48-45.93Z"/>
    <path class="cls-1" d="m174.12,194.87c-7.78-6.03-6.93-4.91-9.45-7.99s-7.21-4.56-13.14,2.97c-5.93,7.53-4.91,4.74-5.02,12.81-.11,8.07-3.2,11.04.46,15.49,3.65,4.45,12.07,10.16,21.32,6.39,9.26-3.77,15.31-19.86,5.83-29.67Z"/>
    <path class="cls-1" d="m184.33,193.5s-7.04-10.05-13.24-13.05-9.07-7.31-16.77-3-15,9.78-15.66,18.39c-.65,8.61-.52,17.87,2.09,23.87s15.23,15.26,24.38,13.7,27.67-15.26,19.19-39.92Z"/>
    <path class="cls-1" d="m194.62,248.38s15.99-7.34,17.82-26.72c1.84-19.38,1.97-38.15-8.91-49.37-10.88-11.22-16.59-17.95-25.77-21.01s-15.91-2.65-24.48,0c-8.57,2.65-20.6,8.57-25.91,14.69s-13.26,10.81-11.63,23.87c1.63,13.06,2.65,10.4,3.47,22.03s1.43,21.22,9.18,30.8c7.75,9.59,27.25,17.34,39.33,15.5s26.9-9.79,26.9-9.79Z"/>
    <path class="cls-1" d="m35.44,199.91s-9.71-6.31-9.83-16.87-2.54-29.27-4.65-38.92c-2.11-9.65,1.51-37.71,7.24-58.23s13.28-44.35,28.36-47.97,27.76-7.24,41.33-3.32,37.52,16.24,58.23,18.71"/>
    <path class="cls-1" d="m53.37,220.32s-15-38.61-17.47-48.88c-2.46-10.27-5.28-51.75,1.88-72.7,7.16-20.95,12.44-39.43,31.16-43.54,18.72-4.11,27.27-8.21,40.66-3.7s39.26,10.68,50.35,13.14c11.09,2.46,16.84,2.05,16.84,2.05"/>
    <path class="cls-1" d="m41.84,145.65s4.28-56.82,17.13-65.38c12.84-8.55,20.84-11.41,31.4-11.12s39.22-.02,39.22-.02"/>
    <path class="cls-1" d="m213.38,73.51s29.65,3.49,57.71,22.99c28.06,19.49,37.93,36.18,42.48,44.9,4.55,8.72,14.41,14.03,12.52,32.24-1.9,18.2-2.65,20.94-10.62,46.69s-12.14,41.3-12.89,50.78c-.76,9.48-1.14,19.58-1.14,19.58"/>
    <path class="cls-1" d="m88.24,306.02s16.42,7.39,27.28,17.25c10.86,9.86,20.1,16.24,31.19,20.13,11.09,3.89,14.9.81,27.32,2.35,12.42,1.54,25.6,8.32,39.34,7.39s26.37-4,38.07-13.25c11.71-9.24,16.94-17.25,24.34-21.26s14.79-8.34,14.79-8.34"/>
    <path class="cls-1" d="m154.2,268.46s14.45,4,24.69,0c10.24-4,16.76-7.2,25.6-10.02s17.88-7.24,19.36-22.38c1.47-15.15.42-29.59-.84-36.15s-3.58-27.6-13.47-36.65-20.13-21.25-20.13-21.25"/>
  </g>
</svg>