<svg width="351" height="411" viewBox="0 0 351 411" fill="none" xmlns="http://www.w3.org/2000/svg">

<path d="M97.2202 302.39C97.2202 302.39 121.41 336.81 130.34 346.04C139.27 355.27 149.87 375.7 160.46 363.18C171.05 350.66 176.3 334.71 183.21 316.24C190.12 297.77 196.48 288.54 196.48 288.54" stroke="#0000FF" stroke-width="3" stroke-linecap="round" stroke-linejoin="round"/>
<path d="M173.32 223.15L173.46 223.1L173.5 222.96" stroke="#0000FF" stroke-width="3" stroke-linecap="round" stroke-linejoin="round"/>
<path d="M174.69 218.29L176.2 212.38L181.23 207.75L184.02 206.27L190.35 200.84L192.52 195.13L195.43 185.97L194.84 183.53L185.84 174.3L184.22 171.44" stroke="#0000FF" stroke-width="3" stroke-linecap="round" stroke-linejoin="round"/>
<path d="M183.03 169.35L182.96 169.22L182.81 169.21" stroke="#0000FF" stroke-width="3" stroke-linecap="round" stroke-linejoin="round"/>
<path d="M176.91 169.08L173.6 169.01" stroke="#0000FF" stroke-width="3" stroke-linecap="round" stroke-linejoin="round"/>
<path d="M170.65 168.94H170.5L170.44 169.08" stroke="#0000FF" stroke-width="3" stroke-linecap="round" stroke-linejoin="round"/>
<path d="M168.3 173.51L167.64 174.88L164.16 183.61L160.35 192.34L157.32 201.06L155.3 209.55L156.53 217.54L159.31 223.29L160.86 224.65" stroke="#0000FF" stroke-width="3" stroke-linecap="round" stroke-linejoin="round"/>
<path d="M162.72 226.26L162.83 226.36L162.98 226.32" stroke="#0000FF" stroke-width="3" stroke-linecap="round" stroke-linejoin="round"/>
<path d="M168 224.78L170.81 223.92" stroke="#0000FF" stroke-width="3" stroke-linecap="round" stroke-linejoin="round"/>
<path d="M153.51 246.95L153.64 247.02L153.77 246.94" stroke="#0000FF" stroke-width="3" stroke-linecap="round" stroke-linejoin="round"/>
<path d="M157.95 244.15L178.12 230.7C178.12 230.7 189.07 218.79 192.63 211.59C196.19 204.4 199.28 195.94 203.28 191.24C207.28 186.54 211.91 179.79 209.6 175.39C207.29 170.99 199.14 161.44 199.14 161.44L186.69 154.1L173.4 155.67L162.43 167.12L153.09 179.16L146.96 186.84C146.96 186.84 140.14 203.58 137.03 207.98C133.92 212.38 133.77 214 135.84 221.19C137.91 228.38 139.84 233.52 140.88 234.7C141.92 235.87 148.29 244.1 148.29 244.1L151.29 245.75" stroke="#0000FF" stroke-width="3" stroke-linecap="round" stroke-linejoin="round"/>
<path d="M134.84 293.1C134.89 293.18 134.92 293.22 134.92 293.22L135.07 293.24" stroke="#0000FF" stroke-width="3" stroke-linecap="round" stroke-linejoin="round"/>
<path d="M140.82 293.88L150.13 294.92" stroke="#0000FF" stroke-width="3" stroke-linecap="round" stroke-linejoin="round"/>
<path d="M153 295.25L153.15 295.27C153.15 295.27 153.18 295.23 153.23 295.15" stroke="#0000FF" stroke-width="3" stroke-linecap="round" stroke-linejoin="round"/>
<path d="M156.16 291.06C162.37 282.48 177.02 262.58 189.26 248.65C205.26 230.45 212.55 211.3 229.02 196.63C245.5 181.96 242.33 143.04 232.82 135.66C223.31 128.28 210.48 127.34 197.02 128.13C183.56 128.92 170.25 129.39 162.8 137.86C155.35 146.33 132.26 160.88 132.26 160.88C131.15 161.35 122.39 163.91 120.97 162.97C119.55 162.03 120.18 165.17 114.01 173.48C107.83 181.8 95.9501 185.09 103.4 222.13C109.73 253.6 128.06 282.91 133.43 291.01" stroke="#0000FF" stroke-width="3" stroke-linecap="round" stroke-linejoin="round"/>
<path d="M134.63 308.34C134.69 308.42 134.72 308.46 134.72 308.46L134.86 308.42" stroke="#0000FF" stroke-width="3" stroke-linecap="round" stroke-linejoin="round"/>
<path d="M139.66 306.95L157.47 301.49C157.47 301.49 182.2 261.23 202.12 240.23C222.04 219.23 250.87 191.31 252.35 173.88C253.83 156.45 262.31 138.61 246.63 129.79C230.95 120.97 224.37 113.2 209.11 117.4C193.85 121.6 189.82 117.4 179.86 121.6C169.9 125.8 157.83 133.99 147.44 143.65C137.05 153.31 135.99 151 125.81 150.89C115.64 150.79 106.96 151.62 101.02 166.74C95.08 181.86 83.21 205.79 91.69 223.43C100.17 241.07 106.53 265.42 112.67 275.92C117.65 284.42 129.03 300.51 133.17 306.31" stroke="#0000FF" stroke-width="3" stroke-linecap="round" stroke-linejoin="round"/>
<path d="M216.36 188.2C216.36 188.2 227.46 171.68 224.79 163.97C222.12 156.26 221.34 145.91 207.27 143.04C193.21 140.18 194.54 134.89 180.97 139.74C167.4 144.59 151.61 159.79 141.38 174.11C131.15 188.43 123.14 189.4 119.81 204.34C116.47 219.27 121.85 247.25 128.39 256.72C134.93 266.19 140.05 276.99 155.61 263.33C171.18 249.67 179.63 246.37 189.41 234.91C199.2 223.45 216.34 188.21 216.34 188.21L216.36 188.2Z" stroke="#0000FF" stroke-width="3" stroke-linecap="round" stroke-linejoin="round"/>
<path d="M131.86 337.5C138.14 346.33 143.48 356.67 155.45 351.38C167.42 346.08 167.93 330.14 179.39 308.47C190.85 286.8 204.35 260.81 224.72 241.89C245.09 222.97 278.2 187.4 283.81 166.2C289.41 145.01 291.71 99.85 280.24 85.47C268.78 71.09 262.16 64.53 238.22 78.41C214.28 92.29 217.34 79.92 198.49 88.75C179.64 97.58 179.34 101.25 161.77 109.07C144.2 116.89 139.78 111.5 115.84 122.35C91.9 133.2 74.45 151.57 67.58 170.5C60.71 189.43 64.27 187.66 71.4 219.19C78.53 250.73 72.18 261.57 88.73 282.51C105.28 303.45 131.85 337.51 131.85 337.51L131.86 337.5Z" stroke="#0000FF" stroke-width="3" stroke-linecap="round" stroke-linejoin="round"/>
<path d="M137.54 323.7C146.73 331.25 154.57 336.35 163.3 318.6C172.04 300.85 188.39 267.56 205.87 248.03C223.34 228.5 254.93 195.21 263 178.12C271.07 161.03 275.99 131.52 268.15 118.42C260.31 105.33 260.31 93.1202 242.39 94.0102C224.47 94.9002 229.84 96.9002 210.58 100.89C191.31 104.88 191.31 101.11 181.68 111.32C172.05 121.53 178.77 121.75 159.5 125.3C140.23 128.85 144.94 122.09 126.34 134.9C107.74 147.71 97.9598 141.5 88.7398 162.8C79.5198 184.1 76.6098 192.69 79.9698 211.59C83.3298 230.49 84.8998 250.02 92.2898 262.23C99.6798 274.44 137.55 323.7 137.55 323.7H137.54Z" stroke="#0000FF" stroke-width="3" stroke-linecap="round" stroke-linejoin="round"/>
<path d="M97.2202 320.46C97.2202 320.46 97.2502 320.5 97.3002 320.58" stroke="#0000FF" stroke-width="3" stroke-linecap="round" stroke-linejoin="round"/>
<path d="M99.9202 324.83C104.2 331.83 112.85 346.19 120.36 360.17C130.83 379.67 130.83 370.88 138.99 383.68C148.77 387.42 157.04 389.07 166.31 386.1C175.58 383.12 192.35 369.22 192.35 369.22C205.72 350.42 192.35 353.9 194.33 334.14C193.41 310.74 198.81 316.06 204.48 295.26C210.16 274.46 217.74 276.16 232.2 258.42C246.66 240.68 243.22 245.8 266.98 224.31C290.74 202.82 278 208.96 294.18 183.04C310.36 157.12 304.17 164.62 313.46 137C322.76 109.37 322.41 112.78 324.48 85.4999C326.55 58.2099 327.23 49.0099 327.23 49.0099C323.67 15.1499 258.96 35.9999 239.34 47.8999C219.73 59.7999 198.89 56.8899 181.54 53.2699C161.56 48.6799 150.27 45.2399 136.66 61.8699C123.05 78.4999 109.73 80.2299 94.9702 86.5399C80.2002 92.8499 71.5202 93.9999 70.3602 112.64C69.2002 131.28 49.2202 149.06 43.1402 172.3C37.0602 195.53 57.6202 199.26 54.1402 225.07C50.6702 250.88 62.5402 264.65 74.4102 285.87C86.2802 307.09 96.5302 337.04 109.56 357.97C116.82 370.44 125.27 379.44 131.84 384.27" stroke="#0000FF" stroke-width="3" stroke-linecap="round" stroke-linejoin="round"/>
<path d="M133.9 385.69C133.9 385.69 133.98 385.74 134.02 385.77" stroke="#0000FF" stroke-width="3" stroke-linecap="round" stroke-linejoin="round"/>
<path d="M180.32 347.67C187.39 320.76 196.92 288.94 212.84 267.29C228.76 245.64 255.98 222.36 267.52 209.7C279.06 197.04 296.38 145.17 302.98 125.56C309.58 105.96 315.35 92.89 298.03 77.37C280.71 61.85 272.88 45.1 252.26 56.54C231.64 67.98 221.34 73.29 200.72 76.55C180.1 79.82 166.5 57.76 150.01 76.96C133.52 96.16 142.59 105.14 118.26 114.13C93.9298 123.12 75.3798 128.42 68.3698 148.44C61.3598 168.45 52.6998 167.23 59.2998 203.78C65.8998 240.33 77.8498 284.3 94.7598 308.47C107.39 327.53 122.95 361.29 137.18 369.23C151.41 377.17 171.56 381.04 180.32 347.67Z" stroke="#0000FF" stroke-width="3" stroke-linecap="round" stroke-linejoin="round"/>
<path d="M5.60023 163.2C5.60023 163.1 5.61023 163.06 5.61023 163.06C5.61023 163.06 5.57023 163.03 5.49023 162.97" stroke="#0000FF" stroke-width="3" stroke-linecap="round" stroke-linejoin="round"/>
<path d="M1.94998 158.79C1.37998 157.49 1.23998 156.03 2.19998 154.61C3.24998 153.05 4.24998 151.9 5.07998 151.06" stroke="#0000FF" stroke-width="3" stroke-linecap="round" stroke-linejoin="round"/>
<path d="M7.18994 149.29C7.26994 149.24 7.30994 149.21 7.30994 149.21C7.30994 149.21 7.29994 149.16 7.29994 149.06" stroke="#0000FF" stroke-width="3" stroke-linecap="round" stroke-linejoin="round"/>
<path d="M9.42005 144.61C11.4401 141.84 15.3701 137.66 22.9801 131.66C39.6801 118.5 40.7001 103.31 51.9401 91.4901C63.1801 79.6801 53.9801 69.2101 75.7901 53.3501C97.6001 37.4901 109.87 42.8901 117.36 34.4501C124.86 26.0101 128.95 9.47012 149.05 14.8701C169.15 20.2701 188.31 28.3701 204.46 23.9801C220.61 19.5901 234.58 20.2701 250.26 9.80012C275.78 1.31012 343.12 -12.4799 348.92 38.7201C347.85 58.5501 338.81 94.7501 337.5 106.64C334 138.36 330 154.61 316.37 179.25C302.74 203.89 292.52 218.74 279.91 232.58C267.3 246.42 244.13 262.48 236.97 280.61C229.81 298.74 227.62 297.17 230.15 318.66C243.02 427.86 115.71 420.41 95.5601 389.55C82.2201 364.72 80.8901 343.2 63.8901 315.03C46.8901 286.86 23.3201 273.15 22.5701 252.02C21.8201 230.89 24.1801 222.83 17.1901 215.71C17.1901 215.71 6.63005 210.31 5.60005 193.09C4.85005 180.53 5.20005 170.3 5.44005 165.69" stroke="#0000FF" stroke-width="3" stroke-linecap="round" stroke-linejoin="round"/>
<path d="M225.44 273.75C225.44 273.75 225.39 273.83 225.36 273.88" stroke="#0000FF" stroke-width="3" stroke-linecap="round" stroke-linejoin="round"/>
<path d="M222.93 278.23C213.14 298.02 210.87 331.55 210.87 345.33C210.87 360.22 203.92 371.48 194.71 380.49C185.5 389.5 161.89 392.99 140.65 393.32C119.42 393.65 111.25 377.1 99.2601 358.67C89.3701 329.42 55.7201 288.1 44.9401 272.31C34.1601 256.52 38.8501 242.59 31.8201 224.02C25.7601 208.01 18.6501 169.17 16.8101 158.77" stroke="#0000FF" stroke-width="3" stroke-linecap="round" stroke-linejoin="round"/>
<path d="M16.3799 156.31C16.3599 156.22 16.3599 156.17 16.3599 156.17C16.3599 156.17 16.3999 156.14 16.4799 156.08" stroke="#0000FF" stroke-width="3" stroke-linecap="round" stroke-linejoin="round"/>
<path d="M20.3799 152.97C24.9699 149.25 33.3499 142.22 44.9399 131.62C63.2199 114.9 70.2499 84.7202 88.9999 65.6902C107.75 46.6502 126.5 44.3302 137.75 35.9702C149 27.6102 153.22 33.1802 179.47 38.7602C205.72 44.3302 225.87 37.8302 257.28 24.3702C280.73 18.5202 287.38 16.0002 302.28 16.4602C317.18 16.9202 354.83 14.1402 338.84 70.6802C333.68 87.2802 322.9 133.94 307.72 170.16C292.54 206.38 272.64 228.06 247.33 252.67C222.02 277.28 215.96 321.76 217.87 343.68C220.72 376.3 194.66 391.01 174.2 396.77C153.74 402.53 136.08 402.92 121.52 399.61C106.96 396.3 102.66 382.73 91.6499 360.32C85.5299 344.12 64.0899 302.35 55.1899 293.35C46.2899 284.35 33.3199 275.35 30.0799 251.95C26.8399 228.55 21.6999 202.62 16.3499 191.46C10.9999 180.3 2.61986 158.34 16.3499 143.93C30.0799 129.52 43.3999 123.77 50.5999 107.21C60.0699 91.6602 62.9099 72.5502 76.8499 62.2302C90.7899 51.9002 104.93 46.7402 115.28 41.3202C125.64 35.9002 124.86 19.3802 143.45 22.4802C162.04 25.5802 179.65 36.4202 197.04 33.8402C214.43 31.2602 235.86 25.0602 252.38 18.3502C269.75 12.2902 282.22 10.1202 298.05 9.8402C312.68 9.5802 322.51 8.9302 331.12 15.0302" stroke="#0000FF" stroke-width="3" stroke-linecap="round" stroke-linejoin="round"/>
<path d="M333.11 16.5698C333.11 16.5698 333.18 16.6298 333.22 16.6698" stroke="#0000FF" stroke-width="3" stroke-linecap="round" stroke-linejoin="round"/>
<path d="M198.81 149.82C198.81 149.82 185.5 139.35 165.83 157.13C146.16 174.91 133.61 186.99 130.17 200.56C126.73 214.13 125.5 239.46 134.47 248.48C143.45 257.49 147.14 261.15 157.96 252.62C168.78 244.09 185.01 234.35 189.68 227.53C194.35 220.71 215.26 186.36 215.99 178.57C216.73 170.77 203.76 152.11 198.81 149.83V149.82Z" stroke="#0000FF" stroke-width="3" stroke-linecap="round" stroke-linejoin="round"/>
<path d="M135.47 278.86C148.53 283.63 156.41 281.14 163.48 269.78C170.55 258.43 189.92 240.02 193.06 236.91C196.2 233.8 212.05 211.34 216.03 203.77C220.01 196.2 238.18 171.57 231.97 157.83C225.77 144.09 232.57 133.72 206.92 134.75C181.27 135.78 173.42 132.94 166.09 140.71C158.76 148.49 154.57 150.49 144.62 160.14C134.67 169.79 137.65 162.23 125.69 172.86C113.74 183.49 108.24 185.17 109.81 202.09C111.38 219.01 118.97 272.83 135.46 278.85L135.47 278.86Z" stroke="#0000FF" stroke-width="3" stroke-linecap="round" stroke-linejoin="round"/>
<path d="M216.03 244.2C216.03 244.2 246.13 215.18 255.97 200.56C265.81 185.94 280.15 167.32 280.74 146.76C281.34 126.19 288.5 100.16 276.86 90.7002C265.21 81.2402 267.6 69.7002 251.78 79.7602C235.95 89.8202 234.46 86.8602 218.93 90.7002C203.4 94.5502 198.63 95.1402 193.55 98.0902C188.47 101.04 185.19 102.23 177.43 109.63C169.67 117.02 167.58 119.09 160.41 119.98C153.24 120.87 139.81 115.54 124.58 125.9C109.35 136.25 92.9299 140.98 86.6599 151.04C80.3899 161.1 72.9199 167.01 72.3299 181.51C71.7399 196.01 77.1499 217.89 78.6199 230.61C82.5199 251.3 89.0499 266.4 101.03 284.09C107.79 297.47 129.66 332.42 138.98 336.74C148.3 341.06 157.88 342.78 162.68 333.72C167.48 324.66 177.61 298.63 183.22 288.55C188.83 278.47 216.04 244.21 216.04 244.21L216.03 244.2Z" stroke="#0000FF" stroke-width="3" stroke-linecap="round" stroke-linejoin="round"/>
<path d="M138.98 313.42C138.98 313.42 144.84 323.35 153.1 316.44C161.36 309.53 172.25 290.98 175.96 284.07" stroke="#0000FF" stroke-width="3" stroke-linecap="round" stroke-linejoin="round"/>
<path d="M190.01 166.63C190.01 166.63 185.26 158.54 176.17 162.81C167.08 167.08 161.91 167.08 154.27 191.35C146.63 215.62 142.81 218.23 147.98 226.36C153.15 234.49 150.45 238.02 158.54 235.36C166.63 232.7 178.88 225.09 183.21 218.22C187.53 211.35 199 193.15 200.34 186.4C201.68 179.65 190 166.62 190 166.62L190.01 166.63Z" stroke="#0000FF" stroke-width="3" stroke-linecap="round" stroke-linejoin="round"/>
<path d="M184.62 116.23C184.62 116.23 217.19 102.83 236.87 109.39C256.54 115.95 250.97 111.03 257.53 123.82C264.09 136.61 262.78 153.74 261.79 161.57C260.8 169.4 255.98 176.61 255.98 176.61" stroke="#0000FF" stroke-width="3" stroke-linecap="round" stroke-linejoin="round"/>
<path d="M149.4 132.04C149.4 132.04 149.12 136 134.47 140.88C119.82 145.76 108.85 147.49 102.45 154.09C96.0498 160.69 90.2598 171.36 87.2098 184.17C84.1598 196.97 81.7198 207.75 84.4698 218.22C87.2098 228.68 90.5698 242.71 93.9198 250.63C97.2698 258.55 106.11 273.8 106.11 273.8" stroke="#0000FF" stroke-width="3" stroke-linecap="round" stroke-linejoin="round"/>
<path d="M244.72 88.4098C244.72 88.4098 259.8 84.1498 268 97.5898C276.2 111.03 277.18 114.64 277.51 123.16C277.84 131.68 275.54 150.05 275.54 150.05" stroke="#0000FF" stroke-width="3" stroke-linecap="round" stroke-linejoin="round"/>
<path d="M139.8 107.58C139.8 107.58 152.92 105.46 168 97.2601C183.08 89.0601 188.98 81.8501 200.46 81.1901C211.94 80.5301 224.41 78.2401 233.26 73.9801C242.1 69.7201 254.24 59.2301 265.71 63.1601C277.19 67.0901 290.63 78.9301 293.58 87.7601C296.53 96.5901 298.83 108.64 297.84 116.22C296.85 123.8 291.28 144.14 291.28 144.14" stroke="#0000FF" stroke-width="3" stroke-linecap="round" stroke-linejoin="round"/>
<path d="M78.6198 308.46C78.6198 308.46 53.1098 278.51 47.8798 247.02C42.6498 215.52 43.6898 211.34 36.3598 190.92C29.0298 170.5 34.7898 158.18 47.8798 142.09C60.9698 126 63.8998 118.9 63.8998 118.9" stroke="#0000FF" stroke-width="3" stroke-linecap="round" stroke-linejoin="round"/>
<path d="M83.27 84.7399C83.27 84.7399 93.88 69.1599 112.92 59.6499C131.96 50.1399 132.98 48.3999 142.42 44.0699C151.86 39.7399 152.72 38.8799 166.14 41.4699C179.55 44.0699 198.87 55.7499 216.03 49.6899C233.2 43.6299 254.02 36.2799 261.13 32.3799C268.24 28.4899 291.44 22.8599 309.48 22.8599C325.89 23.7799 338.28 33.3599 333.57 67.4199L329.68 89.8699" stroke="#0000FF" stroke-width="3" stroke-linecap="round" stroke-linejoin="round"/>
<path d="M274.2 210.08C274.2 210.08 294.58 171.41 301.37 154.09C308.16 136.78 320.68 106.19 318.53 93.9501C316.38 81.7101 311.92 74.2002 298.06 63.8302C284.2 53.4602 283.13 36.6602 265.61 43.8102C248.09 50.9602 244.87 54.1802 230.57 59.5402C216.27 64.9002 200.45 67.7602 200.45 67.7602C200.45 67.7602 179.06 62.5201 170.85 62.2801C162.64 62.0401 153.34 58.6702 143.69 70.7202C134.04 82.7702 132.25 91.7101 125.81 99.2201C119.37 106.73 110.57 107.8 101.03 112.09C91.4898 116.38 73.6098 126.07 73.6098 126.07C73.6098 126.07 56.8998 147.46 54.7598 164.62C52.6098 181.78 50.0098 193.43 52.1598 197.63C54.3098 201.84 59.3098 220.43 60.3798 232.94C61.4498 245.45 69.6798 269.76 69.6798 269.76L75.3998 278.84" stroke="#0000FF" stroke-width="3" stroke-linecap="round" stroke-linejoin="round"/>
<path d="M280.63 38.7202C280.63 38.7202 294.94 48.9402 305.15 60.1802C315.37 71.4202 318.78 81.3002 318.78 81.3002" stroke="#0000FF" stroke-width="3" stroke-linecap="round" stroke-linejoin="round"/>
<path d="M289.96 37.52C289.96 37.52 312.62 47.82 318.78 64.81C320.01 68.71 321.38 80.18 321.38 80.18" stroke="#0000FF" stroke-width="3" stroke-linecap="round" stroke-linejoin="round"/>
<path d="M299.7 36.6801C299.7 36.6801 311.84 31.9701 318.78 50.5101C320.01 53.5701 321.38 60.0101 321.38 60.0101" stroke="#0000FF" stroke-width="3" stroke-linecap="round" stroke-linejoin="round"/>
<path d="M74.8898 121.46C74.8898 121.46 72.8998 100.91 88.7398 96.34C104.58 91.77 114.98 88.48 122.08 83.91C129.18 79.34 137.05 67.58 143.39 62.3C149.73 57.02 156.08 57.27 167.49 56.77C178.91 56.26 196.41 63.78 203.01 62.3C209.61 60.82 218.93 59.46 218.93 59.46" stroke="#0000FF" stroke-width="3" stroke-linecap="round" stroke-linejoin="round"/>
<path d="M81.3398 116.23C81.3398 116.23 82.3898 107.24 97.0998 103.22C111.81 99.2002 131.76 82.9302 131.76 82.9302" stroke="#0000FF" stroke-width="3" stroke-linecap="round" stroke-linejoin="round"/>
<path d="M92.6802 81.4299C92.4902 80.8699 106.03 70.7699 118.8 64.4099C131.58 58.0499 135.49 52.9999 142.42 49.8199C149.34 46.6399 154.06 44.2099 162.27 45.3299C170.48 46.4499 175.37 47.5699 175.37 47.5699" stroke="#0000FF" stroke-width="3" stroke-linecap="round" stroke-linejoin="round"/>
<path d="M183.21 124.87C183.21 124.87 200.02 122.23 212.74 123.19C225.46 124.15 242.5 130.39 246.34 139.75C250.18 149.11 249.22 153.19 248.02 164.47C246.82 175.75 237.94 193.51 237.94 193.51L225.2 208.05" stroke="#0000FF" stroke-width="3" stroke-linecap="round" stroke-linejoin="round"/>
<path d="M192.34 109.03C192.34 109.03 217.04 102.7 233.25 103.23C249.46 103.76 249.51 103.27 255.97 110.96C262.43 118.64 264.59 121.36 265.79 127.92C266.99 134.48 266.99 145.52 266.99 145.52" stroke="#0000FF" stroke-width="3" stroke-linecap="round" stroke-linejoin="round"/>
<path d="M205.78 113.83C205.78 113.11 228.34 111.44 238.42 116.23C248.5 121.03 254.98 129.43 254.98 129.43" stroke="#0000FF" stroke-width="3" stroke-linecap="round" stroke-linejoin="round"/>
<path d="M228.19 269.78L246.06 250.08" stroke="#0000FF" stroke-width="3" stroke-linecap="round" stroke-linejoin="round"/>
<path d="M220.58 276.56C219.59 276.89 212.92 284.17 208.81 304.69C204.7 325.21 207.21 326.83 205.79 340.25C204.37 353.67 206.48 362.61 200.46 369.23" stroke="#0000FF" stroke-width="3" stroke-linecap="round" stroke-linejoin="round"/>
<path d="M137.49 374.69C137.49 374.69 156.75 386.69 168.66 378.33C180.57 369.97 187.16 365.66 187.67 354.51C188.18 343.36 189.44 329.42 189.44 329.42" stroke="#0000FF" stroke-width="3" stroke-linecap="round" stroke-linejoin="round"/>
<path d="M139.8 102.5C139.8 102.5 146.93 83.1598 158.87 80.1798C170.81 77.1998 177.05 78.2198 182.12 79.4298C187.19 80.6398 189.01 80.1798 189.01 80.1798" stroke="#0000FF" stroke-width="3" stroke-linecap="round" stroke-linejoin="round"/>
<path d="M146.87 100.28C146.87 100.28 158.05 90.8402 166.35 87.7702C174.65 84.7002 180.51 82.9302 180.51 82.9302" stroke="#0000FF" stroke-width="3" stroke-linecap="round" stroke-linejoin="round"/>

</svg>
