<?xml version="1.0" encoding="UTF-8"?>
<svg id="_レイヤー_2" data-name="レイヤー 2" xmlns="http://www.w3.org/2000/svg" viewBox="0 0 45.9 31.12">
  <defs>
    <style>
      .cls-1 {
        fill: #fff;
      }
    </style>
  </defs>
  <g id="_レイヤー_1-2" data-name="レイヤー 1">
    <g>
      <g>
        <path class="cls-1" d="m1.88,26.75L.05,31.06h1.07l.38-.93h1.67l.38.93h1.09l-1.83-4.3h-.93Zm.91,2.43h-.91l.46-1.11.46,1.11Z"/>
        <polygon class="cls-1" points="7.88 29.21 6.03 26.78 5.1 26.78 5.1 31.06 6.12 31.06 6.12 28.55 8.02 31.03 8.04 31.06 8.91 31.06 8.91 26.78 7.88 26.78 7.88 29.21"/>
        <polygon class="cls-1" points="12.62 29.21 10.77 26.78 9.83 26.78 9.83 31.06 10.86 31.06 10.86 28.55 12.75 31.03 12.77 31.06 13.64 31.06 13.64 26.78 12.62 26.78 12.62 29.21"/>
        <rect class="cls-1" x="14.58" y="26.78" width="1.04" height="4.27"/>
        <polygon class="cls-1" points="18.32 29.58 17.28 26.78 16.13 26.78 17.86 31.09 18.75 31.09 20.48 26.78 19.36 26.78 18.32 29.58"/>
        <polygon class="cls-1" points="22.03 29.38 23.98 29.38 23.98 28.44 22.03 28.44 22.03 27.72 24.25 27.72 24.25 26.78 21 26.78 21 31.06 24.28 31.06 24.28 30.12 22.03 30.12 22.03 29.38"/>
        <path class="cls-1" d="m28.41,29.09c.17-.22.26-.51.26-.87,0-.41-.13-.74-.37-.99-.29-.29-.71-.44-1.25-.44h-1.96v4.27h1.04v-1.33h.62l.89,1.33h1.22l-1.04-1.52c.24-.1.44-.26.6-.46Zm-2.29-1.35h.84c.21,0,.37.04.49.13.11.09.16.21.16.4,0,.16-.05.28-.16.38-.11.1-.27.14-.48.14h-.86v-1.06Z"/>
        <path class="cls-1" d="m32.24,28.9c-.12-.1-.26-.19-.43-.26-.17-.07-.36-.13-.57-.19-.18-.05-.32-.09-.44-.12-.11-.03-.2-.07-.26-.11-.06-.03-.09-.07-.11-.11-.02-.04-.03-.09-.03-.16,0-.08.04-.15.11-.21.08-.06.2-.09.36-.09s.34.04.51.1c.17.07.35.17.53.29l.05.04.54-.79-.05-.04c-.22-.17-.46-.31-.72-.4-.26-.09-.55-.14-.86-.14-.22,0-.42.03-.61.09-.18.06-.35.15-.48.27-.13.12-.24.26-.31.41-.07.16-.11.34-.11.55s.03.4.1.54c.07.15.17.27.29.37.12.1.27.18.45.24.17.06.36.12.58.17.17.04.31.08.42.12.1.04.18.08.24.11.05.03.08.07.1.1.02.04.03.08.03.14,0,.1-.04.18-.13.23-.09.06-.23.09-.41.09-.23,0-.44-.04-.63-.13-.19-.09-.39-.21-.57-.36l-.05-.04-.62.74.05.04c.25.23.54.41.85.52.31.11.63.17.95.17.23,0,.44-.03.63-.09.19-.06.36-.15.5-.26.14-.11.25-.26.33-.42.08-.17.12-.36.12-.59,0-.19-.03-.35-.09-.49-.06-.14-.15-.26-.27-.36Z"/>
        <path class="cls-1" d="m34.68,26.75l-1.83,4.3h1.07l.38-.93h1.67l.38.93h1.09l-1.83-4.3h-.93Zm.91,2.43h-.91l.46-1.11.46,1.11Z"/>
        <path class="cls-1" d="m41.25,29.09c.17-.22.26-.51.26-.87,0-.41-.13-.74-.37-.99-.29-.29-.71-.44-1.25-.44h-1.96v4.27h1.04v-1.33h.62l.89,1.33h1.22l-1.04-1.52c.24-.1.44-.26.6-.46Zm-2.29-1.35h.84c.21,0,.37.04.49.13.11.09.16.21.16.4,0,.16-.05.28-.16.38-.11.1-.27.14-.48.14h-.86v-1.06Z"/>
        <polygon class="cls-1" points="44.71 26.78 43.74 28.39 42.79 26.78 41.57 26.78 43.21 29.38 43.21 31.06 44.25 31.06 44.25 29.36 45.9 26.78 44.71 26.78"/>
      </g>
      <g>
        <path class="cls-1" d="m24.13,0c-6.8,0-12.32,5.52-12.32,12.32s5.52,12.32,12.32,12.32,12.32-5.52,12.32-12.32S30.93,0,24.13,0Zm4.27,19.26c-2.63,1.61-5.81,1.57-8.32.18l-2.42,1.09.64-2.42c-.47-.46-.89-.99-1.25-1.57-2.38-3.89-1.16-8.97,2.72-11.35,3.89-2.38,8.97-1.16,11.35,2.72,2.38,3.89,1.16,8.97-2.72,11.35Z"/>
        <path class="cls-1" d="m26.03,17.42c-.04-.09-.1-.15-.18-.19-.08-.04-.17-.05-.25-.05h-1.16v-1.16c0-.15-.03-.27-.12-.35-.04-.04-.09-.07-.15-.09-.06-.02-.12-.03-.2-.03-.08,0-.16.01-.22.04-.09.04-.15.1-.19.18-.04.08-.05.17-.05.25v1.16h-1.16c-.08,0-.15,0-.2.03-.09.03-.16.08-.2.16-.04.08-.06.17-.06.27,0,.08.01.15.04.21.04.09.1.15.18.19.08.04.17.05.26.05h1.16v1.16c0,.08,0,.14.03.2.03.09.08.16.16.2.08.04.17.06.27.06.08,0,.15-.01.21-.04.09-.04.15-.1.19-.18.04-.08.05-.17.05-.26v-1.16h1.16c.08,0,.14,0,.2-.03.09-.03.16-.08.2-.16.04-.08.06-.17.06-.27,0-.08-.01-.16-.04-.22Z"/>
        <g>
          <polygon class="cls-1" points="27.01 10.39 27.04 10.21 27.04 9.73 24.47 9.73 24.47 11.21 26.18 11.21 27.01 10.39"/>
          <polygon class="cls-1" points="26.52 12.63 26.13 13.02 24.49 13.02 24.49 14.9 26.9 14.9 28.11 13.69 28.11 12.16 28.11 11.99 28.11 11.68 26.52 11.68 26.52 12.63"/>
          <polygon class="cls-1" points="20.45 10.41 20.45 10.23 20.45 9.76 19.08 9.76 19.08 10.89 20.45 10.89 20.45 10.41"/>
          <polygon class="cls-1" points="16.55 12.62 17.97 12.62 18.8 11.8 18.82 11.62 18.82 11.28 16.55 11.28 16.55 12.62"/>
          <polygon class="cls-1" points="21.69 10.42 21.71 10.23 21.71 9.76 20.61 9.76 20.61 10.9 21.22 10.9 21.69 10.42"/>
          <polygon class="cls-1" points="18.66 10.4 18.8 10.22 18.8 9.76 16.54 9.76 16.54 11.1 17.96 11.1 18.66 10.4"/>
          <polygon class="cls-1" points="20.86 11.46 20.86 11.08 19.28 11.08 19.28 12.62 18.88 13.03 16.55 13.03 16.55 14.9 19.66 14.9 20.86 13.68 20.86 11.64 20.86 11.46"/>
          <polygon class="cls-1" points="23.96 14.09 24.57 12.58 23.99 11.91 22.32 11.91 22.26 11.61 21.13 11.65 21.18 11.96 21.03 11.96 21.03 13.3 21.46 13.3 21.8 14.97 22.36 14.95 22.99 14.95 22.64 13.24 23 13.24 23.01 13.23 23.18 13.23 22.86 14.09 23.96 14.09"/>
          <path class="cls-1" d="m31.06,9.12c-.54,0-.97.44-.97.97s.44.97.97.97.97-.44.97-.97-.44-.97-.97-.97Zm0,1.36c-.21,0-.38-.17-.38-.38s.17-.38.38-.38.38.17.38.38-.17.38-.38.38Z"/>
          <path class="cls-1" d="m31.08,11.19s-.05,0-.07,0c-.41,0-.73-.31-.73-.31h0c-.14-.14-.25-.31-.3-.51l-.03-.18s0-.07,0-.11c0-.12.02-.24.06-.35h-2.34v1.51h2.41v1.34l-.42.43h-1.38v.34h0v1.35h0v.18h2.13s1.25-1.25,1.25-1.25v-2.61c-.22.13-.53.16-.57.16,0,0,0,0,0,0Z"/>
        </g>
        <path class="cls-1" d="m20.79,6.21c0,.43-.03,1-.15,1.41h.77c.11-.41.12-1.02.12-1.41h-.74Z"/>
        <polygon class="cls-1" points="23.64 7.39 23.5 6.21 22.79 6.21 22.9 7.39 23.64 7.39 23.64 7.39"/>
        <path class="cls-1" d="m22.41,7.74l.07.11c-.11.08-.29.14-.56.19-.26.04-.62.07-1.11.07v.73c.9,0,1.53-.11,1.96-.33.41-.2.63-.49.74-.88h-.96l.03-.09c.02-.06.04-.14.04-.23v-1.33h-.82v1.03s0,.05-.02.07c-.02.02-.05.04-.08.04h-.03v.69h.35c.18,0,.31-.03.4-.07h0Z"/>
        <path class="cls-1" d="m26.52,7.62h.7v-.54h-.7v-.3h.76v-.64h-1.78l.02-.08s.01-.04.02-.06h-.85c-.07.28-.23.72-.38,1.03h.24v.88h-.22v.62h1.42v.31h.76v-.31h.81v-.62h-.81v-.28h0Zm-.76.28h-.47v-.28h.47v.28h0Zm0-.83h-.59l.04-.09c.02-.05.05-.11.07-.17l.02-.04h.46v.3h0Z"/>
      </g>
      <path class="cls-1" d="m0,23.44h3.21V2.85H0v-1.2C2.98,1.66,6.5.67,8.08,0h1.34v23.44h3.24v1.16H0v-1.16Z"/>
      <g>
        <path class="cls-1" d="m38.74,17.76h-1.67v1.36h-.64v1.45h.64v2.44c0,.32.04.59.12.8.08.21.19.39.34.52.14.13.32.23.52.28.19.05.41.08.65.08.26,0,.49-.03.69-.09.2-.06.38-.14.54-.23l.04-.02v-1.39l-.12.06c-.22.12-.46.18-.71.18-.28,0-.41-.13-.41-.44v-2.19h1.25v-1.45h-1.25v-1.36Z"/>
        <path class="cls-1" d="m45.41,19.57c-.33-.37-.8-.55-1.39-.55-.2,0-.38.02-.54.07-.16.05-.3.11-.44.2-.13.08-.25.18-.36.28-.05.05-.1.1-.15.15v-2.54h-1.67v7.41h1.67v-3.05c0-.34.08-.59.23-.76.15-.17.36-.25.63-.25s.47.08.61.25c.15.17.22.42.22.76v3.05h1.67v-3.52c0-.63-.17-1.14-.49-1.5Z"/>
      </g>
    </g>
  </g>
</svg>