<svg xmlns="http://www.w3.org/2000/svg" xmlns:xlink="http://www.w3.org/1999/xlink" width="42.157" height="42.157" viewBox="0 0 42.157 42.157"><defs><clipPath id="a"><rect width="42.157" height="42.157" fill="none"/></clipPath></defs><g transform="translate(0 0)" clip-path="url(#a)"><path d="M41.68,20.84A20.84,20.84,0,1,0,15.806,41.066V27.208h-4.3V20.84h4.3V18.1c0-7.093,3.21-10.381,10.174-10.381a22.978,22.978,0,0,1,4.53.518v5.773c-.492-.052-1.346-.078-2.408-.078-3.417,0-4.738,1.294-4.738,4.66V20.84h6.807L29,27.208H23.365V41.527A20.843,20.843,0,0,0,41.68,20.84" transform="translate(0.238 0.238)" fill="#1A1A1A"/><path d="M155.548,112.042l1.169-6.368h-6.807v-2.252c0-3.365,1.32-4.66,4.737-4.66,1.061,0,1.916.026,2.408.078V93.066a22.978,22.978,0,0,0-4.53-.518c-6.964,0-10.174,3.288-10.174,10.381v2.744h-4.3v6.368h4.3V125.9a20.959,20.959,0,0,0,7.559.461V112.042Z" transform="translate(-126.307 -84.595)" fill="#fff"/></g></svg>