<svg xmlns="http://www.w3.org/2000/svg" xmlns:xlink="http://www.w3.org/1999/xlink" width="42.157" height="42.157" viewBox="0 0 42.157 42.157"><defs><clipPath id="a"><rect width="42.157" height="42.157" fill="none"/></clipPath></defs><g transform="translate(0 0)" clip-path="url(#a)"><path d="M32.067,41.4H9.333A9.333,9.333,0,0,1,0,32.067V9.333A9.333,9.333,0,0,1,9.333,0H32.067A9.333,9.333,0,0,1,41.4,9.333V32.067A9.333,9.333,0,0,1,32.067,41.4" transform="translate(0.378 0.378)" fill="#1A1A1A"/><path d="M80.885,69.546c0-6.176-6.192-11.2-13.8-11.2s-13.8,5.025-13.8,11.2c0,5.537,4.911,10.174,11.544,11.051.449.1,1.061.3,1.216.681a2.835,2.835,0,0,1,.045,1.248s-.162.974-.2,1.182c-.06.349-.277,1.365,1.2.744s7.949-4.681,10.845-8.014h0a9.967,9.967,0,0,0,2.959-6.892" transform="translate(-46.008 -50.418)" fill="#fff"/><path d="M203.294,128.407h-3.878a.264.264,0,0,1-.264-.264v0h0v-6.013h0v-.006a.264.264,0,0,1,.264-.264h3.878a.264.264,0,0,1,.264.264v.979a.264.264,0,0,1-.264.264h-2.635v1.017h2.635a.264.264,0,0,1,.264.264v.979a.264.264,0,0,1-.264.264h-2.635V126.9h2.635a.264.264,0,0,1,.264.264v.979a.264.264,0,0,1-.264.264" transform="translate(-173.008 -105.713)" fill="#1A1A1A"/><path d="M92.419,128.407a.264.264,0,0,0,.264-.264v-.979a.264.264,0,0,0-.264-.264H89.784V122.12a.264.264,0,0,0-.264-.264h-.979a.264.264,0,0,0-.264.264v6.019h0v0a.264.264,0,0,0,.264.264h3.878Z" transform="translate(-76.479 -105.713)" fill="#1A1A1A"/><path d="M129.972,121.855h-.979a.264.264,0,0,0-.264.264v6.024a.264.264,0,0,0,.264.263h.979a.263.263,0,0,0,.264-.263v-6.024a.264.264,0,0,0-.264-.264" transform="translate(-111.697 -105.712)" fill="#1A1A1A"/><path d="M153.105,121.855h-.979a.264.264,0,0,0-.264.264V125.7l-2.756-3.722a.292.292,0,0,0-.021-.027l0,0-.016-.016,0,0-.014-.012-.007-.005-.014-.01-.008,0-.015-.008-.008,0-.015-.007-.009,0-.016-.005-.009,0-.016,0-.011,0-.014,0h-1a.264.264,0,0,0-.264.264v6.024a.264.264,0,0,0,.264.263h.979a.263.263,0,0,0,.264-.263v-3.577l2.76,3.727a.267.267,0,0,0,.068.066l0,0,.017.01.008,0,.013.006.013.006.008,0,.018.006h0a.268.268,0,0,0,.069.009h.974a.263.263,0,0,0,.264-.263v-6.024a.264.264,0,0,0-.264-.264" transform="translate(-128.166 -105.712)" fill="#1A1A1A"/></g></svg>