<?xml version="1.0" encoding="UTF-8"?>
<svg id="_レイヤー_2" data-name="レイヤー 2" xmlns="http://www.w3.org/2000/svg" viewBox="0 0 30.65 31.42">
  <g id="D">
    <g id="a0iydv">
      <path d="m.03.01h3.2C4.99.01,6.74.02,8.49,0c.41,0,.65.11.88.46,2.48,3.63,4.97,7.24,7.46,10.85.06.08.12.16.2.26.82-.95,1.61-1.88,2.41-2.81,2.42-2.81,4.84-5.62,7.25-8.44.2-.23.4-.34.71-.32.69.02,1.37,0,2.12,0-.09.13-.15.22-.21.29-3.64,4.23-7.27,8.46-10.92,12.67-.25.29-.12.45.04.67,3.99,5.79,7.98,11.58,11.96,17.37.07.1.14.21.25.39-.22,0-.37,0-.52,0-2.67,0-5.35,0-8.02,0-.35,0-.55-.12-.74-.4-2.65-3.86-5.3-7.72-7.96-11.57-.07-.1-.15-.2-.25-.33-.79.91-1.55,1.79-2.31,2.67-2.43,2.82-4.85,5.65-7.28,8.47-.2.23-.43.44-.59.7-.25.4-.59.49-1.03.46-.61-.03-1.22,0-1.95,0,4.04-4.7,8.01-9.33,12.02-13.99C8.04,11.64,4.07,5.87.03.01Zm26.76,29.37c-.11-.17-.16-.27-.23-.36-2.03-2.95-4.06-5.91-6.1-8.86-4.1-5.96-8.2-11.91-12.31-17.86-.09-.14-.32-.25-.49-.26-1.15-.02-2.31-.01-3.46,0-.08,0-.16.01-.29.02.09.15.15.24.21.34,3.76,5.46,7.52,10.93,11.28,16.39,2.36,3.42,4.71,6.85,7.07,10.26.1.15.3.31.45.32,1.25.03,2.51.01,3.84.01Z"/>
    </g>
  </g>
</svg>