<?xml version="1.0" encoding="UTF-8"?>
<svg id="_レイヤー_2" data-name="レイヤー 2" xmlns="http://www.w3.org/2000/svg" viewBox="0 0 311.1 85.74">
  <defs>
    <style>
      .cls-1 {
        fill: #fff;
      }
    </style>
  </defs>
  <g id="_レイヤー_1-2" data-name="レイヤー 1">
    <g>
      <path class="cls-1" d="M15.87,16.8c-1.67,1.67-2.78,3.44-2.78,5.55,0,4.24,4.86,4.34,6.98,4.37l-.69,3.78c-1.88-.17-4.9-.45-7.53-2.33-1.87-1.35-2.81-3.12-2.81-5.1,0-.52.1-5.1,5.35-8.99-4.1.8-8.68,1.67-12.26,2.5-.45.1-.8.17-1.39.35l-.73-3.78c1.22-.1,6.01-.49,6.84-.9,1.08-.56,5.55-4.96,8.05-8.23-3.89.8-6.32.87-7.92.87l-1.49-3.47c1.11.07,2.26.17,3.85.17,3.47,0,6.94-.49,10.28-1.6l1.77,2.92c-1.49,1.22-5.94,5.31-8.47,8.23.69-.14,2.15-.35,4.1-.76,1.22-.24,6.53-1.46,7.64-1.7v3.75c-2.64.45-5.42.94-8.78,4.37Z"/>
      <path class="cls-1" d="M57.49,22.46c-2.6,3.85-6.21,5.35-8.09,6.11l-2.57-3.58c1.56-.45,4.13-1.18,6.25-3.71,2.12-2.5,2.5-5.38,2.5-6.91,0-1.91-.56-4.24-2.5-6.08-2.19-2.08-4.62-2.22-5.9-2.33-1.11,8.26-3.16,13.12-4.3,15.45-1.04,2.15-2.64,5.07-4.44,5.07-1.25,0-6.94-3.12-6.94-9.34,0-7.71,6.35-14.72,15.31-14.72,7.22,0,12.92,4.89,12.92,12.64,0,3.05-.94,5.49-2.22,7.39ZM38.81,9.1c-2.46,2.36-3.47,5.59-3.47,7.71,0,2.81,1.6,4.27,2.22,4.27,1.81,0,4.79-9.06,5.49-14.48-1.01.35-2.57.87-4.24,2.5Z"/>
      <path class="cls-1" d="M73.67,22.39c-.62.28-.8.35-.94.62-.97,2.26-1.53,3.61-3.61,5.97l-3.16-2.29c1.87-2.15,2.81-3.96,3.82-6.84l3.92,1.77c.17.07.31.21.31.38,0,.24-.17.31-.35.38ZM89.88,17.05v-1.08h-15.87v1.08h-3.75V.83h23.29v16.21h-3.68ZM79.95,4.06h-5.94v2.67h5.94v-2.67ZM79.95,9.83h-5.94v3.09h5.94v-3.09ZM86.34,29.82h-7.5c-1.87,0-3.37-1.01-3.37-2.53v-8.37l3.99.69c.21.03.38.17.38.35,0,.21-.17.31-.28.38-.1.07-.35.24-.35.52v4.55c0,.73.28,1.01,1.08,1.01h5.03c.62,0,1.21-.45,1.87-2.88l3.02,1.6c-.24,1.18-1.01,4.69-3.89,4.69ZM84.78,23.33c-1.25-1.74-2.22-2.6-4.24-3.78l2.78-2.33c1.53.97,2.57,1.8,4.17,3.65l-2.71,2.46ZM89.88,4.06h-5.94v2.67h5.94v-2.67ZM89.88,9.83h-5.94v3.09h5.94v-3.09ZM94.53,27.67c-1.84-2.92-3.47-4.44-4.58-5.45l2.57-2.6c1.77,1.53,3.23,3.02,4.93,5.45l-2.92,2.6Z"/>
      <path class="cls-1" d="M111.02,26.73c-1.11,0-1.98-.59-2.57-1.15-2.43-2.36-3.54-6.42-3.54-13.02,0-4.44.49-6.7,1.04-9.03l3.82,1.04c.24.07.8.24.8.66,0,.38-.42.52-1.01.73-.38,1.91-.66,3.92-.66,7.74,0,6.77,1.67,8.02,2.36,8.02,1.25,0,2.67-3.68,3.33-5.35l2.88,2.57c-1.91,4.1-3.65,7.78-6.46,7.78ZM128.62,20.55c-1.01-7.22-3.3-11.32-5.1-14.1l3.58-1.74c1.67,2.36,4.76,6.74,5.69,14.75l-4.17,1.08Z"/>
      <path class="cls-1" d="M155.11,26.7c-.73.73-1.88,1.35-3.96,1.35-1.04,0-1.98-.07-2.6-.14l-.83-3.75c.62.14,1.35.28,2.36.28,1.08,0,1.77-.21,2.4-.97,1.56-1.94,1.84-6.32,1.84-7.99,0-2.67-.66-3.51-2.81-3.51-.76,0-1.46.1-1.87.17-1.77,7.12-3.44,11.28-6.6,16.07l-3.61-1.63c3.26-4.65,4.9-8.09,6.28-13.54-1.88.59-2.99,1.04-4.72,1.88l-1.28-4.17c2.64-.42,3.82-.66,6.67-1.29.28-2.22.38-3.68.35-6.6l4.17.59c.45.07.83.24.83.52,0,.14-.03.17-.38.38q-.42.28-.49.73c-.17,1.39-.24,2.01-.52,3.58.56-.1,1.53-.24,2.53-.24,4.69,0,5.1,4.13,5.1,7.22,0,5-1.22,9.48-2.85,11.04ZM161.57,18.85l-1.84-3.3c1.25-.17,1.98-.35,1.98-1.18s-1.32-3.71-5-7.99l2.81-1.94c1.6,1.91,6.32,7.5,6.32,11.18,0,2.64-2.99,3.05-4.27,3.23ZM164.59,7.74c-.87-1.25-1.67-2.12-2.74-3.06l1.87-1.39c.97.87,1.91,1.94,2.67,2.95l-1.81,1.49ZM168.13,5.69c-.69-1.15-1.53-2.12-2.46-2.99l1.81-1.32c.94.76,1.84,1.74,2.71,2.92l-2.05,1.39Z"/>
      <path class="cls-1" d="M177.54,19.93c2.92,1.7,5.55,3.89,7.71,7.53l-3.61,2.88c-1.81-3.02-3.99-5.52-6.7-7.71l2.6-2.71Z"/>
      <path class="cls-1" d="M17.67,73.35l-1.32-3.78c.69.1,1.46.17,2.15.17,4.17,0,6.7-2.19,6.7-4.58,0-1.91-2.12-2.6-3.23-2.6-.8,0-1.77.28-2.26.42.49.66,1.04,1.56,1.84,2.88l-3.75,1.6c-.31-.69-.66-1.39-1.74-3.16-1.7.73-2.67,1.21-4.79,2.36,2.6,5.28,4.3,9.41,6.39,15.9l-3.89,1.74c-2.36-8.4-4.41-12.64-5.9-15.62-2.36,1.56-3.4,2.4-4.51,3.4l-3.12-3.44c.49-.28,1.04-.59,5.87-3.37-1.18-2.12-2.15-3.75-3.58-5.52l3.68-1.6c.42-.17,1.39-.66,1.39-.04,0,.17-.28.87-.28,1.04,0,.14.35.66.45.87.24.35,1.28,2.26,1.87,3.33,1.87-.97,2.92-1.46,4.37-2.08-1.74-2.26-2.57-3.05-3.51-3.82l3.58-1.67c1.01,1.04,1.77,1.87,3.47,4.13,1.18-.35,2.67-.76,4.27-.76,3.3,0,7.05,1.74,7.05,6.11,0,7.78-8.51,8.02-11.21,8.09Z"/>
      <path class="cls-1" d="M51.55,81.54c-.73.73-1.87,1.35-3.96,1.35-1.04,0-1.98-.07-2.6-.14l-.83-3.75c.62.14,1.35.28,2.36.28,1.08,0,1.77-.21,2.4-.97,1.56-1.94,1.84-6.32,1.84-7.98,0-2.67-.66-3.51-2.81-3.51-.76,0-1.46.1-1.87.17-1.77,7.12-3.44,11.28-6.6,16.07l-3.61-1.63c3.26-4.65,4.9-8.09,6.28-13.54-1.87.59-2.99,1.04-4.72,1.88l-1.28-4.17c2.64-.42,3.82-.66,6.67-1.28.28-2.22.38-3.68.35-6.6l4.17.59c.45.07.83.24.83.52,0,.14-.03.17-.38.38q-.42.28-.49.73c-.17,1.39-.24,2.01-.52,3.58.56-.1,1.53-.24,2.53-.24,4.69,0,5.1,4.13,5.1,7.22,0,5-1.21,9.48-2.85,11.04ZM58.01,73.69l-1.84-3.3c1.25-.17,1.98-.35,1.98-1.18s-1.32-3.71-5-7.98l2.81-1.94c1.6,1.91,6.32,7.5,6.32,11.18,0,2.64-2.99,3.05-4.27,3.23ZM61.03,62.58c-.87-1.25-1.67-2.12-2.74-3.05l1.88-1.39c.97.87,1.91,1.94,2.67,2.95l-1.81,1.49ZM64.57,60.54c-.69-1.15-1.53-2.12-2.47-2.99l1.81-1.32c.94.76,1.84,1.74,2.71,2.92l-2.05,1.39Z"/>
      <path class="cls-1" d="M88.63,63.8c-3.05,2.46-5.94,6.32-5.94,9.79,0,1.18.42,3.33,2.57,4.86,2.19,1.56,4.58,1.63,6.04,1.67l-1.22,4.37c-2.81-.59-11.49-2.4-11.49-10.14,0-5.94,5.1-10.73,6.74-12.25-4.41.35-9.1.73-13.23,1.49l-.69-4.1c8.16-.07,18.54-1.25,25.31-3.23v4.17c-1.49.14-4.3.31-8.09,3.37Z"/>
      <path class="cls-1" d="M109.39,84.56v-3.12h10.07v-2.67h-5.66v-3.02h5.66v-2.43h-4.69c-.42.73-.87,1.49-1.46,2.36l-3.37-1.6c-.45,5.59-1.81,8.61-3.33,11.53l-3.65-1.53c1.25-2.01,3.4-5.55,3.4-12.92,0-.59,0-3.23-.31-7.12h6.94c-.52-1.25-.97-2.12-1.6-3.09h-5.38v-3.05h11.21v-2.95l4.24.31c.17,0,.83.07.83.45,0,.17-.21.31-.31.38-.1.07-.42.31-.42.59v1.21h11.25v3.05h-4.93c-.49,1.29-.94,2.15-1.53,3.09h6.94v3.09h-18.96l2.74,1.35c.45.24.59.38.59.52,0,.07,0,.14-.03.14-.07.1-.59.17-.69.21-.1.04-.17.14-.56.94h3.05v-2.6l3.54.56c.35.07.8.14.8.42,0,.14-.17.24-.28.31-.07.04-.31.21-.31.38v.94h8.33v3.02h-8.33v2.43h6.18v3.02h-6.18v2.67h10.38v3.12h-24.2ZM110.05,67.13c-.03,3.58-.07,4.96-.1,6.39,1.84-1.56,3.26-4.27,3.85-6.39h-3.75ZM115.81,60.95c.62.97,1.15,1.88,1.63,3.09h4.62c.28-.45.83-1.35,1.49-3.09h-7.74Z"/>
      <path class="cls-1" d="M161.57,76.33c3.09,2.99,5.69,4.24,9.58,5.35l-2.64,3.02c-5.87-2.39-8.33-4.89-9.93-6.56v6.56h-3.75v-6.18c-2.6,2.36-5.31,4.51-9.55,6.53l-3.16-2.81c3.71-1.42,6.18-2.71,9.96-5.9h-9.96v-3.16h12.71v-1.49h-8.89v-2.81h8.89v-1.49h-11.07v-2.99h6.49c-.87-1.42-.97-1.6-1.32-2.08h-6.8v-2.88h5.1c-.66-.97-1.46-1.94-2.26-2.78l2.88-1.8c.83.83,1.87,1.98,2.95,3.68l-1.46.9h2.74v-4.55l3.85.52c.1,0,.31.14.31.31,0,.21-.17.35-.28.45-.17.14-.35.31-.35.55v2.71h2.43v-4.41l3.75.49c.17.04.38.1.38.31,0,.14-.1.24-.28.35-.1.07-.28.21-.28.38v2.88h2.19l-1.15-.59c1.04-1.63,1.63-3.02,1.98-3.85l3.47,1.74c.1.04.24.14.24.28s-.14.28-.21.31c-.1.03-.59.21-.69.31-.07.07-1.04,1.53-1.25,1.8h5.07v2.88h-6.8c-.45.83-.8,1.39-1.25,2.08h6.39v2.99h-11.04v1.49h9.06v2.81h-9.06v1.49h12.74v3.16h-9.76ZM153.07,62.31c.45.87.49.97,1.08,2.08h5.17c.42-.66.76-1.46,1.04-2.08h-7.29Z"/>
      <path class="cls-1" d="M195.94,72.1c0,1.35.07,5.66.07,6.84h-4.03c.1-1.98.14-3.68.17-5.21-1.32.66-4.93,2.46-4.93,4.89,0,2.26,2.67,2.71,5.21,2.71,2.99,0,5.94-.45,8.85-1.11v3.92c-3.3.52-7.15.52-8.26.52-1.94,0-5.97,0-8.16-2.33-1.32-1.39-1.32-2.92-1.32-3.4,0-4.3,3.19-5.94,8.4-8.61-.21-1.04-.62-2.29-2.64-2.29-3.4,0-5.49,3.16-7.39,6.28l-3.4-2.12c2.74-2.95,4.48-5.42,6.84-9.55-1.98.1-3.05.14-4.51.14l-.42-3.61c2.08.17,3.61.24,6.63.14.87-1.88,1.32-3.09,1.74-4.62l4.34.76c.1.03.69.1.69.35,0,.21-.14.31-.35.38-.07.04-.76.35-.8.35-.03.03-.9,1.98-1.08,2.36,3.19-.52,4.76-.97,6.8-1.77l-.24,3.89c-3.12.73-5.97,1.04-8.3,1.32-1.11,2.05-1.39,2.54-1.98,3.44.45-.21,1.49-.73,2.99-.73,2.4,0,3.92,1.22,4.72,3.51,4.06-1.91,4.51-2.12,6.14-2.85l1.18,3.96c-2.74.87-4.41,1.46-6.98,2.43Z"/>
      <path class="cls-1" d="M231.25,78.52c-3.65,1.84-7.74,2.5-11.8,2.64l-1.77-4.55c1.04.14,2.33.17,3.4.17,5.94,0,12.36-2.43,12.36-7.95,0-4.37-3.75-5.69-6.39-5.69-1.98,0-5.28.87-7.71,1.56-1.28.35-6.98,2.01-8.16,2.33l-1.87-4.38c3.3-.35,6.63-1.11,8.92-1.67,4.17-1.04,6.32-1.56,8.68-1.56,4.65,0,10.66,2.36,10.66,9.83,0,5.07-3.26,7.71-6.32,9.27Z"/>
      <path class="cls-1" d="M261.76,58.25c-.42.03-.52.14-1.42,1.04-.73.76-4.1,3.99-7.67,7.33-2.29,2.15-2.46,2.33-2.46,2.99,0,.52.21.9.59,1.22,4.48,3.68,7.85,6.7,11.73,11.59l-3.58,3.33c-4.1-6.11-7.5-9.17-11.98-13.02-1.49-1.25-1.74-2.43-1.74-3.06,0-1.53,1.25-2.81,2.4-3.89,4.93-4.48,7.78-7.22,11.11-11.32l3.19,2.46c.07.07.73.59.73.94,0,.28-.1.28-.9.38Z"/>
      <path class="cls-1" d="M281.21,83.83c-4.34,0-6.56-2.19-6.56-4.76,0-1.98,1.7-4.62,5.1-4.62,3.61,0,5.87,2.85,6.84,4.06.76-.69,2.29-2.15,2.29-4.62,0-3.44-3.37-4.55-5.62-4.55-1.49,0-3.12.42-3.96.87-2.15,1.15-5.21,4.24-7.15,6.21l-2.92-3.06c3.61-2.71,7.29-5.8,12.85-12.53-2.08.49-3.99.83-8.12.87l-.8-3.89c.83.07,2.81.21,3.89.21,1.32,0,7.22-.45,10.52-1.74l1.81,2.81c-2.08,1.74-2.67,2.29-7.71,7.43,1.15-.17,2.85-.21,3.37-.21,4.72,0,7.71,3.85,7.71,7.67,0,5.76-5.42,9.83-11.53,9.83ZM279.89,77.51c-1.42,0-1.74,1.01-1.74,1.46,0,1.21,1.6,1.56,2.85,1.56,1.11,0,1.87-.21,2.36-.31-.45-.8-1.49-2.71-3.47-2.71Z"/>
      <path class="cls-1" d="M311.1,79.8c0,2.95-2.4,5.35-5.35,5.38-2.95,0-5.38-2.43-5.38-5.38s2.43-5.35,5.38-5.35,5.35,2.36,5.35,5.35ZM302.04,79.8c0,2.05,1.67,3.71,3.71,3.68,2.05,0,3.68-1.63,3.68-3.68s-1.67-3.68-3.68-3.68-3.71,1.63-3.71,3.68Z"/>
    </g>
  </g>
</svg>