<?xml version="1.0" encoding="UTF-8"?>
<svg id="_レイヤー_2" data-name="レイヤー 2" xmlns="http://www.w3.org/2000/svg" viewBox="0 0 97.63 28.47">
  <defs>
    <style>
      .cls-1 {
        fill: #fff;
      }
    </style>
  </defs>
  <g id="_レイヤー_1-2" data-name="レイヤー 1">
    <g>
      <g>
        <path class="cls-1" d="M43.55,6.13h3.61l2.27,8.66c.08.38.17.79.26,1.23.09.45.17.86.26,1.23.08.44.16.89.24,1.34h.05c.1-.42.19-.85.27-1.27.08-.38.17-.78.26-1.21.09-.43.18-.84.28-1.23l1.9-8.76h3.42l1.9,8.73c.08.39.17.8.27,1.23.1.43.19.83.27,1.21.08.42.17.85.27,1.29h.05c.1-.44.19-.89.29-1.34.08-.37.17-.79.28-1.24.11-.46.2-.87.28-1.24l2.2-8.64h3.49l-4.98,17.44h-3.29l-2.12-9.34c-.08-.33-.15-.67-.22-1.02-.06-.36-.13-.69-.19-1-.07-.36-.13-.72-.2-1.07h-.05c-.05.36-.11.72-.17,1.07-.05.31-.11.64-.17,1-.06.36-.14.7-.22,1.02l-2.15,9.34h-3.27l-5.07-17.44Z"/>
        <path class="cls-1" d="M67.11,6.13h3.54v6.83h6.85v-6.83h3.54v17.44h-3.54v-7.68h-6.85v7.68h-3.54V6.13Z"/>
        <path class="cls-1" d="M88.29,16.84l-5.81-10.71h3.85l2.63,5.17c.13.28.26.56.4.84.14.29.26.55.38.79.13.29.25.58.37.85h.05c.13-.28.26-.56.39-.85.11-.24.24-.51.38-.79.14-.28.27-.57.4-.84l2.59-5.17h3.71l-5.81,10.71v6.73h-3.54v-6.73Z"/>
      </g>
      <g>
        <path class="cls-1" d="M6.17,18.13c-1.96-1.6-3.22-4.03-3.22-6.75,0-4.17,2.95-7.66,6.87-8.5L9.19,0C3.95,1.13,0,5.8,0,11.38c0,3.64,1.68,6.9,4.31,9.04l1.86-2.29Z"/>
        <path class="cls-1" d="M9.28,14.29s0,0,0,0c-1.02-.93-1.38-1.69-1.38-2.9,0-1.79,1.27-3.3,2.96-3.66l-.62-2.88c-3.01.65-5.28,3.33-5.28,6.54,0,2.06.7,3.58,2.34,5.08.04.04.08.08.13.12,1.33,1.24,2.11,2.32,2.11,4.03,0,1.94-2.32,4.01-5.63,5.04l.87,2.81c4.68-1.45,7.71-4.54,7.71-7.86,0-3-1.53-4.81-3.19-6.32Z"/>
        <path class="cls-1" d="M21.69,18.13c1.96-1.6,3.22-4.03,3.22-6.75,0-4.17-2.95-7.66-6.87-8.5l.62-2.88c5.25,1.13,9.19,5.8,9.19,11.38,0,3.64-1.68,6.9-4.31,9.04l-1.86-2.29Z"/>
        <path class="cls-1" d="M18.57,14.29s0,0,0,0c1.02-.93,1.38-1.69,1.38-2.9,0-1.79-1.27-3.3-2.96-3.66l.62-2.88c3.01.65,5.28,3.33,5.28,6.54,0,2.06-.7,3.58-2.34,5.08-.04.04-.08.08-.13.12-1.33,1.24-2.11,2.32-2.11,4.03,0,1.94,2.32,4.01,5.63,5.04l-.87,2.81c-4.68-1.45-7.71-4.54-7.71-7.86,0-3,1.53-4.81,3.19-6.32Z"/>
      </g>
    </g>
  </g>
</svg>