<?xml version="1.0" encoding="UTF-8"?>
<svg id="_レイヤー_2" data-name="レイヤー 2" xmlns="http://www.w3.org/2000/svg" viewBox="0 0 46.75 7.5">
  <g id="g">
    <path d="M2.37,4.62c-.08.23-.6,1.64-.65,1.91-.02.08-.02.16-.02.21,0,.13.17.24.38.24h.44c.08,0,.1.02.1.05v.25c0,.06-.02.1-.08.1-.15,0-.59-.03-1.32-.03-.77,0-1,.03-1.15.03-.06,0-.06-.06-.06-.13v-.19c0-.06.02-.08.06-.08h.31c.29,0,.48-.14.67-.45.1-.18.86-1.96,1.17-2.79l1.03-2.59c.02-.1.08-.28.02-.34-.03-.03-.06-.09-.06-.12,0-.04.02-.08.1-.1.33-.08.91-.38,1.04-.5.06-.06.1-.1.16-.1.06,0,.1.12.13.18.19.61,1,2.83,1.19,3.47.25.77.92,2.61,1.07,2.88.19.34.46.46.67.46h.33c.06,0,.08.02.08.07v.21c0,.06-.02.12-.1.12-.19,0-.4-.03-1.55-.03-.88,0-1.24.03-1.47.03-.08,0-.1-.06-.1-.12v-.2c0-.06.02-.08.08-.08h.27c.29,0,.38-.1.31-.37-.08-.36-.5-1.62-.63-1.99h-2.43ZM4.69,4.23c-.1-.29-.82-2.54-.88-2.74-.04-.12-.06-.18-.1-.18-.06,0-.1.04-.14.13-.04.13-.98,2.56-1.06,2.79h2.18Z"/>
    <path d="M15.05,6.37c0,.14.04.24.04.32s-.06.12-.17.16c-.86.42-1.72.65-2.97.65-1.03,0-2.3-.34-3.01-1.15-.65-.67-.96-1.53-.96-2.69,0-.91.42-1.86,1.19-2.5.75-.63,1.72-.97,2.97-.97,1,0,1.8.3,2.14.53.13.09.19.06.25-.02l.13-.16c.05-.07.08-.1.15-.1.1,0,.13.06.13.14l.1,1.98c0,.08,0,.13-.04.14l-.25.04c-.06.01-.08-.02-.1-.08-.15-.4-.42-.95-.84-1.37-.36-.36-.94-.69-1.74-.69-.65,0-1.21.16-1.78.77-.5.54-.86,1.37-.86,2.24,0,1.17.33,2.18.94,2.75.5.46,1,.67,1.67.67s1.07-.08,1.42-.26c.23-.12.25-.4.25-.91v-.72c0-.36-.1-.46-.38-.46h-.44c-.06,0-.08-.04-.08-.09v-.23c0-.06.02-.08.06-.08.13,0,.63.03,1.49.03s1.24-.03,1.34-.03c.08,0,.1.02.1.07v.25c0,.06-.02.08-.08.08h-.36c-.19,0-.31.08-.31.37v1.31Z"/>
    <path d="M18.64,4.48c.01.54.03,1.51.03,1.68,0,.52.19.71.42.77.17.04.42.08.82.08.19,0,.67-.02.88-.04.19-.02.59-.12.86-.34.19-.16.77-.81.97-1.05.04-.05.07-.06.12-.04l.17.1s.04.05.02.1l-.5,1.49c-.03.09-.1.15-.23.15-.05,0-.28,0-.93-.02-.66,0-1.74,0-3.49,0-.39,0-.67,0-.89,0-.21.01-.36.02-.45.02-.06,0-.08-.02-.08-.08v-.24c0-.06.02-.08.1-.08h.36c.48,0,.52-.06.52-.43v-3.33c0-.81-.02-2.04-.04-2.18-.04-.27-.15-.35-.46-.35h-.4s-.06-.02-.06-.07v-.26s.01-.07.06-.07c.23,0,.61.04,1.47.03h.29c.46,0,2.87-.02,3.33-.02.17,0,.37,0,.42,0s.07.02.08.06c.04.13.44,1.48.48,1.57.02.06.01.09-.03.11l-.19.08s-.06,0-.09-.05c-.04-.06-.9-.97-1.15-1.11-.22-.12-.5-.25-.8-.26l-1.59-.04-.02,2.86c.31,0,1.07-.02,1.19-.05.23-.04.36-.12.48-.36.06-.13.17-.38.17-.55,0-.06.04-.08.08-.08l.27.02s.07.02.06.08c-.02.16-.02.81-.02,1.07,0,.4.04.87.06,1.09,0,.05-.02.06-.08.07l-.23.04s-.06,0-.08-.07c-.04-.16-.12-.38-.17-.5-.09-.2-.29-.34-.52-.36-.38-.04-.88-.06-1.21-.06v.59Z"/>
    <path d="M24.84,2.87c0,1.68.08,3.07.1,3.38.02.5.15.73.52.73h.27c.08,0,.08.04.08.09v.23c0,.06,0,.08-.08.08-.1,0-.73-.03-1.13-.03-.27,0-.98.03-1.09.03-.04,0-.06-.02-.06-.09v-.25s.02-.06.06-.06h.36c.27,0,.42-.22.47-.82.01-.18.07-1.56.07-3.15v-1.26c0-.59-.36-1.05-.82-1.05h-.33s-.06-.03-.06-.07v-.27s.02-.06.06-.06c.05,0,.14,0,.32.02.19,0,.47,0,.93,0,.18,0,.33,0,.46-.02.14,0,.23,0,.29,0,.13,0,.19.03.25.09.1.1,2.16,2.54,2.37,2.81.15.16,1.78,2.08,1.95,2.28h.04v-1.03c0-.87,0-1.37-.02-1.86-.02-.38-.06-1.35-.12-1.52-.07-.24-.3-.38-.55-.38h-.33c-.06,0-.06-.04-.06-.09v-.23c0-.06,0-.08.08-.08.13,0,.46.03,1.17.03.63,0,.88-.03,1-.03.08,0,.1.04.1.07v.23c0,.06-.02.1-.06.1h-.29c-.21,0-.31.16-.35.52-.05.67-.16,2.34-.16,3.35v2.61c0,.14,0,.28-.13.28-.15,0-.27-.08-.36-.16-.08-.1-.65-.71-1.3-1.45-.73-.85-1.55-1.78-1.67-1.94-.15-.14-1.82-2.12-1.95-2.26h-.06v1.21Z"/>
    <path d="M38.84,5.73s.04.06.02.1c-.63.85-1.63,1.66-3.12,1.66-1.34,0-2.09-.38-2.74-.93-.77-.65-1.13-1.8-1.13-2.67,0-.97.33-1.9,1.07-2.65.56-.57,1.47-1.05,2.72-1.05.96,0,1.74.28,2.11.48.15.08.19.08.21,0l.08-.26c.02-.06.04-.06.17-.06s.15.02.15.16c0,.18.21,1.76.25,2.06.01.06,0,.09-.04.1l-.2.06c-.05.02-.08-.02-.12-.1-.13-.36-.38-.85-.82-1.29-.46-.42-1-.73-1.82-.73-1.67,0-2.37,1.43-2.37,2.85,0,.61.19,1.78.96,2.58.69.69,1.3.77,1.8.77,1.15,0,2.06-.54,2.5-1.15.05-.07.09-.1.13-.07l.18.15Z"/>
    <path d="M43.57,5.51c0,.38.02,1.03.03,1.14.03.32.2.34.41.34h.35c.05,0,.07.03.07.07v.23c0,.07-.02.1-.07.1-.11,0-.53-.03-1.48-.03-1.03,0-1.36.03-1.46.03-.05,0-.07-.04-.07-.09v-.23s.02-.08.07-.08h.43c.27,0,.36-.1.37-.25.01-.14.03-.91.03-1.84v-.48c-.17-.3-1.86-3.15-2.16-3.5-.13-.14-.36-.22-.52-.22h-.19c-.06,0-.08-.02-.08-.07v-.27s.02-.06.08-.06c.08,0,.59.03,1.38.03,1.07,0,1.44-.03,1.55-.03.06,0,.08.02.08.07v.23c0,.06-.02.1-.08.1h-.27c-.23,0-.31.08-.29.29.02.18,1.28,2.38,1.56,2.93.36-.55,1.71-2.61,1.73-2.86.02-.18-.04-.36-.36-.36h-.27c-.06,0-.08-.03-.08-.08v-.25s.02-.07.06-.07c.1,0,.54.03,1.28.03.67,0,.9-.03,1-.03.06,0,.08.02.08.07v.23c0,.06-.02.1-.08.1h-.23c-.15,0-.4.06-.56.23-.17.18-1.91,2.71-2.3,3.37v1.21Z"/>
  </g>
</svg>