<?xml version="1.0" encoding="UTF-8"?>
<svg id="_レイヤー_2" data-name="レイヤー 2" xmlns="http://www.w3.org/2000/svg" viewBox="0 0 23.85 7.46">
  <g id="g">
    <path d="M3.12.83h-.29c-.33,0-1.09,0-1.53.14-.33.14-.73.79-.93,1.13-.03.05-.06.09-.12.07l-.21-.07s-.05-.05-.04-.1L.51.18c.02-.14.08-.18.13-.18.06,0,.1.04.17.1.21.2.42.25.71.26.56.02,1,.06,2.03.06h.56c1.15,0,1.59-.04,2.07-.06.2,0,.6-.15.75-.26.08-.06.13-.1.19-.1s.08.04.1.16c.02.18.23,1.41.31,1.88.01.06-.01.08-.04.09l-.21.07s-.06-.02-.09-.08c-.15-.28-.53-.91-.83-1.11-.29-.16-1.24-.18-1.61-.18h-.29v5.28c0,.75.1.95.36.95h.61s.06.04.06.09v.21c0,.06-.02.1-.1.1-.1,0-.44-.03-1.57-.03-1.07,0-1.51.03-1.65.03-.06,0-.08-.02-.08-.09v-.23c0-.06.03-.08.07-.08h.6c.21,0,.33-.12.35-.27.03-.26.03-3.29.03-3.49V.83Z"/>
    <path d="M10.53,3.98c-.11,0-.15.04-.15.13v.43c0,.36.02,1.51.04,2.19.01.24.13.34.36.34h.38c.08,0,.1.02.1.07v.23c0,.06-.02.1-.1.1-.19,0-.54-.03-1.4-.03-1.03,0-1.34.03-1.55.03-.08,0-.1-.04-.1-.09v-.23c0-.06.02-.08.1-.08h.54c.25,0,.29-.24.29-.47,0-.48.02-1.6.02-2.24v-1.27c0-.3-.02-1.52-.02-1.67,0-.5-.06-.63-.4-.63h-.46c-.08,0-.1-.04-.1-.09v-.21s.02-.1.1-.1c.19,0,.52.03,1.55.03.94,0,1.32-.03,1.51-.03.08,0,.1.04.1.09v.21c0,.06-.02.1-.1.1h-.38c-.38,0-.42.16-.43.54-.01.14-.05,1.45-.05,1.7v.4c0,.1.03.14.13.14h3.45c.17,0,.21-.03.21-.14v-.3c0-.36-.04-1.74-.05-1.85-.01-.32-.05-.5-.28-.5h-.48c-.07,0-.08-.03-.08-.09v-.23s.01-.08.08-.08c.19,0,.65.03,1.49.03s1.21-.03,1.38-.03c.1,0,.13.04.13.09v.21c0,.06-.02.1-.13.1h-.38c-.31,0-.33.16-.33.51,0,.14-.02,1.49-.02,1.8v1.07c0,.44.02,1.84.02,2.41,0,.36.1.5.42.5h.42c.06,0,.08.03.08.07v.23c0,.06-.02.1-.1.1-.17,0-.52-.03-1.42-.03-.98,0-1.32.03-1.61.03-.06,0-.08-.05-.08-.09v-.23s.01-.08.08-.08h.57c.25,0,.26-.18.27-.45.02-.48.04-2.06.04-2.24v-.28c0-.09-.08-.12-.23-.12h-3.41Z"/>
    <path d="M19.56,4.56c.01.54.03,1.51.03,1.68,0,.52.19.71.42.77.17.04.42.08.82.08.19,0,.67-.02.88-.04.19-.02.59-.12.86-.34.19-.16.77-.81.97-1.05.04-.05.07-.06.12-.04l.17.1s.04.05.02.1l-.5,1.49c-.03.09-.1.15-.23.15-.05,0-.28,0-.93-.02-.66,0-1.74,0-3.49,0-.39,0-.67,0-.89,0-.21.01-.36.02-.45.02-.06,0-.08-.02-.08-.08v-.24c0-.06.02-.08.1-.08h.36c.48,0,.52-.06.52-.43v-3.33c0-.81-.02-2.04-.04-2.18-.04-.27-.15-.35-.46-.35h-.4s-.06-.02-.06-.07v-.26s.01-.07.06-.07c.23,0,.61.04,1.47.03h.29c.46,0,2.87-.02,3.33-.02.17,0,.37,0,.42,0s.07.02.08.06c.04.13.44,1.48.48,1.57.02.06.01.09-.03.11l-.19.08s-.06,0-.09-.05c-.04-.06-.9-.97-1.15-1.11-.22-.12-.5-.25-.8-.26l-1.59-.04-.02,2.86c.31,0,1.07-.02,1.19-.05.23-.04.36-.12.48-.36.06-.13.17-.38.17-.55,0-.06.04-.08.08-.08l.27.02s.07.02.06.08c-.02.16-.02.81-.02,1.07,0,.4.04.87.06,1.09,0,.05-.02.06-.08.07l-.23.04s-.06,0-.08-.07c-.04-.16-.12-.38-.17-.5-.09-.2-.29-.34-.52-.36-.38-.04-.88-.06-1.21-.06v.59Z"/>
  </g>
</svg>