<?xml version="1.0" encoding="UTF-8"?>
<svg id="_レイヤー_2" data-name="レイヤー 2" xmlns="http://www.w3.org/2000/svg" viewBox="0 0 85.91 7.63">
  <g id="g">
    <path d="M1.11,2.87c0-.26-.04-1.66-.06-1.81-.02-.24-.17-.28-.38-.28H.1s-.08-.02-.08-.07v-.27s.04-.06.09-.06c.3,0,.85.03,1.58.03.52,0,1.05-.03,1.57-.03,1.4,0,2.53.13,3.5.9.69.53,1.17,1.37,1.17,2.52s-.33,1.88-1.03,2.59c-1.03,1.05-2.66,1.06-3.37,1.06-.4,0-1.47-.03-1.99-.03-.92,0-1.34.03-1.49.03-.04,0-.06-.02-.06-.09v-.25s.02-.06.08-.06h.61c.21,0,.31-.08.35-.25.03-.2.07-2.44.07-3.19v-.75ZM2.43,3.84c0,.12.02,1.8.02,2.42,0,.2.04.36.19.55.13.19.52.27.92.27.82,0,1.65-.35,2.18-1,.44-.53.75-1.35.75-2.26,0-.79-.36-1.64-.84-2.16-.57-.57-1.49-.93-2.34-.93-.23,0-.5,0-.67.1-.15.08-.19.24-.19.44-.02.42-.02,1.7-.02,1.86v.71Z"/>
    <path d="M10.9,4.56c.01.54.03,1.51.03,1.68,0,.52.19.71.42.77.17.04.42.08.82.08.19,0,.67-.02.88-.04.19-.02.59-.12.86-.34.19-.16.77-.81.97-1.05.04-.05.07-.06.12-.04l.17.1s.04.05.02.1l-.5,1.49c-.03.09-.1.15-.23.15-.05,0-.28,0-.93-.02-.66,0-1.74,0-3.49,0-.39,0-.67,0-.89,0-.21.01-.36.02-.45.02-.06,0-.08-.02-.08-.08v-.24c0-.06.02-.08.1-.08h.36c.48,0,.52-.06.52-.43v-3.33c0-.81-.02-2.04-.04-2.18-.04-.27-.15-.35-.46-.35h-.4s-.06-.02-.06-.07v-.26s.01-.07.06-.07c.23,0,.61.04,1.47.03h.29c.46,0,2.87-.02,3.33-.02.17,0,.37,0,.42,0s.07.02.08.06c.04.13.44,1.48.48,1.57.02.06.01.09-.03.11l-.19.08s-.06,0-.09-.05c-.04-.06-.9-.97-1.15-1.11-.22-.12-.5-.25-.8-.26l-1.59-.04-.02,2.86c.31,0,1.07-.02,1.19-.05.23-.04.36-.12.48-.36.06-.13.17-.38.17-.55,0-.06.04-.08.08-.08l.27.02s.07.02.06.08c-.02.16-.02.81-.02,1.07,0,.4.04.87.06,1.09,0,.05-.02.06-.08.07l-.23.04s-.06,0-.08-.07c-.04-.16-.12-.38-.17-.5-.09-.2-.29-.34-.52-.36-.38-.04-.88-.06-1.21-.06v.59Z"/>
    <path d="M20.36.47c0-.06.02-.08.08-.08.08,0,.56.03,1.23.03.88,0,1.15-.03,1.24-.03.06,0,.08.02.08.07v.25s-.02.08-.08.08h-.25c-.25,0-.52.1-.76.46-.35.52-.97,2.07-1.27,2.72-.21.44-1.47,3.33-1.57,3.54-.04.08-.13.13-.21.13-.13,0-.18-.11-.23-.23-.36-.84-1.24-3.11-1.59-4.03-.27-.71-.73-1.98-.85-2.27-.09-.22-.22-.32-.45-.32h-.25s-.06-.03-.06-.09v-.23c0-.06.02-.08.06-.08.1,0,.46.03,1.55.03.98,0,1.47-.03,1.55-.03s.1.03.1.08v.22c0,.07-.02.1-.08.1h-.5c-.27,0-.44.1-.44.25,0,.08,0,.2.03.34.07.36.47,1.52.68,2.1.15.38.71,1.94.88,2.48h.02v-.02c.25-.55.92-2.2,1.03-2.5.17-.47.82-1.96.82-2.37,0-.12-.1-.28-.4-.28h-.28s-.07-.04-.07-.09v-.23Z"/>
    <path d="M25.84,4.56c.01.54.03,1.51.03,1.68,0,.52.19.71.42.77.17.04.42.08.82.08.19,0,.67-.02.88-.04.19-.02.59-.12.86-.34.19-.16.77-.81.97-1.05.04-.05.07-.06.12-.04l.17.1s.04.05.02.1l-.5,1.49c-.03.09-.1.15-.23.15-.05,0-.28,0-.93-.02-.66,0-1.74,0-3.49,0-.39,0-.67,0-.89,0-.21.01-.36.02-.45.02-.06,0-.08-.02-.08-.08v-.24c0-.06.02-.08.1-.08h.36c.48,0,.52-.06.52-.43v-3.33c0-.81-.02-2.04-.04-2.18-.04-.27-.15-.35-.46-.35h-.4s-.06-.02-.06-.07v-.26s.01-.07.06-.07c.23,0,.61.04,1.47.03h.29c.46,0,2.87-.02,3.33-.02.17,0,.37,0,.42,0s.07.02.08.06c.04.13.44,1.48.48,1.57.02.06.01.09-.03.11l-.19.08s-.06,0-.09-.05c-.04-.06-.9-.97-1.15-1.11-.22-.12-.5-.25-.8-.26l-1.59-.04-.02,2.86c.31,0,1.07-.02,1.19-.05.23-.04.36-.12.48-.36.06-.13.17-.38.17-.55,0-.06.04-.08.08-.08l.27.02s.07.02.06.08c-.02.16-.02.81-.02,1.07,0,.4.04.87.06,1.09,0,.05-.02.06-.08.07l-.23.04s-.06,0-.08-.07c-.04-.16-.12-.38-.17-.5-.09-.2-.29-.34-.52-.36-.38-.04-.88-.06-1.21-.06v.59Z"/>
    <path d="M37.04,5.39s.02.04.02.1c-.04.06-.46,1.7-.52,1.97-.27,0-3.29-.03-4.35-.03-.94,0-1.32.03-1.44.03-.08,0-.08-.02-.08-.09v-.23c0-.06,0-.08.06-.08h.42c.38,0,.44-.14.44-.27,0-.18.04-2.65.04-3.25v-.55c0-.63-.02-1.68-.04-1.85-.02-.26-.06-.36-.33-.36h-.44c-.06,0-.08-.06-.08-.09v-.23c0-.06.02-.08.08-.08.1,0,.48.03,1.44.03,1.13,0,1.57-.03,1.65-.03s.1.04.1.09v.23s-.02.08-.1.08h-.57c-.31,0-.36.1-.36.37,0,.14-.04,1.62-.04,2.32v.85c0,.18,0,2.32.04,2.74h.59c.59,0,1.34,0,1.76-.05.59-.08,1.26-1.27,1.4-1.64.04-.04.06-.06.13-.04l.19.06Z"/>
    <path d="M44.16,1.06c.79.6,1.42,1.58,1.42,2.93,0,.73-.21,1.51-.77,2.18-.67.79-1.57,1.41-3.14,1.41-.63,0-1.53-.18-2.37-.65-.74-.43-1.53-1.51-1.53-2.93,0-.59.18-1.53.96-2.46.92-1.07,2.05-1.27,2.95-1.27.77,0,1.61.14,2.47.79ZM40.14,1.26c-.64.58-.94,1.6-.94,2.4,0,2.57,1.67,3.49,2.55,3.49,2.11,0,2.45-2.22,2.45-3.05,0-2.16-1.55-3.39-2.55-3.39-.19,0-.8-.1-1.51.55Z"/>
    <path d="M47.19,2.81c0-.65,0-1.7-.01-1.81-.02-.17-.14-.22-.37-.22h-.54s-.06-.02-.06-.07v-.25c0-.06.02-.08.06-.08.13,0,.5.03,1.55.03.19,0,.8-.03,1.15-.03,1.26,0,1.86.11,2.47.5.48.34.8.89.8,1.51,0,1.23-1,2-2.78,2-.36,0-.67,0-.94-.04v.44c0,.48,0,1.82.01,1.95.03.22.14.32.32.32h.59c.08,0,.08.04.08.07v.23c0,.06,0,.1-.08.1-.15,0-.48-.03-1.61-.03-.92,0-1.34.03-1.44.03-.08,0-.08-.04-.08-.07v-.25c0-.06,0-.08.06-.08h.33c.36,0,.44-.04.47-.31.01-.1.03-1.64.03-2.79v-1.15ZM48.51,4c.19.06.48.08.75.08.46,0,1-.34,1.26-.67.21-.3.25-.67.25-1.03,0-1.35-1.15-1.65-1.65-1.65-.19,0-.44-.01-.61.07v3.21Z"/>
    <path d="M60.05,3.84c0-.3,0-2.75-.02-2.79h-.04c-.08.14-1.4,3.03-1.53,3.29-.16.32-1.22,2.65-1.28,2.75-.04.08-.13.22-.23.22-.06,0-.13-.06-.17-.18-.04-.06-1.4-3.15-1.47-3.31-.19-.46-1.15-2.67-1.28-2.79-.04.14-.05,2.63-.05,2.75s-.01,1.8.05,2.45c.04.46.17.83.5.83h.46c.06,0,.08.04.08.07v.25s-.02.08-.1.08c-.1,0-.4-.03-1.19-.03-.9,0-1.26.03-1.36.03-.08,0-.08-.02-.08-.09v-.25s0-.06.06-.06h.48c.36,0,.47-.36.52-.7.09-.69.16-3.13.16-3.31v-1.69c0-.36-.05-.57-.51-.57h-.46c-.06,0-.08-.04-.08-.07v-.27s.02-.06.08-.06c.1,0,.38.03,1.49.03.5,0,.8-.03.92-.03s.2.04.25.17c.38.93,1.84,4.22,2.16,5.03.09-.18.84-1.81,1.11-2.4.19-.42,1.13-2.46,1.18-2.65.03-.1.16-.12.41-.12,1.53,0,1.88-.03,2.01-.03.04,0,.06.04.06.09v.21c0,.06-.02.1-.08.1h-.46c-.27,0-.29.18-.3.39-.01.22-.01,2.2-.01,2.46v.69c0,.59.02,2.04.02,2.21.01.38.1.54.29.54h.57c.06,0,.06.04.06.07v.23c0,.06,0,.1-.08.1-.13,0-.63-.03-1.55-.03-1.03,0-1.42.03-1.57.03-.06,0-.08-.04-.08-.09v-.23c0-.06.02-.08.08-.08h.65c.19,0,.27-.06.3-.35.01-.1.03-1.53.03-2.32v-.55Z"/>
    <path d="M65.42,4.56c.01.54.03,1.51.03,1.68,0,.52.19.71.42.77.17.04.42.08.82.08.19,0,.67-.02.88-.04.19-.02.59-.12.86-.34.19-.16.77-.81.97-1.05.04-.05.07-.06.12-.04l.17.1s.04.05.02.1l-.5,1.49c-.03.09-.1.15-.23.15-.05,0-.28,0-.93-.02-.66,0-1.74,0-3.49,0-.39,0-.67,0-.89,0-.21.01-.36.02-.45.02-.06,0-.08-.02-.08-.08v-.24c0-.06.02-.08.1-.08h.36c.48,0,.52-.06.52-.43v-3.33c0-.81-.02-2.04-.04-2.18-.04-.27-.15-.35-.46-.35h-.4s-.06-.02-.06-.07v-.26s.01-.07.06-.07c.23,0,.61.04,1.47.03h.29c.46,0,2.87-.02,3.33-.02.17,0,.37,0,.42,0s.07.02.08.06c.04.13.44,1.48.48,1.57.02.06.01.09-.03.11l-.19.08s-.06,0-.09-.05c-.04-.06-.9-.97-1.15-1.11-.22-.12-.5-.25-.8-.26l-1.59-.04-.02,2.86c.31,0,1.07-.02,1.19-.05.23-.04.36-.12.48-.36.06-.13.17-.38.17-.55,0-.06.04-.08.08-.08l.27.02s.07.02.06.08c-.02.16-.02.81-.02,1.07,0,.4.04.87.06,1.09,0,.05-.02.06-.08.07l-.23.04s-.06,0-.08-.07c-.04-.16-.12-.38-.17-.5-.09-.2-.29-.34-.52-.36-.38-.04-.88-.06-1.21-.06v.59Z"/>
    <path d="M71.62,2.95c0,1.68.08,3.07.1,3.38.02.5.15.73.52.73h.27c.08,0,.08.04.08.09v.23c0,.06,0,.08-.08.08-.1,0-.73-.03-1.13-.03-.27,0-.98.03-1.09.03-.04,0-.06-.02-.06-.09v-.25s.02-.06.06-.06h.36c.27,0,.42-.22.47-.82.01-.18.07-1.56.07-3.15v-1.26c0-.59-.36-1.05-.82-1.05h-.33s-.06-.03-.06-.07v-.27s.02-.06.06-.06c.05,0,.14,0,.32.02.19,0,.47,0,.93,0,.18,0,.33,0,.46-.02.14,0,.23,0,.29,0,.13,0,.19.03.25.09.1.1,2.16,2.54,2.37,2.81.15.16,1.78,2.08,1.95,2.28h.04v-1.03c0-.87,0-1.37-.02-1.86-.02-.38-.06-1.35-.12-1.52-.07-.24-.3-.38-.55-.38h-.33c-.06,0-.06-.04-.06-.09v-.23c0-.06,0-.08.08-.08.13,0,.46.03,1.17.03.63,0,.88-.03,1-.03.08,0,.1.04.1.07v.23c0,.06-.02.1-.06.1h-.29c-.21,0-.31.16-.35.52-.05.67-.16,2.34-.16,3.35v2.61c0,.14,0,.28-.13.28-.15,0-.27-.08-.36-.16-.08-.1-.65-.71-1.3-1.45-.73-.85-1.55-1.78-1.67-1.94-.15-.14-1.82-2.12-1.95-2.26h-.06v1.21Z"/>
    <path d="M81.49.83h-.29c-.33,0-1.09,0-1.53.14-.33.14-.73.79-.93,1.13-.03.05-.06.09-.12.07l-.21-.07s-.05-.05-.04-.1l.5-1.82c.02-.14.08-.18.13-.18.06,0,.1.04.17.1.21.2.42.25.71.26.57.02,1,.06,2.03.06h.57c1.15,0,1.59-.04,2.07-.06.2,0,.6-.15.75-.26.08-.06.13-.1.19-.1s.08.04.1.16c.02.18.23,1.41.31,1.88.01.06-.01.08-.04.09l-.21.07s-.06-.02-.09-.08c-.15-.28-.53-.91-.83-1.11-.29-.16-1.23-.18-1.61-.18h-.29v5.28c0,.75.1.95.36.95h.61s.06.04.06.09v.21c0,.06-.02.1-.1.1-.1,0-.44-.03-1.57-.03-1.07,0-1.51.03-1.65.03-.06,0-.08-.02-.08-.09v-.23c0-.06.03-.08.07-.08h.6c.21,0,.33-.12.35-.27.03-.26.03-3.29.03-3.49V.83Z"/>
  </g>
</svg>