<svg width="916" height="303" viewBox="0 0 916 303" fill="none" xmlns="http://www.w3.org/2000/svg">
<path d="M31.512 74.2558C26.6586 74.2558 22.048 73.3892 17.68 71.6558C13.3813 69.8532 9.74131 67.2878 6.75997 63.9598C3.77864 60.5625 1.80264 56.6105 0.831973 52.1038L14.664 48.9838C15.7733 53.3518 17.8533 56.7492 20.904 59.1758C23.9546 61.6025 27.5946 62.8158 31.824 62.8158C35.2906 62.8158 38.1333 62.0532 40.352 60.5278C42.64 58.9332 43.784 56.6452 43.784 53.6638C43.784 51.0985 42.9866 49.1918 41.392 47.9438C39.7973 46.6265 37.128 45.3092 33.384 43.9918L20.8 39.6238C14.9066 37.6132 10.504 35.2212 7.59197 32.4478C4.74931 29.6052 3.32797 25.6185 3.32797 20.4878C3.32797 16.6745 4.33331 13.2425 6.34397 10.1918C8.42397 7.07183 11.4053 4.6105 15.288 2.80783C19.1706 0.935831 23.7813 -0.000169754 29.12 -0.000169754C36.816 -0.000169754 43.1253 1.76783 48.048 5.30383C52.9706 8.83983 56.3333 13.5198 58.136 19.3438L43.992 22.3598C42.952 19.0318 41.08 16.3972 38.376 14.4558C35.7413 12.4452 32.4133 11.4398 28.392 11.4398C25.064 11.4398 22.4293 12.2025 20.488 13.7278C18.5466 15.1838 17.576 17.0905 17.576 19.4478C17.576 21.5972 18.3733 23.2958 19.968 24.5438C21.5626 25.7918 23.9893 26.9705 27.248 28.0798L39.936 32.3438C45.6213 34.2852 50.0586 36.8158 53.248 39.9358C56.4373 43.0558 58.032 47.2505 58.032 52.5198C58.032 56.6105 57.0613 60.2852 55.12 63.5438C53.248 66.8025 50.336 69.4025 46.384 71.3438C42.432 73.2852 37.4746 74.2558 31.512 74.2558ZM61.5615 20.6958H75.7055V31.8238C77.2308 28.1492 79.4148 25.2718 82.2575 23.1918C85.1001 21.0425 88.6015 19.9678 92.7615 19.9678C97.1295 19.9678 101.012 21.0772 104.409 23.2958C107.876 25.5145 110.58 28.7038 112.521 32.8638C114.532 37.0238 115.537 41.8772 115.537 47.4238C115.537 52.8318 114.532 57.5812 112.521 61.6718C110.511 65.7625 107.807 68.9172 104.409 71.1358C101.081 73.2852 97.4068 74.3598 93.3855 74.3598C89.2255 74.3598 85.6548 73.2852 82.6735 71.1358C79.6921 68.9865 77.3695 65.9705 75.7055 62.0878V94.3278H61.5615V20.6958ZM75.7055 46.6958C75.7055 51.6878 76.8841 55.7438 79.2415 58.8638C81.6681 61.9145 84.8228 63.4398 88.7055 63.4398C92.3801 63.4398 95.2921 61.9838 97.4415 59.0718C99.6601 56.1598 100.804 52.2772 100.873 47.4238C100.873 42.2932 99.7641 38.2372 97.5455 35.2558C95.3961 32.2745 92.4841 30.7838 88.8095 30.7838C84.8575 30.7838 81.7028 32.2398 79.3455 35.1518C76.9881 38.0638 75.7748 41.9118 75.7055 46.6958ZM143.369 74.1518C138.03 74.1518 133.316 73.0425 129.225 70.8238C125.204 68.6052 122.084 65.5198 119.865 61.5678C117.646 57.6158 116.537 53.0745 116.537 47.9438C116.537 42.8132 117.612 38.1332 119.761 33.9038C121.91 29.6052 124.996 26.2078 129.017 23.7118C133.108 21.2158 137.857 19.9678 143.265 19.9678C148.188 19.9678 152.521 21.0425 156.265 23.1918C160.078 25.3412 163.025 28.3225 165.105 32.1358C167.185 35.9492 168.225 40.2478 168.225 45.0318C168.225 46.8345 168.121 48.3598 167.913 49.6078H130.889C131.236 54.1145 132.588 57.5812 134.945 60.0078C137.302 62.4345 140.318 63.6478 143.993 63.6478C146.974 63.6478 149.332 62.8505 151.065 61.2558C152.798 59.5918 154.185 57.4425 155.225 54.8078L168.225 57.7198C166.7 62.5732 163.788 66.5252 159.489 69.5758C155.26 72.6265 149.886 74.1518 143.369 74.1518ZM153.873 40.9758C153.457 37.8558 152.278 35.3598 150.337 33.4878C148.465 31.5465 146.004 30.5758 142.953 30.5758C140.11 30.5758 137.684 31.5118 135.673 33.3838C133.662 35.1865 132.276 37.7172 131.513 40.9758H153.873ZM196.401 74.2558C191.27 74.2558 186.625 73.1465 182.465 70.9278C178.305 68.6398 175.011 65.4505 172.585 61.3598C170.227 57.2692 169.049 52.6238 169.049 47.4238C169.049 41.8772 170.227 37.0585 172.585 32.9678C174.942 28.8078 178.166 25.6185 182.257 23.3998C186.417 21.1118 191.062 19.9678 196.193 19.9678C202.502 19.9678 207.91 21.5972 212.417 24.8558C216.923 28.0452 219.835 32.1705 221.153 37.2318L207.425 40.5598C206.731 37.5785 205.379 35.2558 203.369 33.5918C201.427 31.8585 198.966 30.9918 195.985 30.9918C192.31 30.9918 189.329 32.5172 187.041 35.5678C184.822 38.6185 183.713 42.3972 183.713 46.9038C183.713 52.1038 184.891 56.1252 187.249 58.9678C189.675 61.8105 192.865 63.2318 196.817 63.2318C199.521 63.2318 201.843 62.4345 203.785 60.8398C205.795 59.2452 207.251 56.8532 208.153 53.6638L221.361 56.7838C219.835 61.9145 216.889 66.1092 212.521 69.3678C208.222 72.6265 202.849 74.2558 196.401 74.2558ZM223.363 20.6958H237.507V73.5278H223.363V20.6958ZM223.155 1.66383H237.715V14.1438H223.155V1.66383ZM274.664 38.5838C274.664 36.2265 273.901 34.3892 272.376 33.0718C270.92 31.6852 268.84 30.9918 266.136 30.9918C261.075 30.9918 257.4 33.4878 255.112 38.4798L242.32 35.5678C243.915 31.0612 246.861 27.3518 251.16 24.4398C255.528 21.4585 260.832 19.9678 267.072 19.9678C273.867 19.9678 279.171 21.5972 282.984 24.8558C286.867 28.1145 288.808 32.8292 288.808 38.9998V73.5278H274.664V64.1678C272.723 67.3572 270.123 69.8532 266.864 71.6558C263.675 73.3892 260.104 74.2558 256.152 74.2558C251.715 74.2558 247.971 73.0772 244.92 70.7198C241.869 68.2932 240.344 64.9652 240.344 60.7358C240.344 55.8825 242.043 52.2425 245.44 49.8158C248.907 47.3892 254.315 45.8292 261.664 45.1358C266.587 44.7198 269.984 44.0958 271.856 43.2638C273.728 42.3625 274.664 40.8025 274.664 38.5838ZM255.32 58.8638C255.32 60.6665 255.979 62.0532 257.296 63.0238C258.683 63.9945 260.416 64.4798 262.496 64.4798C265.755 64.4798 268.597 63.2665 271.024 60.8398C273.451 58.3438 274.664 54.6345 274.664 49.7118V48.9838C272.861 50.7172 269.811 51.8265 265.512 52.3118C261.976 52.6585 259.376 53.3172 257.712 54.2878C256.117 55.1892 255.32 56.7145 255.32 58.8638ZM294.876 0.727827H309.02V73.5278H294.876V0.727827ZM316 20.6958H330.144V73.5278H316V20.6958ZM315.792 1.66383H330.352V14.1438H315.792V1.66383ZM357.525 74.2558C350.661 74.2558 345.184 72.7305 341.093 69.6798C337.002 66.5598 334.298 62.5732 332.981 57.7198L345.669 54.9118C347.61 61.0132 351.701 64.0638 357.941 64.0638C360.784 64.0638 362.933 63.5438 364.389 62.5038C365.914 61.3945 366.677 59.8692 366.677 57.9278C366.677 56.4025 366.088 55.1892 364.909 54.2878C363.73 53.3865 361.928 52.6585 359.501 52.1038L350.765 50.1278C345.149 48.8798 340.989 47.2505 338.285 45.2398C335.65 43.1598 334.333 40.0398 334.333 35.8798C334.333 32.7598 335.2 29.9865 336.933 27.5598C338.666 25.1332 341.128 23.2612 344.317 21.9438C347.506 20.6265 351.146 19.9678 355.237 19.9678C361.754 19.9678 366.989 21.2852 370.941 23.9198C374.962 26.5545 377.632 30.0212 378.949 34.3198L365.949 37.3358C365.117 35.1172 363.8 33.3838 361.997 32.1358C360.264 30.8185 357.872 30.1598 354.821 30.1598C352.394 30.1598 350.453 30.6105 348.997 31.5118C347.61 32.4132 346.917 33.6612 346.917 35.2558C346.917 36.7118 347.437 37.8212 348.477 38.5838C349.517 39.3465 351.042 39.9705 353.053 40.4558L363.869 42.7438C369 43.7838 372.848 45.4825 375.413 47.8398C378.048 50.1278 379.365 53.2478 379.365 57.1998C379.365 60.3892 378.533 63.3012 376.869 65.9358C375.205 68.5012 372.709 70.5465 369.381 72.0718C366.122 73.5278 362.17 74.2558 357.525 74.2558ZM402.596 73.5278C396.841 73.5278 392.404 72.0718 389.284 69.1598C386.164 66.2478 384.604 62.0185 384.604 56.4718V32.0318H378.052V20.6958H384.604V11.3358L398.748 6.44783V20.6958H410.188V32.0318H398.748V56.3678C398.748 58.1012 399.199 59.4532 400.1 60.4238C401.071 61.3252 402.423 61.7758 404.156 61.7758H410.188V73.5278H402.596ZM434.416 74.2558C427.552 74.2558 422.075 72.7305 417.984 69.6798C413.893 66.5598 411.189 62.5732 409.872 57.7198L422.56 54.9118C424.501 61.0132 428.592 64.0638 434.832 64.0638C437.675 64.0638 439.824 63.5438 441.28 62.5038C442.805 61.3945 443.568 59.8692 443.568 57.9278C443.568 56.4025 442.979 55.1892 441.8 54.2878C440.621 53.3865 438.819 52.6585 436.392 52.1038L427.656 50.1278C422.04 48.8798 417.88 47.2505 415.176 45.2398C412.541 43.1598 411.224 40.0398 411.224 35.8798C411.224 32.7598 412.091 29.9865 413.824 27.5598C415.557 25.1332 418.019 23.2612 421.208 21.9438C424.397 20.6265 428.037 19.9678 432.128 19.9678C438.645 19.9678 443.88 21.2852 447.832 23.9198C451.853 26.5545 454.523 30.0212 455.84 34.3198L442.84 37.3358C442.008 35.1172 440.691 33.3838 438.888 32.1358C437.155 30.8185 434.763 30.1598 431.712 30.1598C429.285 30.1598 427.344 30.6105 425.888 31.5118C424.501 32.4132 423.808 33.6612 423.808 35.2558C423.808 36.7118 424.328 37.8212 425.368 38.5838C426.408 39.3465 427.933 39.9705 429.944 40.4558L440.76 42.7438C445.891 43.7838 449.739 45.4825 452.304 47.8398C454.939 50.1278 456.256 53.2478 456.256 57.1998C456.256 60.3892 455.424 63.3012 453.76 65.9358C452.096 68.5012 449.6 70.5465 446.272 72.0718C443.013 73.5278 439.061 74.2558 434.416 74.2558ZM474.447 20.6958H487.447L496.807 54.1838L507.519 20.6958H519.271L529.151 53.8718L538.719 20.6958H551.719L536.431 73.5278H523.951L513.031 37.0238L501.591 73.5278H489.215L474.447 20.6958ZM553.173 20.6958H567.317V73.5278H553.173V20.6958ZM552.965 1.66383H567.525V14.1438H552.965V1.66383ZM593.96 73.5278C588.206 73.5278 583.768 72.0718 580.648 69.1598C577.528 66.2478 575.968 62.0185 575.968 56.4718V32.0318H569.416V20.6958H575.968V11.3358L590.112 6.44783V20.6958H601.552V32.0318H590.112V56.3678C590.112 58.1012 590.563 59.4532 591.464 60.4238C592.435 61.3252 593.787 61.7758 595.52 61.7758H601.552V73.5278H593.96ZM605.084 0.727827H619.228V32.2398C621.308 28.5652 623.977 25.6185 627.236 23.3998C630.495 21.1118 634.169 19.9678 638.26 19.9678C643.529 19.9678 647.308 21.6665 649.596 25.0638C651.953 28.3918 653.132 33.2105 653.132 39.5198V73.5278H638.988V41.9118C638.988 37.8212 638.329 34.9092 637.012 33.1758C635.764 31.4425 633.753 30.5758 630.98 30.5758C627.999 30.5758 625.433 31.8238 623.284 34.3198C621.135 36.7465 619.783 39.8318 619.228 43.5758V73.5278H605.084V0.727827ZM24.544 177.528C18.7893 177.528 14.352 176.072 11.232 173.16C8.11197 170.248 6.55197 166.018 6.55197 160.472V136.032H-2.73213e-05V124.696H6.55197V115.336L20.696 110.448V124.696H32.136V136.032H20.696V160.368C20.696 162.101 21.1466 163.453 22.048 164.424C23.0186 165.325 24.3706 165.776 26.104 165.776H32.136V177.528H24.544ZM35.6679 104.728H49.8119V136.24C51.8919 132.565 54.5612 129.618 57.8199 127.4C61.0786 125.112 64.7532 123.968 68.8439 123.968C74.1132 123.968 77.8919 125.666 80.1799 129.064C82.5372 132.392 83.7159 137.21 83.7159 143.52V177.528H69.5719V145.912C69.5719 141.821 68.9132 138.909 67.5959 137.176C66.3479 135.442 64.3372 134.576 61.5639 134.576C58.5826 134.576 56.0172 135.824 53.8679 138.32C51.7186 140.746 50.3666 143.832 49.8119 147.576V177.528H35.6679V104.728ZM113.713 178.152C108.374 178.152 103.659 177.042 99.5686 174.824C95.5473 172.605 92.4273 169.52 90.2086 165.568C87.9899 161.616 86.8806 157.074 86.8806 151.944C86.8806 146.813 87.9553 142.133 90.1046 137.904C92.2539 133.605 95.3393 130.208 99.3606 127.712C103.451 125.216 108.201 123.968 113.609 123.968C118.531 123.968 122.865 125.042 126.609 127.192C130.422 129.341 133.369 132.322 135.449 136.136C137.529 139.949 138.569 144.248 138.569 149.032C138.569 150.834 138.465 152.36 138.257 153.608H101.233C101.579 158.114 102.931 161.581 105.289 164.008C107.646 166.434 110.662 167.648 114.337 167.648C117.318 167.648 119.675 166.85 121.409 165.256C123.142 163.592 124.529 161.442 125.569 158.808L138.569 161.72C137.043 166.573 134.131 170.525 129.833 173.576C125.603 176.626 120.23 178.152 113.713 178.152ZM124.217 144.976C123.801 141.856 122.622 139.36 120.681 137.488C118.809 135.546 116.347 134.576 113.297 134.576C110.454 134.576 108.027 135.512 106.017 137.384C104.006 139.186 102.619 141.717 101.857 144.976H124.217ZM164.203 178.36C161.776 178.36 159.974 177.528 158.795 175.864C157.616 174.2 157.512 172.12 158.483 169.624L180.427 114.296C180.982 112.909 181.016 111.938 180.531 111.384C180.115 110.76 179.491 110.344 178.659 110.136L176.059 109.408L176.579 107.536C180.254 106.912 183.374 106.392 185.939 105.976C188.504 105.49 191.208 104.658 194.051 103.48L195.507 104.208C194.606 105.733 193.739 107.397 192.907 109.2C192.144 110.933 191.451 112.597 190.827 114.192L169.819 167.232C169.334 168.48 169.23 169.416 169.507 170.04C169.854 170.664 170.339 170.976 170.963 170.976C171.934 170.976 173.286 169.97 175.019 167.96C176.752 165.949 179.11 162.898 182.091 158.808L184.171 160.16C179.803 166.33 176.059 170.906 172.939 173.888C169.888 176.869 166.976 178.36 164.203 178.36ZM202.672 178.464C197.958 178.464 194.11 177.25 191.128 174.824C188.147 172.328 186.656 168.688 186.656 163.904C186.656 159.328 187.384 155.064 188.84 151.112C190.366 147.09 192.376 143.554 194.872 140.504C197.438 137.384 200.315 134.957 203.504 133.224C206.763 131.49 210.091 130.624 213.488 130.624C218.342 130.624 222.12 132.01 224.824 134.784C227.528 137.557 228.88 141.058 228.88 145.288C228.88 149.725 228.187 153.954 226.8 157.976C225.414 161.928 223.507 165.464 221.08 168.584C218.654 171.634 215.846 174.061 212.656 175.864C209.536 177.597 206.208 178.464 202.672 178.464ZM200.592 175.136C202.256 175.136 203.955 174.304 205.688 172.64C207.491 170.976 209.19 168.826 210.784 166.192C212.379 163.488 213.8 160.576 215.048 157.456C216.366 154.336 217.406 151.32 218.168 148.408C218.931 145.426 219.312 142.861 219.312 140.712C219.312 136.274 217.856 134.056 214.944 134.056C213.28 134.056 211.582 134.888 209.848 136.552C208.115 138.216 206.416 140.365 204.752 143C203.158 145.634 201.736 148.512 200.488 151.632C199.24 154.752 198.235 157.802 197.472 160.784C196.71 163.696 196.328 166.226 196.328 168.376C196.328 170.525 196.71 172.189 197.472 173.368C198.235 174.546 199.275 175.136 200.592 175.136ZM236.229 204.464C232.831 204.464 229.642 204.013 226.661 203.112C223.61 202.28 221.149 200.997 219.277 199.264C217.405 197.6 216.469 195.554 216.469 193.128C216.469 190.146 217.578 187.616 219.797 185.536C221.946 183.456 224.789 181.688 228.325 180.232C231.93 178.845 235.813 177.701 239.973 176.8L244.965 177.84C241.498 178.81 238.343 179.954 235.501 181.272C232.658 182.589 230.37 184.114 228.637 185.848C226.973 187.65 226.141 189.8 226.141 192.296C226.141 195.138 227.423 197.184 229.989 198.432C232.554 199.68 235.639 200.304 239.245 200.304C243.751 200.304 247.669 199.853 250.997 198.952C254.325 198.12 256.89 196.906 258.693 195.312C260.565 193.786 261.501 192.053 261.501 190.112C261.501 188.933 261.085 187.893 260.253 186.992C259.49 186.09 257.93 185.224 255.573 184.392C253.285 183.629 249.853 182.866 245.277 182.104C240.978 181.341 237.442 180.509 234.669 179.608C231.895 178.706 229.85 177.632 228.533 176.384C227.285 175.066 226.661 173.506 226.661 171.704C226.661 169.901 228.325 168.306 231.653 166.92C235.05 165.464 239.314 164.701 244.445 164.632L248.917 166.4C246.698 166.469 244.687 166.642 242.885 166.92C241.082 167.128 239.626 167.44 238.517 167.856C237.477 168.272 236.957 168.861 236.957 169.624C236.957 170.178 237.234 170.698 237.789 171.184C238.413 171.6 239.765 172.05 241.845 172.536C243.994 173.021 247.287 173.645 251.725 174.408C259.421 175.725 264.794 177.32 267.845 179.192C270.895 181.064 272.421 183.56 272.421 186.68C272.421 190.077 270.791 193.128 267.533 195.832C264.274 198.536 259.906 200.65 254.429 202.176C249.021 203.701 242.954 204.464 236.229 204.464ZM244.861 177.632L239.661 175.448C243.751 174.338 247.981 173.402 252.349 172.64C256.786 171.877 261.223 171.149 265.661 170.456L266.077 172.744C262.679 173.368 259.143 174.096 255.469 174.928C251.794 175.76 248.258 176.661 244.861 177.632ZM249.333 162.968C251.343 162.968 253.181 162.309 254.845 160.992C256.578 159.674 258.069 157.941 259.317 155.792C260.634 153.642 261.639 151.32 262.333 148.824C263.095 146.328 263.477 143.901 263.477 141.544C263.477 139.048 263.061 136.933 262.229 135.2C261.397 134.368 260.045 133.952 258.173 133.952C256.093 133.952 254.186 134.645 252.453 136.032C250.789 137.418 249.333 139.221 248.085 141.44C246.906 143.589 245.935 145.877 245.173 148.304C244.479 150.661 244.098 152.81 244.029 154.752C243.959 157.109 244.271 159.085 244.965 160.68C245.727 162.205 247.183 162.968 249.333 162.968ZM250.165 166.504C247.669 166.504 245.242 166.018 242.885 165.048C240.527 164.008 238.586 162.517 237.061 160.576C235.605 158.565 234.877 156.138 234.877 153.296C234.877 150.869 235.327 148.338 236.229 145.704C237.199 143.069 238.621 140.608 240.493 138.32C242.434 136.032 244.791 134.194 247.565 132.808C250.407 131.352 253.701 130.624 257.445 130.624C259.455 130.624 261.189 130.866 262.645 131.352C264.17 131.768 265.591 132.253 266.909 132.808C268.087 133.224 269.231 133.64 270.341 134.056C271.45 134.472 272.594 134.68 273.773 134.68C274.951 134.68 275.922 134.402 276.685 133.848C277.517 133.224 277.933 132.253 277.933 130.936C277.933 130.381 277.759 129.792 277.413 129.168C277.135 128.544 276.997 127.92 276.997 127.296C276.997 125.285 277.517 123.794 278.557 122.824C279.597 121.784 280.81 121.264 282.197 121.264C283.722 121.264 284.831 121.714 285.525 122.616C286.287 123.448 286.669 124.522 286.669 125.84C286.669 127.573 286.149 129.445 285.109 131.456C284.069 133.466 282.578 135.165 280.637 136.552C278.765 137.938 276.581 138.632 274.085 138.632C273.391 138.632 272.767 138.562 272.213 138.424C271.727 138.216 271.173 137.973 270.549 137.696L270.341 138.32C271.727 139.984 272.421 142.341 272.421 145.392C272.421 147.61 271.935 149.968 270.965 152.464C270.063 154.89 268.677 157.178 266.805 159.328C264.933 161.477 262.61 163.21 259.837 164.528C257.063 165.845 253.839 166.504 250.165 166.504ZM287.491 178.36C285.064 178.36 283.262 177.528 282.083 175.864C280.904 174.2 280.8 172.12 281.771 169.624L292.899 141.544C293.454 140.088 293.627 139.152 293.419 138.736C293.211 138.25 292.934 138.008 292.587 138.008C291.963 138.008 290.992 138.666 289.675 139.984C288.358 141.301 286.936 142.896 285.411 144.768C283.955 146.64 282.672 148.442 281.563 150.176L279.483 148.824C283.851 142.653 287.526 138.077 290.507 135.096C293.488 132.114 296.504 130.624 299.555 130.624C302.19 130.624 303.819 131.525 304.443 133.328C305.136 135.13 304.998 137.314 304.027 139.88L293.419 166.608C292.795 168.133 292.622 169.242 292.899 169.936C293.246 170.629 293.696 170.976 294.251 170.976C294.875 170.976 295.846 170.317 297.163 169C298.55 167.682 299.971 166.088 301.427 164.216C302.952 162.274 304.27 160.472 305.379 158.808L307.459 160.16C303.091 166.33 299.347 170.906 296.227 173.888C293.176 176.869 290.264 178.36 287.491 178.36ZM306.107 120.952C304.096 120.952 302.328 120.189 300.803 118.664C299.278 117.138 298.515 115.37 298.515 113.36C298.515 111.21 299.278 109.373 300.803 107.848C302.328 106.322 304.096 105.56 306.107 105.56C308.256 105.56 310.094 106.322 311.619 107.848C313.144 109.373 313.907 111.21 313.907 113.36C313.907 115.37 313.144 117.138 311.619 118.664C310.094 120.189 308.256 120.952 306.107 120.952ZM316.941 178.36C314.167 178.36 311.845 177.493 309.973 175.76C308.101 174.026 307.165 171.426 307.165 167.96C307.165 164.285 307.893 160.68 309.349 157.144C310.874 153.538 312.85 150.141 315.277 146.952C317.703 143.693 320.303 140.816 323.077 138.32C325.711 135.962 328.277 134.09 330.773 132.704C333.338 131.317 335.695 130.624 337.845 130.624C340.618 130.624 342.698 131.421 344.085 133.016C345.471 134.61 346.165 136.448 346.165 138.528C346.165 140.122 345.783 141.44 345.021 142.48C344.258 143.52 343.045 144.04 341.381 144.04C339.717 144.04 338.642 143.624 338.157 142.792C337.741 141.89 337.429 140.885 337.221 139.776C337.082 138.805 336.839 138.042 336.493 137.488C336.215 136.933 335.522 136.656 334.413 136.656C332.61 136.656 330.738 137.28 328.797 138.528C326.855 139.776 325.018 141.509 323.285 143.728C321.621 145.946 320.234 148.546 319.125 151.528C318.085 154.44 317.565 157.629 317.565 161.096C317.565 164.354 318.223 166.504 319.541 167.544C320.858 168.584 322.349 169.104 324.013 169.104C326.231 169.104 328.45 168.237 330.669 166.504C332.957 164.77 335.383 162.101 337.949 158.496L340.029 159.744C338.226 162.864 336.111 165.845 333.685 168.688C331.327 171.53 328.727 173.853 325.885 175.656C323.042 177.458 320.061 178.36 316.941 178.36ZM395.747 142.584C395.747 140.226 394.984 138.389 393.459 137.072C392.003 135.685 389.923 134.992 387.219 134.992C382.157 134.992 378.483 137.488 376.195 142.48L363.403 139.568C364.997 135.061 367.944 131.352 372.243 128.44C376.611 125.458 381.915 123.968 388.155 123.968C394.949 123.968 400.253 125.597 404.067 128.856C407.949 132.114 409.891 136.829 409.891 143V177.528H395.747V168.168C393.805 171.357 391.205 173.853 387.947 175.656C384.757 177.389 381.187 178.256 377.235 178.256C372.797 178.256 369.053 177.077 366.003 174.72C362.952 172.293 361.427 168.965 361.427 164.736C361.427 159.882 363.125 156.242 366.523 153.816C369.989 151.389 375.397 149.829 382.747 149.136C387.669 148.72 391.067 148.096 392.939 147.264C394.811 146.362 395.747 144.802 395.747 142.584ZM376.403 162.864C376.403 164.666 377.061 166.053 378.379 167.024C379.765 167.994 381.499 168.48 383.579 168.48C386.837 168.48 389.68 167.266 392.107 164.84C394.533 162.344 395.747 158.634 395.747 153.712V152.984C393.944 154.717 390.893 155.826 386.595 156.312C383.059 156.658 380.459 157.317 378.795 158.288C377.2 159.189 376.403 160.714 376.403 162.864ZM415.852 124.696H429.996V136.448C432.076 132.773 434.745 129.792 438.004 127.504C441.263 125.146 444.972 123.968 449.132 123.968C454.401 123.968 458.18 125.666 460.468 129.064C462.825 132.392 464.004 137.21 464.004 143.52V177.528H449.86V145.912C449.86 141.821 449.201 138.909 447.884 137.176C446.636 135.442 444.625 134.576 441.852 134.576C438.732 134.576 436.063 135.928 433.844 138.632C431.625 141.266 430.343 144.525 429.996 148.408V177.528H415.852V124.696ZM506.899 166.608C505.374 170.213 503.19 173.056 500.347 175.136C497.505 177.216 494.038 178.256 489.947 178.256C485.579 178.256 481.662 177.146 478.195 174.928C474.798 172.709 472.094 169.52 470.083 165.36C468.142 161.2 467.171 156.346 467.171 150.8C467.171 145.392 468.142 140.677 470.083 136.656C472.094 132.565 474.763 129.445 478.091 127.296C481.489 125.077 485.198 123.968 489.219 123.968C493.379 123.968 496.95 125.042 499.931 127.192C502.913 129.341 505.235 132.357 506.899 136.24V104.728H521.043V177.528H506.899V166.608ZM481.835 150.8C481.835 155.93 482.91 159.986 485.059 162.968C487.278 165.949 490.225 167.44 493.899 167.44C497.851 167.44 501.006 165.984 503.363 163.072C505.721 160.16 506.899 156.312 506.899 151.528C506.899 146.536 505.686 142.514 503.259 139.464C500.902 136.344 497.782 134.784 493.899 134.784C490.225 134.784 487.278 136.24 485.059 139.152C482.91 142.064 481.835 145.946 481.835 150.8ZM552.479 178.36C549.428 178.36 547.175 177.354 545.719 175.344C544.263 173.264 543.535 170.733 543.535 167.752C543.535 163.384 544.367 159.293 546.031 155.48C547.764 151.597 549.948 148.096 552.583 144.976C555.218 141.786 557.922 139.013 560.695 136.656C562.983 134.714 565.306 133.224 567.663 132.184C570.09 131.144 572.274 130.624 574.215 130.624C576.85 130.624 578.791 131.213 580.039 132.392C581.356 133.57 582.015 135.026 582.015 136.76C582.015 139.256 581.01 141.752 578.999 144.248C577.058 146.744 573.834 148.997 569.327 151.008C564.82 152.949 558.684 154.44 550.919 155.48L551.127 152.464C555.703 152.117 559.516 151.216 562.567 149.76C565.618 148.234 567.871 146.536 569.327 144.664C570.852 142.722 571.615 140.989 571.615 139.464C571.615 137.592 570.714 136.656 568.911 136.656C567.039 136.656 565.202 137.418 563.399 138.944C561.666 140.4 560.071 142.341 558.615 144.768C557.228 147.194 556.084 149.829 555.183 152.672C554.351 155.514 553.935 158.322 553.935 161.096C553.935 163.8 554.455 165.845 555.495 167.232C556.604 168.549 558.199 169.208 560.279 169.208C561.735 169.208 563.226 168.826 564.751 168.064C566.276 167.301 567.836 166.122 569.431 164.528C571.026 162.864 572.551 160.784 574.007 158.288L575.983 159.536C574.042 162.933 571.719 166.053 569.015 168.896C566.311 171.738 563.503 174.026 560.591 175.76C557.679 177.493 554.975 178.36 552.479 178.36ZM607.427 178.36C605.001 178.36 603.025 177.493 601.499 175.76C600.043 173.957 599.35 171.392 599.419 168.064C599.627 162.794 600.737 157.906 602.747 153.4C604.758 148.824 607.219 144.837 610.131 141.44C613.043 138.042 616.059 135.408 619.179 133.536C622.369 131.594 625.211 130.624 627.707 130.624C630.342 130.624 632.283 131.386 633.531 132.912C634.779 134.437 635.403 136.136 635.403 138.008C635.403 139.88 635.022 141.37 634.259 142.48C633.566 143.589 632.318 144.144 630.515 144.144C628.921 144.144 627.881 143.728 627.395 142.896C626.979 142.064 626.702 141.162 626.563 140.192C626.425 139.221 626.217 138.389 625.939 137.696C625.731 136.933 625.107 136.552 624.067 136.552C622.265 136.552 620.497 137.141 618.763 138.32C617.03 139.429 615.435 141.093 613.979 143.312C612.593 145.461 611.483 148.13 610.651 151.32C609.819 154.509 609.403 158.149 609.403 162.24C609.403 164.944 609.923 166.85 610.963 167.96C612.003 169.069 613.286 169.624 614.811 169.624C616.614 169.624 618.763 168.722 621.259 166.92C623.755 165.117 626.355 162.309 629.059 158.496L631.035 159.536C629.094 162.656 626.806 165.672 624.171 168.584C621.537 171.426 618.763 173.784 615.851 175.656C612.939 177.458 610.131 178.36 607.427 178.36ZM582.779 178.464C580.145 178.464 578.203 177.701 576.955 176.176C575.707 174.65 575.083 172.952 575.083 171.08C575.083 169.208 575.465 167.717 576.227 166.608C576.99 165.498 578.238 164.944 579.971 164.944C581.566 164.944 582.571 165.36 582.987 166.192C583.473 167.024 583.785 167.925 583.923 168.896C584.062 169.797 584.235 170.629 584.443 171.392C584.721 172.154 585.379 172.536 586.419 172.536C588.222 172.536 589.99 171.981 591.723 170.872C593.457 169.693 595.017 168.029 596.403 165.88C597.859 163.661 599.003 160.957 599.835 157.768C600.667 154.578 601.083 150.938 601.083 146.848C601.083 144.144 600.563 142.237 599.523 141.128C598.553 140.018 597.27 139.464 595.675 139.464C593.873 139.464 591.723 140.365 589.227 142.168C586.731 143.901 584.131 146.709 581.427 150.592L579.451 149.552C581.393 146.432 583.681 143.45 586.315 140.608C588.95 137.696 591.723 135.338 594.635 133.536C597.617 131.664 600.425 130.728 603.059 130.728C605.486 130.728 607.462 131.629 608.987 133.432C610.513 135.165 611.206 137.696 611.067 141.024C610.859 146.293 609.75 151.216 607.739 155.792C605.729 160.298 603.267 164.25 600.355 167.648C597.443 171.045 594.393 173.714 591.203 175.656C588.083 177.528 585.275 178.464 582.779 178.464ZM617.642 203.528L618.37 201.76L621.906 200.512C623.154 200.096 624.159 199.576 624.922 198.952C625.615 198.328 626.205 197.461 626.69 196.352L651.234 135.304L663.506 127.4L655.81 145.08H656.122C658.341 142.168 660.767 139.637 663.402 137.488C666.037 135.269 668.637 133.57 671.202 132.392C673.837 131.144 676.229 130.52 678.378 130.52C680.527 130.52 682.295 131.178 683.682 132.496C685.138 133.813 685.866 135.928 685.866 138.84C685.866 142.029 685.346 145.357 684.306 148.824C683.266 152.29 681.81 155.653 679.938 158.912C678.135 162.17 676.021 165.117 673.594 167.752C671.167 170.317 668.533 172.397 665.69 173.992C662.847 175.517 659.935 176.28 656.954 176.28C653.141 176.28 650.021 175.552 647.594 174.096C645.167 172.57 643.954 170.456 643.954 167.752C643.954 166.018 644.474 164.77 645.514 164.008C646.623 163.245 647.871 162.864 649.258 162.864C650.853 162.864 652.17 163.418 653.21 164.528C654.319 165.568 654.874 167.37 654.874 169.936C654.874 170.976 655.082 171.773 655.498 172.328C655.914 172.882 656.746 173.16 657.994 173.16C659.727 173.16 661.391 172.57 662.986 171.392C664.581 170.144 666.037 168.514 667.354 166.504C668.741 164.424 669.954 162.101 670.994 159.536C672.034 156.97 672.831 154.336 673.386 151.632C673.941 148.858 674.218 146.224 674.218 143.728C674.218 139.914 672.797 138.008 669.954 138.008C668.637 138.008 667.146 138.597 665.482 139.776C663.887 140.954 662.258 142.549 660.594 144.56C658.999 146.501 657.474 148.72 656.018 151.216C654.631 153.642 653.418 156.104 652.378 158.6L636.882 197.08C636.258 198.674 636.882 199.818 638.754 200.512L643.122 201.76L642.394 203.528H617.642ZM634.594 153.4L633.138 151.32C637.021 149.24 640.175 147.194 642.602 145.184C645.029 143.104 647.005 141.024 648.53 138.944C650.125 136.864 651.511 134.784 652.69 132.704C653.869 130.554 655.117 128.37 656.434 126.152C656.781 125.597 657.301 125.181 657.994 124.904C658.687 124.557 659.589 124.384 660.698 124.384C661.669 124.384 662.535 124.557 663.298 124.904C664.061 125.181 664.338 125.597 664.13 126.152C663.021 128.994 661.114 132.114 658.41 135.512C655.706 138.84 652.309 142.098 648.218 145.288C644.197 148.477 639.655 151.181 634.594 153.4ZM692.14 178.36C689.089 178.36 686.836 177.354 685.38 175.344C683.924 173.264 683.196 170.733 683.196 167.752C683.196 163.384 684.028 159.293 685.692 155.48C687.425 151.597 689.609 148.096 692.244 144.976C694.878 141.786 697.582 139.013 700.356 136.656C702.644 134.714 704.966 133.224 707.324 132.184C709.75 131.144 711.934 130.624 713.876 130.624C716.51 130.624 718.452 131.213 719.7 132.392C721.017 133.57 721.676 135.026 721.676 136.76C721.676 139.256 720.67 141.752 718.66 144.248C716.718 146.744 713.494 148.997 708.988 151.008C704.481 152.949 698.345 154.44 690.58 155.48L690.788 152.464C695.364 152.117 699.177 151.216 702.228 149.76C705.278 148.234 707.532 146.536 708.988 144.664C710.513 142.722 711.276 140.989 711.276 139.464C711.276 137.592 710.374 136.656 708.572 136.656C706.7 136.656 704.862 137.418 703.06 138.944C701.326 140.4 699.732 142.341 698.276 144.768C696.889 147.194 695.745 149.829 694.844 152.672C694.012 155.514 693.596 158.322 693.596 161.096C693.596 163.8 694.116 165.845 695.156 167.232C696.265 168.549 697.86 169.208 699.94 169.208C701.396 169.208 702.886 168.826 704.412 168.064C705.937 167.301 707.497 166.122 709.092 164.528C710.686 162.864 712.212 160.784 713.668 158.288L715.644 159.536C713.702 162.933 711.38 166.053 708.676 168.896C705.972 171.738 703.164 174.026 700.252 175.76C697.34 177.493 694.636 178.36 692.14 178.36ZM716.824 178.776L731.8 141.128C732.216 140.088 732.355 139.325 732.216 138.84C732.147 138.354 731.835 138.112 731.28 138.112C730.656 138.112 729.685 138.77 728.368 140.088C727.051 141.405 725.629 143 724.104 144.872C722.648 146.744 721.365 148.546 720.256 150.28L718.176 148.928C722.544 142.757 726.253 138.181 729.304 135.2C732.424 132.218 735.371 130.728 738.144 130.728C740.571 130.728 742.235 131.594 743.136 133.328C744.037 134.992 743.899 137.21 742.72 139.984L734.712 158.392H734.92C736.376 155.757 738.005 152.845 739.808 149.656C741.68 146.466 743.656 143.45 745.736 140.608C747.885 137.696 750.173 135.304 752.6 133.432C755.027 131.56 757.557 130.624 760.192 130.624C762.619 130.624 764.456 131.282 765.704 132.6C767.021 133.848 767.68 135.373 767.68 137.176C767.68 139.325 767.021 141.024 765.704 142.272C764.456 143.52 763.035 144.144 761.44 144.144C760.539 144.144 759.811 143.936 759.256 143.52C758.701 143.104 758.285 142.653 758.008 142.168C757.523 141.197 757.037 140.365 756.552 139.672C756.136 138.909 755.443 138.528 754.472 138.528C752.947 138.528 751.075 139.602 748.856 141.752C746.707 143.832 744.384 146.709 741.888 150.384C739.461 154.058 737.035 158.253 734.608 162.968C732.181 167.613 729.928 172.466 727.848 177.528L716.824 178.776ZM767.676 178.36C764.903 178.36 763.065 177.458 762.164 175.656C761.332 173.784 761.471 171.461 762.58 168.688L775.58 135.304H768.612L770.068 131.664H777.244L780.572 123.344L791.492 122.304L787.748 131.56H796.276L794.82 135.2H786.292L773.708 167.128C773.223 168.445 773.084 169.416 773.292 170.04C773.569 170.664 774.055 170.976 774.748 170.976C775.303 170.976 776.204 170.317 777.452 169C778.7 167.682 780.017 166.088 781.404 164.216C782.791 162.274 784.004 160.472 785.044 158.808L787.124 160.16C782.895 166.4 779.255 171.01 776.204 173.992C773.153 176.904 770.311 178.36 767.676 178.36ZM799.52 178.36C797.094 178.36 795.291 177.528 794.112 175.864C792.934 174.2 792.83 172.12 793.8 169.624L804.928 141.544C805.483 140.088 805.656 139.152 805.448 138.736C805.24 138.25 804.963 138.008 804.616 138.008C803.992 138.008 803.022 138.666 801.704 139.984C800.387 141.301 798.966 142.896 797.44 144.768C795.984 146.64 794.702 148.442 793.592 150.176L791.512 148.824C795.88 142.653 799.555 138.077 802.536 135.096C805.518 132.114 808.534 130.624 811.584 130.624C814.219 130.624 815.848 131.525 816.472 133.328C817.166 135.13 817.027 137.314 816.056 139.88L805.448 166.608C804.824 168.133 804.651 169.242 804.928 169.936C805.275 170.629 805.726 170.976 806.28 170.976C806.904 170.976 807.875 170.317 809.192 169C810.579 167.682 812 166.088 813.456 164.216C814.982 162.274 816.299 160.472 817.408 158.808L819.488 160.16C815.12 166.33 811.376 170.906 808.256 173.888C805.206 176.869 802.294 178.36 799.52 178.36ZM818.136 120.952C816.126 120.952 814.358 120.189 812.832 118.664C811.307 117.138 810.544 115.37 810.544 113.36C810.544 111.21 811.307 109.373 812.832 107.848C814.358 106.322 816.126 105.56 818.136 105.56C820.286 105.56 822.123 106.322 823.648 107.848C825.174 109.373 825.936 111.21 825.936 113.36C825.936 115.37 825.174 117.138 823.648 118.664C822.123 120.189 820.286 120.952 818.136 120.952ZM832.402 178.36C829.768 178.36 827.341 177.909 825.122 177.008C822.904 176.106 821.136 174.754 819.818 172.952C818.501 171.08 817.842 168.826 817.842 166.192C817.842 163.834 818.466 162.101 819.714 160.992C820.962 159.813 822.28 159.224 823.666 159.224C825.053 159.224 826.266 159.674 827.306 160.576C828.416 161.408 828.97 162.552 828.97 164.008C828.97 164.84 828.797 165.568 828.45 166.192C828.104 166.746 827.757 167.266 827.41 167.752C826.925 168.306 826.474 168.861 826.058 169.416C825.642 169.97 825.434 170.629 825.434 171.392C825.434 172.432 826.093 173.368 827.41 174.2C828.728 174.962 830.253 175.344 831.986 175.344C834.066 175.344 835.8 174.685 837.186 173.368C838.573 171.981 839.266 169.901 839.266 167.128C839.266 165.533 838.85 163.938 838.018 162.344C837.186 160.68 836.146 158.981 834.898 157.248C833.373 155.029 831.917 152.776 830.53 150.488C829.213 148.2 828.554 145.634 828.554 142.792C828.554 140.504 829.144 138.458 830.322 136.656C831.501 134.784 833.2 133.293 835.418 132.184C837.637 131.074 840.237 130.52 843.218 130.52C846.685 130.52 849.701 131.352 852.266 133.016C854.901 134.61 856.218 137.037 856.218 140.296C856.218 141.613 855.802 142.792 854.97 143.832C854.138 144.802 852.925 145.288 851.33 145.288C849.666 145.288 848.453 144.837 847.69 143.936C846.928 143.034 846.546 141.925 846.546 140.608C846.546 140.4 846.546 140.157 846.546 139.88C846.616 139.533 846.685 139.221 846.754 138.944C846.824 138.597 846.893 138.25 846.962 137.904C847.032 137.488 847.066 137.176 847.066 136.968C847.066 135.928 846.65 135.061 845.818 134.368C844.986 133.674 843.877 133.328 842.49 133.328C841.173 133.328 839.994 133.813 838.954 134.784C837.914 135.754 837.394 137.349 837.394 139.568C837.394 141.301 837.949 143.138 839.058 145.08C840.237 146.952 841.45 148.754 842.698 150.488C844.293 152.637 845.645 154.682 846.754 156.624C847.864 158.496 848.418 160.992 848.418 164.112C848.418 167.301 847.621 169.97 846.026 172.12C844.501 174.2 842.49 175.76 839.994 176.8C837.568 177.84 835.037 178.36 832.402 178.36ZM860.754 178.36C857.703 178.36 855.45 177.354 853.994 175.344C852.538 173.264 851.81 170.733 851.81 167.752C851.81 163.384 852.642 159.293 854.306 155.48C856.039 151.597 858.223 148.096 860.858 144.976C863.492 141.786 866.196 139.013 868.97 136.656C871.258 134.714 873.58 133.224 875.938 132.184C878.364 131.144 880.548 130.624 882.49 130.624C885.124 130.624 887.066 131.213 888.314 132.392C889.631 133.57 890.29 135.026 890.29 136.76C890.29 139.256 889.284 141.752 887.274 144.248C885.332 146.744 882.108 148.997 877.602 151.008C873.095 152.949 866.959 154.44 859.194 155.48L859.402 152.464C863.978 152.117 867.791 151.216 870.842 149.76C873.892 148.234 876.146 146.536 877.602 144.664C879.127 142.722 879.89 140.989 879.89 139.464C879.89 137.592 878.988 136.656 877.186 136.656C875.314 136.656 873.476 137.418 871.674 138.944C869.94 140.4 868.346 142.341 866.89 144.768C865.503 147.194 864.359 149.829 863.458 152.672C862.626 155.514 862.21 158.322 862.21 161.096C862.21 163.8 862.73 165.845 863.77 167.232C864.879 168.549 866.474 169.208 868.554 169.208C870.01 169.208 871.5 168.826 873.026 168.064C874.551 167.301 876.111 166.122 877.706 164.528C879.3 162.864 880.826 160.784 882.282 158.288L884.258 159.536C882.316 162.933 879.994 166.053 877.29 168.896C874.586 171.738 871.778 174.026 868.866 175.76C865.954 177.493 863.25 178.36 860.754 178.36ZM7.17597 225.16C7.17597 219.544 8.70131 215.314 11.752 212.472C14.872 209.629 19.344 208.208 25.168 208.208H32.864V219.856H26.728C24.856 219.856 23.4693 220.306 22.568 221.208C21.736 222.109 21.32 223.461 21.32 225.264V228.696H32.656V240.032H21.32V281.528H7.17597V240.032H0.103973V228.696H7.17597V225.16ZM57.0415 282.256C51.9109 282.256 47.2655 281.146 43.1055 278.928C39.0149 276.64 35.7909 273.45 33.4335 269.36C31.1455 265.269 30.0015 260.52 30.0015 255.112C30.0015 249.773 31.1455 245.058 33.4335 240.968C35.7909 236.808 39.0149 233.618 43.1055 231.4C47.2655 229.112 51.9109 227.968 57.0415 227.968C62.2415 227.968 66.8869 229.112 70.9775 231.4C75.0682 233.618 78.2922 236.808 80.6495 240.968C83.0069 245.058 84.1855 249.773 84.1855 255.112C84.1855 260.52 83.0069 265.269 80.6495 269.36C78.3615 273.45 75.1375 276.64 70.9775 278.928C66.8869 281.146 62.2415 282.256 57.0415 282.256ZM44.6655 255.112C44.6655 260.381 45.7402 264.402 47.8895 267.176C50.0389 269.88 53.0895 271.232 57.0415 271.232C60.9935 271.232 64.0442 269.88 66.1935 267.176C68.4122 264.402 69.5215 260.381 69.5215 255.112C69.5215 249.912 68.4122 245.925 66.1935 243.152C64.0442 240.378 60.9935 238.992 57.0415 238.992C53.0895 238.992 50.0389 240.378 47.8895 243.152C45.7402 245.925 44.6655 249.912 44.6655 255.112ZM87.6671 228.696H101.915V244.92C103.51 239.72 105.832 235.594 108.883 232.544C111.934 229.493 115.678 227.968 120.115 227.968H120.323V241.904C113.944 241.904 109.264 243.394 106.283 246.376C103.371 249.357 101.915 254.592 101.915 262.08V281.528H87.6671V228.696ZM166.736 282.152C161.398 282.152 156.683 281.042 152.592 278.824C148.571 276.605 145.451 273.52 143.232 269.568C141.014 265.616 139.904 261.074 139.904 255.944C139.904 250.813 140.979 246.133 143.128 241.904C145.278 237.605 148.363 234.208 152.384 231.712C156.475 229.216 161.224 227.968 166.632 227.968C171.555 227.968 175.888 229.042 179.632 231.192C183.446 233.341 186.392 236.322 188.472 240.136C190.552 243.949 191.592 248.248 191.592 253.032C191.592 254.834 191.488 256.36 191.28 257.608H154.256C154.603 262.114 155.955 265.581 158.312 268.008C160.67 270.434 163.686 271.648 167.36 271.648C170.342 271.648 172.699 270.85 174.432 269.256C176.166 267.592 177.552 265.442 178.592 262.808L191.592 265.72C190.067 270.573 187.155 274.525 182.856 277.576C178.627 280.626 173.254 282.152 166.736 282.152ZM177.24 248.976C176.824 245.856 175.646 243.36 173.704 241.488C171.832 239.546 169.371 238.576 166.32 238.576C163.478 238.576 161.051 239.512 159.04 241.384C157.03 243.186 155.643 245.717 154.88 248.976H177.24ZM206.007 254.696L188.119 228.696H203.303L214.535 244.92L225.455 228.696H239.807L221.815 255.528L239.807 281.528H224.519L213.391 265.408L202.575 281.528H188.119L206.007 254.696ZM262.733 282.256C257.603 282.256 252.957 281.146 248.797 278.928C244.637 276.64 241.344 273.45 238.917 269.36C236.56 265.269 235.381 260.624 235.381 255.424C235.381 249.877 236.56 245.058 238.917 240.968C241.275 236.808 244.499 233.618 248.589 231.4C252.749 229.112 257.395 227.968 262.525 227.968C268.835 227.968 274.243 229.597 278.749 232.856C283.256 236.045 286.168 240.17 287.485 245.232L273.757 248.56C273.064 245.578 271.712 243.256 269.701 241.592C267.76 239.858 265.299 238.992 262.317 238.992C258.643 238.992 255.661 240.517 253.373 243.568C251.155 246.618 250.045 250.397 250.045 254.904C250.045 260.104 251.224 264.125 253.581 266.968C256.008 269.81 259.197 271.232 263.149 271.232C265.853 271.232 268.176 270.434 270.117 268.84C272.128 267.245 273.584 264.853 274.485 261.664L287.693 264.784C286.168 269.914 283.221 274.109 278.853 277.368C274.555 280.626 269.181 282.256 262.733 282.256ZM313.709 282.152C308.371 282.152 303.656 281.042 299.565 278.824C295.544 276.605 292.424 273.52 290.205 269.568C287.987 265.616 286.877 261.074 286.877 255.944C286.877 250.813 287.952 246.133 290.101 241.904C292.251 237.605 295.336 234.208 299.357 231.712C303.448 229.216 308.197 227.968 313.605 227.968C318.528 227.968 322.861 229.042 326.605 231.192C330.419 233.341 333.365 236.322 335.445 240.136C337.525 243.949 338.565 248.248 338.565 253.032C338.565 254.834 338.461 256.36 338.253 257.608H301.229C301.576 262.114 302.928 265.581 305.285 268.008C307.643 270.434 310.659 271.648 314.333 271.648C317.315 271.648 319.672 270.85 321.405 269.256C323.139 267.592 324.525 265.442 325.565 262.808L338.565 265.72C337.04 270.573 334.128 274.525 329.829 277.576C325.6 280.626 320.227 282.152 313.709 282.152ZM324.213 248.976C323.797 245.856 322.619 243.36 320.677 241.488C318.805 239.546 316.344 238.576 313.293 238.576C310.451 238.576 308.024 239.512 306.013 241.384C304.003 243.186 302.616 245.717 301.853 248.976H324.213ZM342.309 228.696H356.453V239.824C357.978 236.149 360.162 233.272 363.005 231.192C365.847 229.042 369.349 227.968 373.509 227.968C377.877 227.968 381.759 229.077 385.157 231.296C388.623 233.514 391.327 236.704 393.269 240.864C395.279 245.024 396.285 249.877 396.285 255.424C396.285 260.832 395.279 265.581 393.269 269.672C391.258 273.762 388.554 276.917 385.157 279.136C381.829 281.285 378.154 282.36 374.133 282.36C369.973 282.36 366.402 281.285 363.421 279.136C360.439 276.986 358.117 273.97 356.453 270.088V302.328H342.309V228.696ZM356.453 254.696C356.453 259.688 357.631 263.744 359.989 266.864C362.415 269.914 365.57 271.44 369.453 271.44C373.127 271.44 376.039 269.984 378.189 267.072C380.407 264.16 381.551 260.277 381.621 255.424C381.621 250.293 380.511 246.237 378.293 243.256C376.143 240.274 373.231 238.784 369.557 238.784C365.605 238.784 362.45 240.24 360.093 243.152C357.735 246.064 356.522 249.912 356.453 254.696ZM419.557 281.528C413.802 281.528 409.365 280.072 406.245 277.16C403.125 274.248 401.565 270.018 401.565 264.472V240.032H395.013V228.696H401.565V219.336L415.709 214.448V228.696H427.149V240.032H415.709V264.368C415.709 266.101 416.16 267.453 417.061 268.424C418.032 269.325 419.384 269.776 421.117 269.776H427.149V281.528H419.557ZM430.575 228.696H444.719V281.528H430.575V228.696ZM430.367 209.664H444.927V222.144H430.367V209.664ZM475.215 282.256C470.084 282.256 465.439 281.146 461.279 278.928C457.188 276.64 453.964 273.45 451.607 269.36C449.319 265.269 448.175 260.52 448.175 255.112C448.175 249.773 449.319 245.058 451.607 240.968C453.964 236.808 457.188 233.618 461.279 231.4C465.439 229.112 470.084 227.968 475.215 227.968C480.415 227.968 485.06 229.112 489.151 231.4C493.242 233.618 496.466 236.808 498.823 240.968C501.18 245.058 502.359 249.773 502.359 255.112C502.359 260.52 501.18 265.269 498.823 269.36C496.535 273.45 493.311 276.64 489.151 278.928C485.06 281.146 480.415 282.256 475.215 282.256ZM462.839 255.112C462.839 260.381 463.914 264.402 466.063 267.176C468.212 269.88 471.263 271.232 475.215 271.232C479.167 271.232 482.218 269.88 484.367 267.176C486.586 264.402 487.695 260.381 487.695 255.112C487.695 249.912 486.586 245.925 484.367 243.152C482.218 240.378 479.167 238.992 475.215 238.992C471.263 238.992 468.212 240.378 466.063 243.152C463.914 245.925 462.839 249.912 462.839 255.112ZM506.044 228.696H520.188V240.448C522.268 236.773 524.937 233.792 528.196 231.504C531.454 229.146 535.164 227.968 539.324 227.968C544.593 227.968 548.372 229.666 550.66 233.064C553.017 236.392 554.196 241.21 554.196 247.52V281.528H540.052V249.912C540.052 245.821 539.393 242.909 538.076 241.176C536.828 239.442 534.817 238.576 532.044 238.576C528.924 238.576 526.254 239.928 524.036 242.632C521.817 245.266 520.534 248.525 520.188 252.408V281.528H506.044V228.696ZM591.165 246.584C591.165 244.226 590.403 242.389 588.877 241.072C587.421 239.685 585.341 238.992 582.637 238.992C577.576 238.992 573.901 241.488 571.613 246.48L558.821 243.568C560.416 239.061 563.363 235.352 567.661 232.44C572.029 229.458 577.333 227.968 583.573 227.968C590.368 227.968 595.672 229.597 599.485 232.856C603.368 236.114 605.309 240.829 605.309 247V281.528H591.165V272.168C589.224 275.357 586.624 277.853 583.365 279.656C580.176 281.389 576.605 282.256 572.653 282.256C568.216 282.256 564.472 281.077 561.421 278.72C558.371 276.293 556.845 272.965 556.845 268.736C556.845 263.882 558.544 260.242 561.941 257.816C565.408 255.389 570.816 253.829 578.165 253.136C583.088 252.72 586.485 252.096 588.357 251.264C590.229 250.362 591.165 248.802 591.165 246.584ZM571.821 266.864C571.821 268.666 572.48 270.053 573.797 271.024C575.184 271.994 576.917 272.48 578.997 272.48C582.256 272.48 585.099 271.266 587.525 268.84C589.952 266.344 591.165 262.634 591.165 257.712V256.984C589.363 258.717 586.312 259.826 582.013 260.312C578.477 260.658 575.877 261.317 574.213 262.288C572.619 263.189 571.821 264.714 571.821 266.864ZM611.377 208.728H625.521V281.528H611.377V208.728ZM648.261 282.776L663.237 245.128C663.653 244.088 663.792 243.325 663.653 242.84C663.584 242.354 663.272 242.112 662.717 242.112C662.093 242.112 661.123 242.77 659.805 244.088C658.488 245.405 657.067 247 655.541 248.872C654.085 250.744 652.803 252.546 651.693 254.28L649.613 252.928C653.981 246.757 657.691 242.181 660.741 239.2C663.861 236.218 666.808 234.728 669.581 234.728C672.008 234.728 673.672 235.594 674.573 237.328C675.475 238.992 675.336 241.21 674.157 243.984L666.149 262.392H666.357C667.813 259.757 669.443 256.845 671.245 253.656C673.117 250.466 675.093 247.45 677.173 244.608C679.323 241.696 681.611 239.304 684.037 237.432C686.464 235.56 688.995 234.624 691.629 234.624C694.056 234.624 695.893 235.282 697.141 236.6C698.459 237.848 699.117 239.373 699.117 241.176C699.117 243.325 698.459 245.024 697.141 246.272C695.893 247.52 694.472 248.144 692.877 248.144C691.976 248.144 691.248 247.936 690.693 247.52C690.139 247.104 689.723 246.653 689.445 246.168C688.96 245.197 688.475 244.365 687.989 243.672C687.573 242.909 686.88 242.528 685.909 242.528C684.384 242.528 682.512 243.602 680.293 245.752C678.144 247.832 675.821 250.709 673.325 254.384C670.899 258.058 668.472 262.253 666.045 266.968C663.619 271.613 661.365 276.466 659.285 281.528L648.261 282.776ZM700.569 282.36C697.519 282.36 695.265 281.354 693.809 279.344C692.353 277.264 691.625 274.733 691.625 271.752C691.625 267.384 692.457 263.293 694.121 259.48C695.855 255.597 698.039 252.096 700.673 248.976C703.308 245.786 706.012 243.013 708.785 240.656C711.073 238.714 713.396 237.224 715.753 236.184C718.18 235.144 720.364 234.624 722.305 234.624C724.94 234.624 726.881 235.213 728.129 236.392C729.447 237.57 730.105 239.026 730.105 240.76C730.105 243.256 729.1 245.752 727.089 248.248C725.148 250.744 721.924 252.997 717.417 255.008C712.911 256.949 706.775 258.44 699.009 259.48L699.217 256.464C703.793 256.117 707.607 255.216 710.657 253.76C713.708 252.234 715.961 250.536 717.417 248.664C718.943 246.722 719.705 244.989 719.705 243.464C719.705 241.592 718.804 240.656 717.001 240.656C715.129 240.656 713.292 241.418 711.489 242.944C709.756 244.4 708.161 246.341 706.705 248.768C705.319 251.194 704.175 253.829 703.273 256.672C702.441 259.514 702.025 262.322 702.025 265.096C702.025 267.8 702.545 269.845 703.585 271.232C704.695 272.549 706.289 273.208 708.369 273.208C709.825 273.208 711.316 272.826 712.841 272.064C714.367 271.301 715.927 270.122 717.521 268.528C719.116 266.864 720.641 264.784 722.097 262.288L724.073 263.536C722.132 266.933 719.809 270.053 717.105 272.896C714.401 275.738 711.593 278.026 708.681 279.76C705.769 281.493 703.065 282.36 700.569 282.36ZM737.734 282.36C735.099 282.36 732.672 281.909 730.454 281.008C728.235 280.106 726.467 278.754 725.15 276.952C723.832 275.08 723.174 272.826 723.174 270.192C723.174 267.834 723.798 266.101 725.046 264.992C726.294 263.813 727.611 263.224 728.998 263.224C730.384 263.224 731.598 263.674 732.638 264.576C733.747 265.408 734.302 266.552 734.302 268.008C734.302 268.84 734.128 269.568 733.782 270.192C733.435 270.746 733.088 271.266 732.742 271.752C732.256 272.306 731.806 272.861 731.39 273.416C730.974 273.97 730.766 274.629 730.766 275.392C730.766 276.432 731.424 277.368 732.742 278.2C734.059 278.962 735.584 279.344 737.318 279.344C739.398 279.344 741.131 278.685 742.518 277.368C743.904 275.981 744.598 273.901 744.598 271.128C744.598 269.533 744.182 267.938 743.35 266.344C742.518 264.68 741.478 262.981 740.23 261.248C738.704 259.029 737.248 256.776 735.862 254.488C734.544 252.2 733.886 249.634 733.886 246.792C733.886 244.504 734.475 242.458 735.654 240.656C736.832 238.784 738.531 237.293 740.75 236.184C742.968 235.074 745.568 234.52 748.55 234.52C752.016 234.52 755.032 235.352 757.598 237.016C760.232 238.61 761.55 241.037 761.55 244.296C761.55 245.613 761.134 246.792 760.302 247.832C759.47 248.802 758.256 249.288 756.662 249.288C754.998 249.288 753.784 248.837 753.022 247.936C752.259 247.034 751.878 245.925 751.878 244.608C751.878 244.4 751.878 244.157 751.878 243.88C751.947 243.533 752.016 243.221 752.086 242.944C752.155 242.597 752.224 242.25 752.294 241.904C752.363 241.488 752.398 241.176 752.398 240.968C752.398 239.928 751.982 239.061 751.15 238.368C750.318 237.674 749.208 237.328 747.822 237.328C746.504 237.328 745.326 237.813 744.286 238.784C743.246 239.754 742.726 241.349 742.726 243.568C742.726 245.301 743.28 247.138 744.39 249.08C745.568 250.952 746.782 252.754 748.03 254.488C749.624 256.637 750.976 258.682 752.086 260.624C753.195 262.496 753.75 264.992 753.75 268.112C753.75 271.301 752.952 273.97 751.358 276.12C749.832 278.2 747.822 279.76 745.326 280.8C742.899 281.84 740.368 282.36 737.734 282.36ZM767.894 282.36C765.398 282.36 763.734 281.458 762.902 279.656C762.139 277.853 762.312 275.669 763.422 273.104L775.382 245.856C775.936 244.538 776.075 243.568 775.798 242.944C775.59 242.32 775.104 242.008 774.342 242.008C773.718 242.008 772.712 242.666 771.326 243.984C770.008 245.301 768.587 246.896 767.062 248.768C765.606 250.64 764.323 252.442 763.214 254.176L761.134 252.824C765.502 246.653 769.211 242.112 772.262 239.2C775.382 236.218 778.328 234.728 781.102 234.728C783.875 234.728 785.712 235.664 786.614 237.536C787.584 239.408 787.48 241.696 786.302 244.4L774.862 270.4C774.376 271.44 774.238 272.272 774.446 272.896C774.723 273.45 775.278 273.728 776.11 273.728C777.358 273.728 779.195 272.722 781.622 270.712C784.048 268.632 786.718 265.824 789.63 262.288C792.611 258.682 795.488 254.592 798.262 250.016C801.104 245.37 803.496 240.517 805.438 235.456L816.358 234.312L801.382 271.96C800.966 273 800.792 273.762 800.862 274.248C801 274.733 801.347 274.976 801.902 274.976C802.526 274.976 803.496 274.317 804.814 273C806.131 271.682 807.518 270.088 808.974 268.216C810.499 266.274 811.816 264.472 812.926 262.808L815.006 264.16C810.638 270.33 806.894 274.906 803.774 277.888C800.723 280.869 797.811 282.36 795.038 282.36C792.68 282.36 791.016 281.528 790.046 279.864C789.144 278.13 789.283 275.877 790.462 273.104L798.366 254.592H798.158C796.84 256.741 795.28 259.064 793.478 261.56C791.744 264.056 789.838 266.517 787.758 268.944C785.747 271.37 783.632 273.624 781.414 275.704C779.195 277.714 776.942 279.344 774.654 280.592C772.366 281.77 770.112 282.36 767.894 282.36ZM819.041 282.36C816.615 282.36 814.812 281.528 813.633 279.864C812.455 278.2 812.351 276.12 813.321 273.624L835.265 218.296C835.82 216.909 835.855 215.938 835.369 215.384C834.953 214.76 834.329 214.344 833.497 214.136L830.897 213.408L831.417 211.536C835.092 210.912 838.212 210.392 840.777 209.976C843.343 209.49 846.047 208.658 848.889 207.48L850.345 208.208C849.444 209.733 848.577 211.397 847.745 213.2C846.983 214.933 846.289 216.597 845.665 218.192L824.657 271.232C824.172 272.48 824.068 273.416 824.345 274.04C824.692 274.664 825.177 274.976 825.801 274.976C826.772 274.976 828.124 273.97 829.857 271.96C831.591 269.949 833.948 266.898 836.929 262.808L839.009 264.16C834.641 270.33 830.897 274.906 827.777 277.888C824.727 280.869 821.815 282.36 819.041 282.36ZM846.395 282.36C843.622 282.36 841.784 281.458 840.883 279.656C840.051 277.784 840.19 275.461 841.299 272.688L854.299 239.304H847.331L848.787 235.664H855.963L859.291 227.344L870.211 226.304L866.467 235.56H874.995L873.539 239.2H865.011L852.427 271.128C851.942 272.445 851.803 273.416 852.011 274.04C852.288 274.664 852.774 274.976 853.467 274.976C854.022 274.976 854.923 274.317 856.171 273C857.419 271.682 858.736 270.088 860.123 268.216C861.51 266.274 862.723 264.472 863.763 262.808L865.843 264.16C861.614 270.4 857.974 275.01 854.923 277.992C851.872 280.904 849.03 282.36 846.395 282.36ZM881.359 282.36C878.725 282.36 876.298 281.909 874.079 281.008C871.861 280.106 870.093 278.754 868.775 276.952C867.458 275.08 866.799 272.826 866.799 270.192C866.799 267.834 867.423 266.101 868.671 264.992C869.919 263.813 871.237 263.224 872.623 263.224C874.01 263.224 875.223 263.674 876.263 264.576C877.373 265.408 877.927 266.552 877.927 268.008C877.927 268.84 877.754 269.568 877.407 270.192C877.061 270.746 876.714 271.266 876.367 271.752C875.882 272.306 875.431 272.861 875.015 273.416C874.599 273.97 874.391 274.629 874.391 275.392C874.391 276.432 875.05 277.368 876.367 278.2C877.685 278.962 879.21 279.344 880.943 279.344C883.023 279.344 884.757 278.685 886.143 277.368C887.53 275.981 888.223 273.901 888.223 271.128C888.223 269.533 887.807 267.938 886.975 266.344C886.143 264.68 885.103 262.981 883.855 261.248C882.33 259.029 880.874 256.776 879.487 254.488C878.17 252.2 877.511 249.634 877.511 246.792C877.511 244.504 878.101 242.458 879.279 240.656C880.458 238.784 882.157 237.293 884.375 236.184C886.594 235.074 889.194 234.52 892.175 234.52C895.642 234.52 898.658 235.352 901.223 237.016C903.858 238.61 905.175 241.037 905.175 244.296C905.175 245.613 904.759 246.792 903.927 247.832C903.095 248.802 901.882 249.288 900.287 249.288C898.623 249.288 897.41 248.837 896.647 247.936C895.885 247.034 895.503 245.925 895.503 244.608C895.503 244.4 895.503 244.157 895.503 243.88C895.573 243.533 895.642 243.221 895.711 242.944C895.781 242.597 895.85 242.25 895.919 241.904C895.989 241.488 896.023 241.176 896.023 240.968C896.023 239.928 895.607 239.061 894.775 238.368C893.943 237.674 892.834 237.328 891.447 237.328C890.13 237.328 888.951 237.813 887.911 238.784C886.871 239.754 886.351 241.349 886.351 243.568C886.351 245.301 886.906 247.138 888.015 249.08C889.194 250.952 890.407 252.754 891.655 254.488C893.25 256.637 894.602 258.682 895.711 260.624C896.821 262.496 897.375 264.992 897.375 268.112C897.375 271.301 896.578 273.97 894.983 276.12C893.458 278.2 891.447 279.76 888.951 280.8C886.525 281.84 883.994 282.36 881.359 282.36ZM909.023 282.152C907.29 282.152 905.765 281.493 904.447 280.176C903.13 278.858 902.471 277.333 902.471 275.6C902.471 273.728 903.13 272.133 904.447 270.816C905.765 269.498 907.29 268.84 909.023 268.84C910.895 268.84 912.49 269.498 913.807 270.816C915.125 272.133 915.783 273.728 915.783 275.6C915.783 277.333 915.125 278.858 913.807 280.176C912.49 281.493 910.895 282.152 909.023 282.152Z" fill="black"/>
</svg>
