<svg width="857" height="209" viewBox="0 0 857 209" fill="none" xmlns="http://www.w3.org/2000/svg">
<path d="M0 102.734C0 35.5006 36.3558 -3 99.9784 -3C163.601 -3 199.663 35.5006 199.663 102.734C199.663 169.967 163.307 208.468 99.9784 208.468C36.6498 208.468 0 169.967 0 102.734ZM99.9784 169.674C132.815 169.674 151.874 145.088 151.874 102.734C151.874 60.38 132.815 35.7939 99.9784 35.7939C67.1422 35.7939 47.7885 60.38 47.7885 102.734C47.7885 145.088 67.1422 169.674 99.9784 169.674Z" fill="black"/>
<path d="M411.037 206.367H364.71L349.17 161.642H260.919L245.084 206.367H200.228L276.459 -0.962402H335.688L411.037 206.367ZM336.57 125.512L305.489 36.3647L273.821 125.512H336.57Z" fill="black"/>
<path d="M414.284 144.501L457.973 135.026C464.13 159.613 481.72 172.052 503.418 172.052C519.546 172.052 533.616 165.535 533.616 149.25C533.616 135.629 523.939 130.888 506.643 124.664L469.7 111.63C439.501 100.966 421.029 87.9393 421.029 56.836C421.029 25.7327 447.12 -3 495.497 -3C543.873 -3 569.384 20.9915 579.641 53.8628L534.49 63.3373C529.215 44.6817 514.557 33.1299 493.153 33.1299C475.857 33.1299 466.18 42.0177 466.18 53.2682C466.18 64.5187 476.151 70.1479 490.809 74.8891L527.753 87.6222C555.02 97.0967 578.767 113.096 578.767 145.674C578.767 178.252 557.07 208.468 502.242 208.468C461.191 208.468 422.785 185.364 414.284 144.493V144.501Z" fill="black"/>
<path d="M629.177 -0.962402H675.21L639.148 206.367H593.115L629.177 -0.962402Z" fill="black"/>
<path d="M804.811 35.1755H694.862V-0.962402H856.707V35.1675L746.758 170.229H857.001V206.367H694.568V170.229L804.811 35.1675V35.1755Z" fill="black"/>
</svg>
