<svg width="220" height="29" viewBox="0 0 220 29" fill="none" xmlns="http://www.w3.org/2000/svg">
<path d="M5.28775 13.3105C3.44853 11.9232 1.07023 10.7341 0 10.2822L1.96606 7.34895C4.63768 8.44296 6.38177 9.56869 7.19039 10.4407L5.28775 13.3105ZM8.05451 20.1759L4.76453 26.9778C4.73282 27.0413 4.66939 27.1998 4.66939 27.3346C4.66939 27.4694 4.76453 28.0084 4.76453 28.1432C4.76453 28.3652 4.66939 28.4682 4.50291 28.4682C4.2413 28.4682 3.75771 28.1749 3.4089 27.9212L0.634213 26.0503C2.33866 23.6324 4.78831 19.2167 5.98539 16.0932L8.88691 18.2812C8.69665 18.7648 8.3399 19.5734 8.04658 20.1838L8.05451 20.1759ZM7.66605 6.22322C6.31042 4.8993 3.82906 3.32169 2.70333 2.71126L5.02614 0C6.89707 0.776911 8.92655 2.25938 10.0523 3.38511L7.66605 6.22322ZM14.0161 19.5575V23.5531C15.3083 23.2915 16.3706 23.1012 18.5904 22.4274V25.5192C15.9822 26.2961 13.9844 26.8431 9.95715 27.4218C9.18024 27.5169 9.0851 27.6121 8.98997 27.7468C8.72836 28.0719 8.66494 28.167 8.5381 28.167C8.24477 28.167 8.08622 27.7785 8.05451 27.62L7.21418 24.4965C8.50638 24.4648 9.91751 24.2032 10.631 24.0763V13.5722L13.8893 13.8972C14.2777 13.9289 14.7613 13.9923 14.7613 14.3808C14.7613 14.4759 14.7296 14.5076 14.4363 14.7058C14.1112 14.8961 14.0161 14.9278 14.0161 15.0943V16.6085H18.7172V19.5734H14.0161V19.5575ZM10.3456 12.5019V1.29221H27.0413V12.5099H10.3456V12.5019ZM23.6562 4.05896H13.6673V5.44631H23.6562V4.05896ZM23.6562 8.2527H13.6673V9.73517H23.6562V8.2527ZM26.8748 27.3901H22.0389C20.715 27.3901 19.7161 26.9382 19.7161 24.9404V13.4691L22.9744 13.6911C23.1329 13.6911 23.8464 13.7228 23.8464 14.1112C23.8464 14.2381 23.7513 14.3015 23.6562 14.4046C23.2043 14.793 23.1726 14.8247 23.1726 14.9833V17.4964C24.3934 16.9176 25.3923 16.109 26.3595 15.1101L28.2304 17.1396C28.389 17.3299 28.6823 17.6549 28.6823 17.9482C28.6823 18.2416 28.5554 18.2416 28.0719 18.2416C27.8102 18.2416 27.6834 18.2416 27.4931 18.3684C25.8838 19.5258 23.6562 20.6595 23.1726 20.8815V22.9109C23.1726 23.8147 23.3945 24.1714 24.1397 24.1714H25.3606C26.1692 24.1714 26.518 23.1091 26.8114 20.5961L29.8397 21.8566C29.4196 25.7253 28.6506 27.398 26.8748 27.398V27.3901Z" fill="black"/>
<path d="M36.9904 14.5961C35.3177 13.1453 33.6687 12.1464 32.543 11.536L34.4139 8.9278C36.5068 10.1883 37.5057 10.989 38.7028 12.0196L36.9983 14.5961H36.9904ZM36.4434 26.7175C36.2214 27.0742 36.2214 27.1376 36.2214 27.8749C36.2214 28.0652 36.158 28.3268 35.8647 28.3268C35.6427 28.3268 35.1274 27.9066 35.056 27.8432L32.7332 25.9406C35.1512 22.8488 36.7288 19.3368 37.5374 17.2043L40.0188 19.5905C38.5997 23.1025 37.6325 24.7118 36.4434 26.7095V26.7175ZM37.9893 5.96285C36.9587 5.0591 35.5713 3.93337 33.6687 2.96619L35.6665 0.453125C37.8862 1.74533 38.7583 2.4509 39.8206 3.44978L37.9813 5.96285H37.9893ZM57.642 27.7481H52.1639C49.524 27.7481 48.105 26.6223 48.105 24.1093V19.5667H44.5296V21.4059H40.9542V9.96632L44.1094 10.2279C44.7833 10.2914 45.1083 10.3865 45.1083 10.6481C45.1083 10.8067 44.815 10.9731 44.5296 11.2585V16.1895H48.105V8.45214C44.8467 8.99915 43.0154 9.1577 41.1445 9.29247L38.8217 6.10555C41.7232 6.04213 44.2363 5.91529 48.105 5.2018V0.516546L51.2919 0.6751C52.1639 0.70681 52.2908 0.865364 52.2908 1.06356C52.2908 1.15869 52.2908 1.1904 52.2274 1.25382C51.9684 1.51279 51.8389 1.68456 51.8389 1.76912V4.3139C54.7721 3.47357 56.0247 2.89485 57.1901 2.31613L59.3147 4.47245C59.4732 4.66271 59.7983 4.98775 59.7983 5.28107C59.7983 5.40792 59.7031 5.50305 59.608 5.54269H58.7994C58.4109 5.54269 57.9908 5.70124 57.1267 6.05798C55.224 6.83489 53.036 7.3819 51.8389 7.6673V16.1737H55.446V8.72961L58.7043 8.99122C59.2196 9.02293 59.6397 9.08635 59.6397 9.37968C59.6397 9.53823 59.4178 9.73642 59.1561 10.0218V20.2406H55.4539V19.5667H51.8468V23.594C51.8468 24.2361 52.0371 24.6246 53.2659 24.6246H56.326C57.5468 24.6246 58.1018 24.6246 58.4189 21.0492L61.8991 22.8884C61.1618 25.9802 60.4483 27.756 57.642 27.756V27.7481Z" fill="black"/>
<path d="M81.0044 16.2737C81.0044 17.5342 81.0678 21.5297 81.0678 22.6237H77.3259C77.421 20.7845 77.4528 19.2069 77.4845 17.7878C76.2636 18.3983 72.9102 20.0789 72.9102 22.3304C72.9102 24.4233 75.3916 24.8435 77.7461 24.8435C80.5208 24.8435 83.2558 24.4233 85.9671 23.8129V27.4517C82.907 27.9352 79.3316 27.9352 78.301 27.9352C76.4935 27.9352 72.7596 27.9352 70.7301 25.7789C69.5092 24.4867 69.5092 23.0756 69.5092 22.6237C69.5092 18.6282 72.4742 17.114 77.3101 14.6326C77.1198 13.6655 76.7313 12.508 74.8604 12.508C71.7052 12.508 69.7708 15.4412 67.9951 18.3428L64.8398 16.3767C67.3846 13.6337 68.9939 11.3506 71.1899 7.51358C69.3507 7.60872 68.3518 7.64043 67.0041 7.64043L66.6156 4.28702C68.55 4.44558 69.969 4.509 72.7675 4.41387C73.5761 2.67771 73.9884 1.54405 74.3768 0.125L78.4041 0.830562C78.4992 0.862273 79.0462 0.925694 79.0462 1.1556C79.0462 1.34586 78.9194 1.44892 78.7212 1.51234C78.6578 1.54405 78.0156 1.83738 77.9839 1.83738C77.9522 1.86909 77.1436 3.67659 76.985 4.02541C79.95 3.54182 81.4007 3.12166 83.3034 2.38438L83.0814 5.99147C80.1799 6.66532 77.54 6.95865 75.3757 7.21233C74.3451 9.11497 74.0835 9.56685 73.5365 10.3993C73.9567 10.209 74.9238 9.7254 76.3112 9.7254C78.5388 9.7254 79.95 10.8511 80.6952 12.9837C84.4687 11.2079 84.881 11.0176 86.4031 10.3438L87.4971 14.0143C84.9523 14.8229 83.4064 15.3699 81.0202 16.2737H81.0044Z" fill="black"/>
<path d="M107.491 8.14606V11.1427H112.707L114.316 12.8472C112.16 17.6513 109.449 20.2278 108.03 21.5517C110.67 22.9391 113.119 23.9697 118.502 24.6752L116.409 28.0604C112.025 27.3152 109.06 26.2846 105.128 23.8745C101.038 26.4193 98.0727 27.3231 94.0137 28.0604L92.016 24.5484C93.6253 24.3898 95.2029 24.2234 97.7873 23.4227C99.9753 22.7488 101.077 22.1305 102.14 21.5835C100.332 19.9741 99.3332 18.7771 97.9855 16.6842L100.562 14.623C102.076 16.8823 103.138 18.0081 105.009 19.4905C107.071 17.8495 108.299 15.9152 109.1 14.4644H95.8213V11.1427H103.36V8.14606H91.8574V4.88779H103.36V0.511719L107.356 0.773332C107.515 0.773332 108.133 0.805042 108.133 1.16179C108.133 1.28863 107.491 1.77222 107.491 1.9387V4.90365H119.057V8.16192H107.491V8.14606Z" fill="black"/>
<path d="M135.104 27.8096V26.779H127.271V28.0712H124.37V7.25319H128.206V4.58157H124.211V1.41843H137.91V4.57364H133.883V7.24526H137.91V27.8017H135.104V27.8096ZM135.104 17.5274H134.041C132.297 17.5274 131.528 16.9804 131.528 15.1729V10.1468H130.466V10.7889C130.466 15.1729 129.855 16.3621 129.015 17.7811L127.271 17.139V19.2319H135.104V17.5274ZM127.271 10.1468V15.9815C127.596 15.3394 127.818 14.7607 127.977 13.8886C128.135 13.0483 128.199 11.8909 128.199 10.1468H127.263H127.271ZM135.104 21.9749H127.271V23.9409H135.104V21.9749ZM131.52 4.57364H130.458V7.24526H131.52V4.57364ZM135.104 10.1468H133.883V14.2058C133.883 15.0461 134.239 15.0778 135.104 15.0778V10.1468ZM148.311 27.2626H142.77C140.383 27.2626 139.583 26.2954 139.583 24.2342V11.2487H147.51V4.86696H139.71V1.38672H151.022V15.601H147.51V14.507H142.809V22.6249C142.809 23.8458 143.293 24.2025 144.419 24.2025H147.479C148.382 24.2025 148.636 23.6555 148.771 23.2671C148.898 22.942 149.254 22.0779 149.318 20.8174L152.124 22.0383C151.379 26.0338 150.547 27.2626 148.319 27.2626H148.311Z" fill="black"/>
<path d="M171.158 8.11563V12.6265C171.515 13.4034 172.094 14.5291 172.094 16.5586C172.094 17.4941 171.903 19.8803 170.453 22.7818C168.97 25.7785 167.226 27.586 166.069 28.7751L162.462 26.9042C164.396 25.6437 166.362 23.971 167.067 21.6164C166.362 21.8067 165.878 21.9415 165.331 21.9415C164.491 21.9415 163.492 21.6481 162.691 20.9426C161.368 19.7851 161.019 18.0411 161.019 16.4635C161.019 12.9198 162.794 10.4701 166.077 10.4701C166.687 10.4701 167.139 10.5653 167.591 10.7318L167.527 8.31382C164.657 8.47237 159.79 8.76569 155.699 9.28099V5.53913C157.887 5.53913 160.662 5.53913 167.432 5.2141C167.4 4.21521 167.4 2.51077 167.21 0.15625L170.786 0.378225C171.531 0.409935 171.721 0.505067 171.721 0.830101C171.721 1.02037 171.658 1.12343 171.428 1.31369C171.206 1.50395 171.166 1.5753 171.166 1.70214V5.02384C175.645 4.76222 176.644 4.66709 179.934 4.41341V7.89365C177.484 7.89365 175.36 7.95707 171.166 8.11563H171.158ZM167.575 13.9821C167.25 13.6571 166.798 13.5302 166.386 13.5302C165.094 13.5302 164.198 14.6559 164.198 16.3683C164.198 18.3027 165.228 19.0399 165.973 19.0399C166.647 19.0399 168.193 18.3344 168.193 16.0433C168.193 15.3694 168.098 14.5291 167.583 13.9821H167.575Z" fill="black"/>
<path d="M194.673 27.1679C190.646 27.1679 188.585 25.1385 188.585 22.7522C188.585 20.913 190.162 18.4634 193.325 18.4634C196.679 18.4634 198.772 21.1033 199.675 22.2369C200.381 21.5948 201.8 20.2392 201.8 17.9481C201.8 14.7611 198.676 13.7305 196.584 13.7305C195.196 13.7305 193.682 14.119 192.913 14.5392C190.915 15.6015 188.077 18.4713 186.278 20.3105L183.574 17.4724C186.928 14.9593 190.344 12.0895 195.497 5.84252C193.563 6.29439 191.795 6.61943 187.958 6.65114L187.213 3.04405C187.99 3.10747 189.821 3.23432 190.82 3.23432C192.041 3.23432 197.527 2.81415 200.587 1.625L202.26 4.2332C200.325 5.84252 199.778 6.35782 195.109 11.1303C196.171 10.9717 197.749 10.94 198.232 10.94C202.616 10.94 205.383 14.5154 205.383 18.059C205.383 23.4102 200.357 27.1759 194.681 27.1759L194.673 27.1679ZM193.452 21.3015C192.128 21.3015 191.843 22.2369 191.843 22.6571C191.843 23.7828 193.325 24.1079 194.483 24.1079C195.513 24.1079 196.227 23.9176 196.671 23.8145C196.251 23.0693 195.283 21.3015 193.444 21.3015H193.452Z" fill="black"/>
<path d="M220 23.4237C220 26.1666 217.772 28.3864 215.037 28.4181C212.294 28.4181 210.043 26.1587 210.043 23.4237C210.043 20.6886 212.302 18.4609 215.037 18.4609C217.772 18.4609 220 20.649 220 23.4237ZM211.589 23.4237C211.589 25.3263 213.135 26.8722 215.037 26.8405C216.94 26.8405 218.454 25.3263 218.454 23.4237C218.454 21.521 216.908 20.0068 215.037 20.0068C213.166 20.0068 211.589 21.521 211.589 23.4237Z" fill="black"/>
</svg>
